<svg width="98" height="77" viewBox="0 0 98 77" fill="none" xmlns="http://www.w3.org/2000/svg">
<path d="M11.4041 73.1695C7.24656 70.0509 3.58397 66.2199 1.87601 61.6434C0.166484 57.0669 0.681683 51.662 4.12883 47.9277C6.08346 45.8099 8.80309 44.3631 11.0216 42.4594C14.4999 39.4732 16.6154 35.4862 18.5388 31.5517C20.4622 27.6171 22.3153 23.5694 25.4206 20.2782C28.5274 16.987 33.1845 14.5172 38.0117 14.9106C45.6148 15.5305 50.5154 22.5933 57.7719 24.6931C61.4267 25.7506 65.3922 25.4593 69.1984 24.9734C73.0046 24.4874 76.8374 23.8165 80.6639 24.152C84.4904 24.4874 88.4138 26.024 90.3481 28.9632C92.8819 32.8107 91.3582 37.6965 92.2434 42.0783C92.9662 45.6581 95.2924 48.8264 96.4165 52.3233C98.866 59.9356 94.7585 68.8001 86.9728 72.7043L11.4041 73.1695Z" fill="#F9F9FA"/>
<rect x="22.7901" y="1.75194" width="53.9276" height="68.5027" rx="2.91501" stroke="#20237C" stroke-width="2.91501"/>
<path d="M72.9283 66.4649H26.5797V5.54123H72.9283V66.4649Z" fill="#D9C5FF" stroke="white" stroke-width="4.66401"/>
<circle cx="52.9903" cy="39.2396" r="23.8711" fill="white" stroke="#1A237E" stroke-width="3.91329"/>
<circle cx="53.1791" cy="39.4284" r="18.7289" fill="#45FBDB" stroke="white" stroke-width="1.4575"/>
<mask id="path-6-inside-1" fill="white">
<path d="M72.6368 39.4284C72.6368 43.7871 71.1733 48.0196 68.4809 51.4474C65.7885 54.8752 62.0231 57.2997 57.7884 58.3322C53.5537 59.3648 49.095 58.9455 45.127 57.1418C41.159 55.338 37.9115 52.2542 35.9052 48.3846C33.8989 44.5151 33.25 40.0839 34.0624 35.8016C34.8749 31.5192 37.1017 27.6337 40.3858 24.7678C43.6699 21.902 47.8212 20.2218 52.1741 19.9967C56.5271 19.7716 60.8295 21.0145 64.3918 23.5263L53.1791 39.4284H72.6368Z"/>
</mask>
<path d="M72.6368 39.4284C72.6368 43.7871 71.1733 48.0196 68.4809 51.4474C65.7885 54.8752 62.0231 57.2997 57.7884 58.3322C53.5537 59.3648 49.095 58.9455 45.127 57.1418C41.159 55.338 37.9115 52.2542 35.9052 48.3846C33.8989 44.5151 33.25 40.0839 34.0624 35.8016C34.8749 31.5192 37.1017 27.6337 40.3858 24.7678C43.6699 21.902 47.8212 20.2218 52.1741 19.9967C56.5271 19.7716 60.8295 21.0145 64.3918 23.5263L53.1791 39.4284H72.6368Z" fill="#0BBE9F" stroke="white" stroke-width="2.91501" mask="url(#path-6-inside-1)"/>
<mask id="path-7-inside-2" fill="white">
<path d="M72.6368 39.4284C72.6368 42.8113 71.7548 46.1359 70.0778 49.0739C68.4008 52.012 65.9867 54.462 63.0738 56.1823C60.1609 57.9027 56.8498 58.8338 53.4672 58.8839C50.0846 58.934 46.7474 58.1013 43.7848 56.468C40.8223 54.8347 38.3368 52.4572 36.5735 49.5701C34.8102 46.683 33.8301 43.386 33.73 40.0045C33.6298 36.6231 34.413 33.2739 36.0022 30.2875C37.5915 27.301 39.9319 24.7806 42.7926 22.9747L53.1791 39.4284H72.6368Z"/>
</mask>
<path d="M72.6368 39.4284C72.6368 42.8113 71.7548 46.1359 70.0778 49.0739C68.4008 52.012 65.9867 54.462 63.0738 56.1823C60.1609 57.9027 56.8498 58.8338 53.4672 58.8839C50.0846 58.934 46.7474 58.1013 43.7848 56.468C40.8223 54.8347 38.3368 52.4572 36.5735 49.5701C34.8102 46.683 33.8301 43.386 33.73 40.0045C33.6298 36.6231 34.413 33.2739 36.0022 30.2875C37.5915 27.301 39.9319 24.7806 42.7926 22.9747L53.1791 39.4284H72.6368Z" fill="#11E6C1" stroke="white" stroke-width="2.91501" mask="url(#path-7-inside-2)"/>
<path d="M71.8298 52.5444L87.8791 68.5937C89.4073 70.1219 89.4073 72.5997 87.8791 74.1279C86.3509 75.6562 83.8731 75.6562 82.3449 74.1279L66.2956 58.0787L71.8298 52.5444Z" fill="#1A237E"/>
</svg>
