<svg width="50" height="15" viewBox="0 0 50 15" fill="none" xmlns="http://www.w3.org/2000/svg">
<path d="M42.628 6.36953C42.9001 5.96451 43.5223 5.78521 43.9162 6.19939C44.5608 6.87745 45.2959 7.71716 46.0496 8.28502C46.838 8.87997 47.5991 9.35137 48.4773 9.81501C49.3743 10.2889 49.2217 11.0999 48.3712 11.4891C48.0624 11.6299 44.4504 11.9625 44.9247 11.9303C46.0877 11.8519 42.4793 12.1675 41.3192 12.0313C40.4903 11.9339 40.3932 10.547 41.2777 10.5129C42.0761 10.4824 43.9083 10.8475 44.2978 9.94614C44.5789 9.29427 44.1153 8.74398 43.657 8.34455C43.2456 7.98595 42.7163 7.58125 42.5348 7.04758C42.4497 6.79769 42.5007 6.55887 42.628 6.36953Z" fill="#20237C"/>
<path d="M1.31501 7.36612C8.43389 4.56942 24.0439 3.80995 37.4929 8.00826" stroke="#20237C" stroke-width="2.5" stroke-linecap="round" stroke-dasharray="1 4"/>
</svg>
