<svg width="158" height="57" viewBox="0 0 158 57" fill="none" xmlns="http://www.w3.org/2000/svg">
<path d="M79.2273 25.215H46.4385V55.4069H79.2273V25.215Z" fill="#1A237E"/>
<path d="M77.9775 25.215H45.1887V55.4069H77.9775V25.215Z" fill="#FAFBFF"/>
<path d="M76.4502 29.3961H48.9165V53.2587H76.4502V29.3961Z" fill="#D9C5FF"/>
<path d="M46.1631 25.725V55.0942H47.5366V27.3995H78.2857V25.725H46.1631Z" fill="#E0E6F2"/>
<path d="M32.2004 6.07545C31.5979 4.94954 32.4137 3.58789 33.6906 3.58789H73.9859C74.7543 3.58789 75.426 4.10624 75.6209 4.84957L80.4032 23.0962C80.6839 24.1675 79.8757 25.2149 78.7682 25.2149H43.4536C42.8302 25.2149 42.2574 24.8717 41.9633 24.3221L32.2004 6.07545Z" fill="#1A237E"/>
<path d="M31.3911 3.58789L66.3627 25.2149H45.1886L31.3911 3.58789Z" fill="#1A237E"/>
<path d="M81.202 24.1432H46.2607C45.6687 24.1432 45.1887 24.6231 45.1887 25.2152C45.1887 25.8072 45.6687 26.2871 46.2607 26.2871H81.202C81.7941 26.2871 82.274 25.8072 82.274 25.2152C82.274 24.6231 81.7941 24.1432 81.202 24.1432Z" fill="#1A237E"/>
<path d="M45.8623 26.2861H46.5913V24.1422H45.8623V26.2861Z" fill="#1A237E"/>
<path d="M26.6819 1.54321L8.53394 19.6911V54.7598H26.6819H44.8298V19.6911L26.6819 1.54321Z" fill="#1A237E"/>
<path d="M27.9429 1.54321L9.79492 19.6911V54.7598H27.9429H46.0908V19.6911L27.9429 1.54321Z" fill="#FAFBFF"/>
<path d="M28.2664 7.36902L12.2051 22.3923V51.4229H28.2664H44.3277V22.3923L28.2664 7.36902Z" fill="#D9C5FF"/>
<path d="M45.7167 53.3602H9.79517V55.029H45.7167V53.3602Z" fill="#8793AF"/>
<path d="M45.7167 53.3602H9.79517V53.5366H45.7167V53.3602Z" fill="#75819B"/>
<path d="M12.0093 53.537H9.79517V55.0294H12.0093V53.537Z" fill="#7886A0"/>
<path d="M27.8301 1.54321L9.68213 19.6911V22.4304L28.4426 3.66989L45.978 21.2074V19.6911L27.8301 1.54321Z" fill="#E0E6F2"/>
<path d="M48.5687 22.2816C48.1506 22.6997 47.4726 22.6997 47.0545 22.2816L29.0255 4.25253C28.3654 3.59247 27.2952 3.59247 26.6352 4.25253L8.60611 22.2816C8.18791 22.6998 7.50994 22.7 7.09144 22.2821V22.2821C6.67252 21.8638 6.67228 21.185 7.0909 20.7664L26.6351 1.22218C27.2952 0.562096 28.3654 0.562124 29.0255 1.22224L48.5687 20.7675C48.9868 21.1856 48.9868 21.8635 48.5687 22.2816V22.2816Z" fill="#1A237E"/>
<path d="M75.2461 32.8956H68.2V42.0092H75.2461V32.8956Z" fill="#1A237E"/>
<path d="M74.8349 32.4862H67.7888V41.5998H74.8349V32.4862Z" fill="#D9C5FF"/>
<path d="M73.297 33.0925H69.3267C68.8202 33.0925 68.4097 33.5031 68.4097 34.0096V40.0758C68.4097 40.5823 68.8202 40.9928 69.3267 40.9928H73.297C73.8035 40.9928 74.214 40.5823 74.214 40.0758V34.0096C74.214 33.5031 73.8035 33.0925 73.297 33.0925Z" fill="#FAFBFF"/>
<path d="M68.0701 36.739V37.3464H74.5523V36.739H68.0701Z" fill="#D9C5FF"/>
<path d="M65.1999 34.903H53.8533V53.2587H65.1999V34.903Z" fill="#D9C5FF"/>
<path d="M62.4088 35.8208H54.6976C54.0391 35.8208 53.5054 36.3546 53.5054 37.013V52.9844C53.5054 53.6428 54.0391 54.1766 54.6976 54.1766H62.4088C63.0673 54.1766 63.6011 53.6428 63.6011 52.9844V37.013C63.6011 36.3546 63.0673 35.8208 62.4088 35.8208Z" fill="#FAFBFF"/>
<path d="M62.6975 45.7418H62.3347V50.4362H62.6975V45.7418Z" fill="white"/>
<path d="M63.8937 39.8629H59.0047V35.4333H58.2127V39.8629H53.3237V40.6527H58.2127V53.2583H59.0047V40.6527H63.8937V39.8629Z" fill="#D9C5FF"/>
<path d="M37.9317 47.1637V31.6206H18.4481V47.1637H16.2869V48.4994H40.0903V47.1637H37.9317Z" fill="#1A237E"/>
<path d="M37.061 31.1877H17.5854V46.7682H37.061V31.1877Z" fill="#D9C5FF"/>
<path d="M35.4378 32.0535H20.0741C19.4167 32.0535 18.8838 32.5864 18.8838 33.2438V45.578C18.8838 46.2354 19.4167 46.7683 20.0741 46.7683H35.4378C36.0952 46.7683 36.6281 46.2354 36.6281 45.578V33.2438C36.6281 32.5864 36.0952 32.0535 35.4378 32.0535Z" fill="#FAFBFF"/>
<path d="M39.6576 46.7683H15.8542V48.0667H39.6576V46.7683Z" fill="#D9C5FF"/>
<path d="M24.943 32.0535H24.0774V46.7683H24.943V32.0535Z" fill="#D9C5FF"/>
<path d="M31.0021 32.0535H30.1365V46.7683H31.0021V32.0535Z" fill="#D9C5FF"/>
<path d="M18.4509 41.575V42.4406H37.0609V41.575H18.4509Z" fill="#D9C5FF"/>
<path d="M18.4509 36.3814V37.2469H37.0609V36.3814H18.4509Z" fill="#D9C5FF"/>
<path d="M35.6715 19.6245H20.1013V24.8071H35.6715V19.6245Z" fill="#1A237E"/>
<path d="M35.1175 19.0697H19.5474V24.2523H35.1175V19.0697Z" fill="#D9C5FF"/>
<path d="M33.0989 19.8441H21.5637C20.8787 19.8441 20.3235 20.3994 20.3235 21.0843V22.2363C20.3235 22.9212 20.8787 23.4765 21.5637 23.4765H33.0989C33.7839 23.4765 34.3391 22.9212 34.3391 22.2363V21.0843C34.3391 20.3994 33.7839 19.8441 33.0989 19.8441Z" fill="#FAFBFF"/>
<path d="M28.241 19.4122H27.4626V23.9113H28.241V19.4122Z" fill="#D9C5FF"/>
<rect x="37.71" y="31.1876" width="1.73116" height="15.5804" fill="#D9C5FF"/>
<path d="M10.6607 53.2599V21.2335H9.79517V22.3082V53.2599H10.6607Z" fill="#E0E6F2"/>
<path d="M47.8805 54.5586H3.30322V56.7225H47.8805V54.5586Z" fill="#11E6C1"/>
<path d="M83.8019 54.642H44.8652V56.9013H83.8019V54.642Z" fill="#11E6C1"/>
<path d="M9.14063 46.6393C9.50599 44.3796 7.96533 42.2525 5.69948 41.8881C3.43362 41.5238 1.3006 43.0602 0.935233 45.3198C0.569868 47.5795 2.11052 49.7066 4.37637 50.071C6.64223 50.4354 8.77526 48.8989 9.14063 46.6393Z" fill="#11E6C1"/>
<path d="M82.5637 46.6394C82.9291 44.3798 81.3884 42.2526 79.1226 41.8882C76.8567 41.5239 74.7237 43.0603 74.3583 45.3199C73.993 47.5796 75.5336 49.7067 77.7995 50.0711C80.0653 50.4355 82.1984 48.899 82.5637 46.6394Z" fill="#11E6C1"/>
<path d="M1.68016 46.7852C1.68016 44.4972 3.54136 42.6411 5.83564 42.6411C6.77832 42.6411 7.64648 42.9545 8.34343 43.4808C7.58404 42.4825 6.38352 41.8376 5.03194 41.8376C2.73767 41.8376 0.876465 43.6937 0.876465 45.9817C0.876465 47.3296 1.52305 48.5288 2.52415 49.2841C1.99439 48.5911 1.68016 47.7233 1.68016 46.7852Z" fill="#0FCFAE"/>
<path d="M75.1033 46.7853C75.1033 44.4974 76.9645 42.6413 79.2587 42.6413C80.2014 42.6413 81.0696 42.9546 81.7665 43.4809C81.0071 42.4826 79.8066 41.8378 78.455 41.8378C76.1608 41.8378 74.2996 43.6939 74.2996 45.9818C74.2996 47.3297 74.9461 48.5289 75.9472 49.2842C75.4175 48.5912 75.1033 47.7234 75.1033 46.7853Z" fill="#0FCFAE"/>
<path d="M4.86279 54.5436V46.2834" stroke="#20237C" stroke-width="1.30226" stroke-miterlimit="10"/>
<path d="M78.2859 54.5436V46.2834" stroke="#20237C" stroke-width="1.30226" stroke-miterlimit="10"/>
<path d="M4.78809 47.1024L6.45159 45.9164" stroke="#20237C" stroke-width="1.30226" stroke-miterlimit="10"/>
<path d="M78.2112 47.1024L79.8747 45.9164" stroke="#20237C" stroke-width="1.30226" stroke-miterlimit="10"/>
<path d="M4.78813 48.4321L3.48608 46.9592" stroke="#20237C" stroke-width="1.30226" stroke-miterlimit="10"/>
<path d="M78.2112 48.4321L76.9092 46.9592" stroke="#20237C" stroke-width="1.30226" stroke-miterlimit="10"/>
<path d="M11.8881 48.1987C12.1702 46.454 10.9806 44.8115 9.23102 44.5301C7.48145 44.2488 5.83444 45.4351 5.55232 47.1799C5.2702 48.9247 6.45981 50.5672 8.20939 50.8485C9.95897 51.1299 11.606 49.9435 11.8881 48.1987Z" fill="#11E6C1"/>
<path d="M85.3112 48.1987C85.5933 46.454 84.4037 44.8115 82.6541 44.5301C80.9045 44.2488 79.2575 45.4351 78.9754 47.1799C78.6933 48.9247 79.8829 50.5672 81.6325 50.8485C83.3821 51.1299 85.0291 49.9435 85.3112 48.1987Z" fill="#11E6C1"/>
<path d="M6.12765 48.3116C6.12765 46.5449 7.56478 45.1118 9.3363 45.1118C10.0642 45.1118 10.7345 45.3537 11.2727 45.7601C10.6863 44.9892 9.75935 44.4913 8.71572 44.4913C6.9442 44.4913 5.50708 45.9245 5.50708 47.6912C5.50708 48.7319 6.00634 49.6579 6.77934 50.2411C6.37029 49.706 6.12765 49.0359 6.12765 48.3116Z" fill="#0FCFAE"/>
<path d="M79.5508 48.3116C79.5508 46.5449 80.9879 45.1118 82.7594 45.1118C83.4873 45.1118 84.1576 45.3537 84.6958 45.7601C84.1094 44.9892 83.1824 44.4913 82.1388 44.4913C80.3673 44.4913 78.9302 45.9245 78.9302 47.6912C78.9302 48.7319 79.4294 49.6579 80.2024 50.2411C79.7934 49.706 79.5508 49.0359 79.5508 48.3116Z" fill="#0FCFAE"/>
<path d="M8.53394 54.5436V47.2013" stroke="#20237C" stroke-width="1.30226" stroke-miterlimit="10"/>
<path d="M81.957 54.5436V47.2013" stroke="#20237C" stroke-width="1.30226" stroke-miterlimit="10"/>
<path d="M8.45923 48.0203L10.1227 46.8342" stroke="#20237C" stroke-width="1.30226" stroke-miterlimit="10"/>
<path d="M81.8823 48.0203L83.5458 46.8342" stroke="#20237C" stroke-width="1.30226" stroke-miterlimit="10"/>
<path d="M8.45927 49.35L7.15723 47.8771" stroke="#20237C" stroke-width="1.30226" stroke-miterlimit="10"/>
<path d="M81.8824 49.35L80.5803 47.8771" stroke="#20237C" stroke-width="1.30226" stroke-miterlimit="10"/>
<path d="M156.424 38.7199V41.8556C156.424 47.6464 151.73 52.3407 145.939 52.3407H132.826C127.035 52.3407 122.341 47.6464 122.341 41.8556V38.7199C122.341 29.308 129.97 21.6782 139.382 21.6782C148.794 21.6782 156.424 29.308 156.424 38.7199Z" fill="#11E6C1" stroke="#1A237E" stroke-width="1.83558"/>
<path d="M142.554 37.0829C141.82 36.7119 141.04 36.4293 140.267 36.1361C139.819 35.9666 139.39 35.7687 139.011 35.4932C138.266 34.9492 138.409 34.066 139.282 33.7163C139.529 33.6174 139.788 33.5856 140.051 33.5715C141.063 33.522 142.025 33.6916 142.941 34.0943C143.396 34.2956 143.547 34.2321 143.702 33.7975C143.864 33.3383 143.999 32.872 144.15 32.4092C144.25 32.0984 144.127 31.8935 143.806 31.7628C143.219 31.5261 142.616 31.3565 141.982 31.2647C141.156 31.1481 141.156 31.1446 141.152 30.3851C141.147 29.3675 141.148 29.3147 139.973 29.3147C139.803 29.3147 139.633 29.3111 139.463 29.3147C139.26 29.3131 138.822 29.4171 138.807 29.9223C138.799 30.1484 138.807 30.3745 138.803 30.6041C138.799 31.2753 138.795 31.2647 138.092 31.4978C136.392 32.063 135.341 33.1228 135.229 34.8185C135.129 36.3198 135.986 37.3337 137.335 38.072C138.165 38.5277 139.085 38.7962 139.966 39.153C140.31 39.2907 140.638 39.4497 140.924 39.6687C141.77 40.3081 141.615 41.3714 140.611 41.7741C140.074 41.9896 139.506 42.0426 138.923 41.9755C138.022 41.8731 137.161 41.6576 136.35 41.2725C135.874 41.0464 135.735 41.1065 135.573 41.5763C135.434 41.9826 135.31 42.3924 135.187 42.8021C135.021 43.3532 135.082 43.4839 135.658 43.7418C136.392 44.0668 137.176 44.2328 137.976 44.3494C138.602 44.4413 138.621 44.466 138.629 45.0595C138.633 45.3279 138.633 45.6 138.637 45.8684C138.641 46.2076 138.818 46.4054 139.201 46.4124C139.633 46.4195 140.07 46.4195 140.503 46.4089C140.858 46.4019 141.04 46.2252 141.04 45.8967C141.04 45.5293 141.059 45.1584 141.044 44.791C141.024 44.4165 141.202 44.2258 141.596 44.1269C142.504 43.9008 143.277 43.4557 143.872 42.7915C145.525 40.9546 144.895 38.2663 142.554 37.0829Z" fill="#1A237E"/>
<circle cx="139.382" cy="17.6246" r="1.9955" fill="#1A237E"/>
<path fill-rule="evenodd" clip-rule="evenodd" d="M133.966 18.4801C134.072 20.7684 136.456 22.5978 139.383 22.5978C142.309 22.5978 144.693 20.7684 144.799 18.4801H133.966Z" fill="#1A237E"/>
<path d="M154.945 38.5071V40.6456C154.945 46.2796 150.378 50.8468 144.744 50.8468H133.688C128.054 50.8468 123.487 46.2796 123.487 40.6456V38.5071C123.487 29.8203 130.529 22.7782 139.216 22.7782C147.903 22.7782 154.945 29.8203 154.945 38.5071Z" fill="#11E6C1" stroke="white" stroke-width="4.13005"/>
<path d="M156.247 38.5071V40.6456C156.247 46.9989 151.097 52.1492 144.744 52.1492H133.688C127.335 52.1492 122.184 46.9989 122.184 40.6456V38.5071C122.184 29.101 129.81 21.4757 139.216 21.4757C148.622 21.4757 156.247 29.101 156.247 38.5071Z" stroke="#1A237E" stroke-width="1.5252"/>
<path d="M142.358 36.8855C141.631 36.518 140.858 36.238 140.092 35.9475C139.648 35.7795 139.223 35.5835 138.848 35.3105C138.11 34.7715 138.251 33.8965 139.116 33.55C139.361 33.452 139.618 33.4205 139.878 33.4065C140.881 33.3575 141.834 33.5255 142.741 33.9245C143.193 34.124 143.342 34.061 143.495 33.6305C143.656 33.1755 143.79 32.7135 143.939 32.255C144.039 31.947 143.916 31.744 143.599 31.6145C143.017 31.38 142.42 31.212 141.792 31.121C140.973 31.0055 140.973 31.002 140.969 30.2494C140.964 29.2413 140.965 29.1889 139.801 29.1889C139.633 29.1889 139.465 29.1854 139.296 29.1889C139.095 29.1874 138.661 29.2904 138.645 29.7909C138.638 30.0149 138.645 30.2389 138.642 30.4665C138.638 31.1315 138.634 31.121 137.937 31.352C136.253 31.912 135.212 32.962 135.101 34.642C135.001 36.1295 135.851 37.134 137.187 37.8656C138.01 38.3171 138.921 38.5831 139.794 38.9366C140.134 39.0731 140.46 39.2306 140.743 39.4476C141.581 40.0811 141.428 41.1346 140.433 41.5336C139.901 41.7471 139.338 41.7996 138.76 41.7331C137.868 41.6316 137.015 41.4181 136.211 41.0366C135.74 40.8126 135.602 40.8721 135.442 41.3376C135.304 41.7401 135.181 42.1461 135.059 42.5521C134.894 43.0981 134.955 43.2276 135.526 43.4831C136.253 43.8051 137.03 43.9696 137.822 44.0851C138.443 44.1761 138.462 44.2006 138.469 44.7886C138.473 45.0547 138.473 45.3242 138.477 45.5902C138.481 45.9262 138.657 46.1222 139.036 46.1292C139.465 46.1362 139.897 46.1362 140.326 46.1257C140.678 46.1187 140.858 45.9437 140.858 45.6182C140.858 45.2542 140.877 44.8866 140.862 44.5226C140.843 44.1516 141.019 43.9626 141.409 43.8646C142.309 43.6406 143.074 43.1996 143.664 42.5416C145.302 40.7216 144.678 38.0581 142.358 36.8855Z" fill="#1A237E"/>
<circle cx="139.216" cy="17.6065" r="1.97711" fill="#1A237E"/>
<path fill-rule="evenodd" clip-rule="evenodd" d="M133.849 18.4536C133.954 20.7209 136.316 22.5336 139.216 22.5336C142.115 22.5336 144.478 20.7209 144.582 18.4536H133.849Z" fill="#1A237E"/>
<path d="M105.911 34.9962C105.294 34.4704 105.296 33.6194 105.916 33.0966C106.536 32.5739 107.54 32.5764 108.157 33.1022L111.843 36.2418C112.46 36.7677 112.458 37.6187 111.838 38.1414L108.153 41.2495C107.533 41.7722 106.529 41.7698 105.911 41.2439C105.294 40.7181 105.296 39.8671 105.916 39.3444L106.945 38.4764L106.843 35.7902L105.911 34.9962Z" fill="#1A237E"/>
<rect x="93.8948" y="35.7678" width="15.2142" height="2.77797" rx="1.08524" transform="rotate(0.141964 93.8948 35.7678)" fill="#1A237E"/>
</svg>
