<svg width="205" height="166" viewBox="0 0 205 166" fill="none" xmlns="http://www.w3.org/2000/svg">
<path opacity="0.05" d="M184.19 66.1459C183.57 71.4587 180.261 76.3313 180.856 81.8652C181.564 88.4934 186.609 94.4765 187.722 101.078C189.369 110.83 186.933 120.792 180.513 128.483C177.422 132.191 173.409 135.375 168.522 137.101C160.987 139.763 152.137 138.719 144.13 136.356C132.213 132.837 120.434 125.587 108.005 124.028C101.147 123.168 97.727 128.756 93.3604 131.966C88.4181 135.595 82.2791 137.935 75.8421 138.96C63.9885 140.851 50.8471 138.311 40.6288 131.856C29.7174 124.963 21.7026 112.348 25.0115 100.874C26.5417 95.5645 30.3327 90.8085 30.3342 85.2528C30.3308 78.2804 25.7026 70.8805 22.5759 64.4954C19.1242 57.4416 17.8271 49.6692 18.9025 42.2805C18.917 42.196 18.9263 42.1142 18.9408 42.0297C20.8797 29.3032 32.9476 20.0233 48.1375 19.3368L80.4604 17.8765C113.259 16.3978 144.051 23.654 169.64 42.4943C175.176 46.5698 183.372 56.841 184.185 62.8287C184.332 63.9609 184.317 65.0603 184.19 66.1459Z" fill="#928C9E"/>
<circle cx="144.574" cy="84.315" r="25.7953" fill="#A8B5FF" stroke="#1A237E" stroke-width="2.57512"/>
<mask id="mask0" mask-type="alpha" maskUnits="userSpaceOnUse" x="117" y="57" width="55" height="55">
<circle cx="144.574" cy="84.315" r="25.3661" fill="#FF4081" stroke="#1A237E" stroke-width="3.43349"/>
</mask>
<g mask="url(#mask0)">
<path d="M152.576 102.78C150.114 102.288 149.088 101.344 148.883 100.934H142.112C141.086 101.549 138.542 102.78 136.573 102.78C134.111 102.78 129.802 103.396 129.802 107.705L133.495 111.398H152.576C155.038 110.782 159.962 108.936 159.962 106.474C159.962 103.396 155.654 103.396 152.576 102.78Z" fill="#162FBD"/>
<circle cx="144.574" cy="84.315" r="25.7953" stroke="#1A237E" stroke-width="2.57512"/>
</g>
<circle cx="144.456" cy="84.1959" r="26.7726" stroke="#1A237E" stroke-width="0.858372"/>
<path d="M149.386 95.855L149.252 98.3978L149.086 101.58C149.086 101.58 148.46 102.781 145.643 102.781C142.821 102.781 142.247 101.963 142.247 101.963L142.133 100.553L141.755 95.8602H149.386V95.855Z" fill="white"/>
<path d="M149.499 95.395L149.368 98.0155C148.231 98.934 145.169 100.827 142.112 100.319L141.497 95.395H149.499Z" fill="#162FBD"/>
<path d="M136.939 84.2989C136.939 84.2989 134.78 82.1598 133.056 83.5544C131.021 85.2059 133.149 91.1409 136.763 90.5118L136.939 84.2989Z" fill="white"/>
<path d="M153.441 84.2989C153.441 84.2989 155.6 82.1598 157.324 83.5544C159.359 85.2059 157.231 91.1409 153.617 90.5118L153.441 84.2989Z" fill="white"/>
<path d="M145.296 98.3505C137.835 98.3505 135.531 89.3799 134.848 82.8105C134.216 76.7549 138.861 71.4124 144.872 71.3442C144.949 71.3442 145.032 71.3442 145.115 71.3442C145.213 71.3442 145.317 71.3442 145.415 71.3442C151.354 71.4229 155.983 76.6186 155.47 82.6113C154.896 89.2698 152.752 98.3505 145.296 98.3505Z" fill="white"/>
<path d="M154.864 66.6727C158.649 69.2942 155.227 74.406 155.227 74.406C155.227 74.406 158.996 78.139 155.118 86.9366L154.43 86.7951C154.87 83.9796 154.606 80.5507 154.43 80.0107C153.907 78.4011 151.121 77.5465 151.261 75.8059C151.261 75.8059 142.723 78.5112 138.099 75.8531C138.099 75.8531 137.737 78.0813 136.468 79.4864C135.407 80.6608 136.013 84.7556 136.147 86.5277L135.438 86.5958C135.019 84.7923 133.994 81.5417 133.88 80.5874C133.812 79.9845 133.559 77.5937 133.45 75.8793C133.357 74.3798 133.621 72.8699 134.289 71.5329C134.661 70.7937 135.174 70.0492 135.883 69.5144C138.363 67.6427 151.432 64.2924 154.864 66.6727Z" fill="#162FBD"/>
<path d="M34.4657 63.3809H34.8914V52.3438C34.8914 51.5049 35.066 50.6743 35.4052 49.8992C35.7444 49.1242 36.2416 48.42 36.8684 47.8268C37.4952 47.2336 38.2393 46.7631 39.0583 46.4421C39.8772 46.121 40.755 45.9558 41.6414 45.9558H66.3501C67.2366 45.9558 68.1143 46.121 68.9332 46.4421C69.7522 46.7631 70.4963 47.2336 71.1231 47.8268C71.7499 48.42 72.2471 49.1242 72.5863 49.8992C72.9255 50.6742 73.1001 51.5049 73.1001 52.3438V112.894C73.1001 113.733 72.9255 114.564 72.5863 115.339C72.2471 116.114 71.7499 116.818 71.1231 117.411C70.4963 118.005 69.7522 118.475 68.9333 118.796C68.1143 119.117 67.2366 119.282 66.3502 119.282H41.6414C39.8512 119.282 38.1343 118.609 36.8685 117.411C35.6026 116.213 34.8914 114.589 34.8914 112.894V71.2374H34.4657V63.3809Z" fill="#1A237E"/>
<path d="M41.7265 47.5332H44.8589C44.7149 47.8782 44.6599 48.2525 44.6988 48.6231C44.7377 48.9937 44.8694 49.3493 45.0821 49.6585C45.2949 49.9678 45.5822 50.2211 45.9188 50.3963C46.2554 50.5715 46.631 50.6632 47.0124 50.6632H60.7599C61.1413 50.6632 61.5169 50.5715 61.8535 50.3963C62.1901 50.2211 62.4774 49.9678 62.6902 49.6585C62.9029 49.3493 63.0346 48.9937 63.0735 48.6231C63.1124 48.2525 63.0574 47.8782 62.9134 47.5332H65.839C67.1374 47.5332 68.3826 48.037 69.3007 48.9338C70.2188 49.8306 70.7346 51.047 70.7346 52.3153V112.924C70.7346 113.552 70.608 114.174 70.362 114.754C70.1159 115.334 69.7553 115.861 69.3007 116.305C68.8461 116.749 68.3064 117.102 67.7125 117.342C67.1185 117.582 66.4819 117.706 65.839 117.706H41.7265C41.0836 117.706 40.447 117.582 39.8531 117.342C39.2591 117.102 38.7194 116.749 38.2648 116.305C37.8102 115.861 37.4496 115.334 37.2036 114.754C36.9576 114.174 36.8309 113.552 36.8309 112.924V52.3153C36.8309 51.6873 36.9576 51.0654 37.2036 50.4853C37.4496 49.9051 37.8102 49.3779 38.2648 48.9338C38.7194 48.4898 39.2591 48.1375 39.8531 47.8972C40.447 47.6569 41.0836 47.5332 41.7265 47.5332Z" fill="white"/>
<rect x="39.1964" y="54.0657" width="29.0603" height="57.4448" rx="4.29186" fill="#D9C5FF"/>
<path d="M64.6564 68.9212L60.9282 66.1034L62.5534 63.9823L59.8409 61.8449L58.1458 64.0019L54.3119 61.1058C54.1658 60.9958 53.9882 60.9363 53.8056 60.9363C53.623 60.9363 53.4454 60.9958 53.2994 61.1058L43.1368 68.7009C42.7517 69.0273 42.3909 69.4009 42.3876 70.2559H42.3762L42.3502 81.9578V82.4783C42.3498 82.6459 42.3822 82.8119 42.4457 82.9668C42.5092 83.1218 42.6025 83.2627 42.7202 83.3815C42.8379 83.5003 42.9777 83.5946 43.1318 83.6591C43.2858 83.7236 43.451 83.7571 43.6179 83.7575H44.1185L53.7544 83.7787L63.8926 83.8016C64.0595 83.802 64.2248 83.7694 64.3792 83.7057C64.5335 83.642 64.6739 83.5483 64.7922 83.4302C64.9105 83.312 65.0045 83.1716 65.0688 83.0169C65.133 82.8623 65.1663 82.6964 65.1667 82.5289L65.1944 70.3277H65.2155C65.2155 69.4711 65.0416 69.2475 64.6564 68.9212Z" fill="url(#paint0_linear)"/>
<path d="M64.4267 70.4602C64.4267 69.6644 64.2608 69.4613 63.9059 69.1533L54.2751 61.8828C54.139 61.7803 53.9734 61.7249 53.8032 61.7249C53.633 61.7249 53.4675 61.7803 53.3314 61.8828L43.8697 68.9551C43.6421 69.1183 43.459 69.3364 43.3373 69.5892C43.2156 69.842 43.1591 70.1215 43.1731 70.4019H43.1632L43.1383 81.2967V81.7812C43.1379 82.0962 43.262 82.3985 43.4834 82.6217C43.7048 82.8449 44.0054 82.9707 44.3191 82.9716H44.7852L53.7576 82.9916L63.1961 83.0132C63.5098 83.0137 63.811 82.8891 64.0333 82.6668C64.2556 82.4446 64.381 82.1428 64.3819 81.8278L64.4068 70.4685L64.4267 70.4602Z" fill="url(#paint1_linear)"/>
<path d="M44.0792 70.7334L63.4615 70.7774L63.4362 81.943C63.436 82.0315 63.4192 82.1192 63.3866 82.2009C63.3541 82.2826 63.3065 82.3568 63.2466 82.4193C63.1866 82.4817 63.1155 82.5312 63.0373 82.5649C62.9592 82.5986 62.8754 82.6159 62.7908 82.6157L44.7687 82.5748C44.5803 82.5743 44.3999 82.4956 44.267 82.3558C44.1342 82.2161 44.0598 82.0268 44.0602 81.8296L44.0854 70.7334L44.0792 70.7334Z" fill="#08B092"/>
<path d="M43.95 70.3977L43.9271 81.2943C43.9267 81.5142 43.9675 81.732 44.0472 81.9353C44.1268 82.1385 44.2438 82.3234 44.3915 82.4791C44.5391 82.6349 44.7145 82.7586 44.9076 82.8432C45.1008 82.9277 45.3079 82.9715 45.5171 82.9719L62.8501 83.013" fill="#F5F5F5"/>
<path d="M63.6386 70.3977L63.6167 81.3368C63.6163 81.5574 63.5765 81.7757 63.4995 81.9793C63.4225 82.1829 63.3098 82.3679 63.168 82.5235C63.0261 82.6792 62.8579 82.8025 62.6727 82.8865C62.4876 82.9705 62.2893 83.0135 62.0891 83.013L45.504 82.9718" fill="white"/>
<path d="M53.343 62.6568L44.5755 69.0319C44.3649 69.1779 44.1952 69.3741 44.0822 69.6021C43.9691 69.8302 43.9164 70.0827 43.9289 70.3363L63.6386 70.398C63.6386 69.6802 63.482 69.4919 63.1564 69.2202L54.2245 62.6599C54.0977 62.5654 53.9432 62.514 53.7843 62.5134C53.6253 62.5129 53.4705 62.5632 53.343 62.6568Z" fill="#11E6C1"/>
<path d="M62.0617 65.1909L59.6375 63.3018L53.7784 70.6779L50.63 68.2508L48.6579 70.7428L53.2404 74.222L54.3769 75.1286L62.0617 65.1909Z" fill="url(#paint2_linear)"/>
<path d="M62.0617 64.924L59.7857 63.3018L53.7542 70.6142L50.4045 68.2268L48.6579 70.3428L53.1456 73.5382L54.2968 74.3402L62.0617 64.924Z" fill="white"/>
<path d="M64.1343 93.2633H42.6432C42.3564 93.2633 42.0814 93.1387 41.8786 92.9169C41.6758 92.6951 41.5619 92.3943 41.5619 92.0806C41.5619 91.767 41.6758 91.4661 41.8786 91.2443C42.0814 91.0226 42.3564 90.8979 42.6432 90.8979H64.1343C64.4211 90.8979 64.6961 91.0226 64.8989 91.2443C65.1017 91.4661 65.2156 91.767 65.2156 92.0806C65.2156 92.3943 65.1017 92.6951 64.8989 92.9169C64.6961 93.1387 64.4211 93.2633 64.1343 93.2633Z" fill="white"/>
<path d="M64.1343 99.5709H42.6432C42.3564 99.5709 42.0814 99.4463 41.8786 99.2245C41.6758 99.0027 41.5619 98.7019 41.5619 98.3883C41.5619 98.0746 41.6758 97.7738 41.8786 97.552C42.0814 97.3302 42.3564 97.2056 42.6432 97.2056H64.1343C64.4211 97.2056 64.6961 97.3302 64.8989 97.552C65.1017 97.7738 65.2156 98.0746 65.2156 98.3883C65.2156 98.7019 65.1017 99.0027 64.8989 99.2245C64.6961 99.4463 64.4211 99.5709 64.1343 99.5709Z" fill="white"/>
<path d="M64.1343 105.879H42.6432C42.3564 105.879 42.0814 105.754 41.8786 105.532C41.6758 105.31 41.5619 105.01 41.5619 104.696C41.5619 104.382 41.6758 104.081 41.8786 103.86C42.0814 103.638 42.3564 103.513 42.6432 103.513H64.1343C64.4211 103.513 64.6961 103.638 64.8989 103.86C65.1017 104.081 65.2156 104.382 65.2156 104.696C65.2156 105.01 65.1017 105.31 64.8989 105.532C64.6961 105.754 64.4211 105.879 64.1343 105.879Z" fill="white"/>
<path d="M58.4034 115.34H48.3742C48.2403 115.34 48.112 115.257 48.0174 115.109C47.9227 114.961 47.8696 114.761 47.8696 114.551C47.8696 114.342 47.9227 114.142 48.0174 113.994C48.112 113.846 48.2403 113.763 48.3742 113.763H58.4034C58.5372 113.763 58.6655 113.846 58.7602 113.994C58.8548 114.142 58.908 114.342 58.908 114.551C58.908 114.761 58.8548 114.961 58.7602 115.109C58.6655 115.257 58.5372 115.34 58.4034 115.34Z" fill="#1A237E"/>
<path d="M112.523 87.8247C112.878 87.8247 113.167 87.5365 113.167 87.1809C113.167 86.8254 112.878 86.5371 112.523 86.5371L112.523 87.8247ZM77.0422 86.5371C76.6867 86.5371 76.3985 86.8254 76.3985 87.1809C76.3985 87.5365 76.6867 87.8247 77.0422 87.8247L77.0422 86.5371ZM77.4646 87.8247C77.8202 87.8247 78.1084 87.5365 78.1084 87.1809C78.1084 86.8254 77.8202 86.5371 77.4646 86.5371L77.4646 87.8247ZM81.6885 86.5371C81.333 86.5371 81.0447 86.8254 81.0447 87.1809C81.0447 87.5365 81.333 87.8247 81.6885 87.8247L81.6885 86.5371ZM82.5333 87.8247C82.8888 87.8247 83.1771 87.5365 83.1771 87.1809C83.1771 86.8254 82.8888 86.5371 82.5333 86.5371L82.5333 87.8247ZM86.7572 86.5371C86.4016 86.5371 86.1134 86.8254 86.1134 87.1809C86.1134 87.5365 86.4016 87.8247 86.7572 87.8247L86.7572 86.5371ZM87.6019 87.8247C87.9575 87.8247 88.2457 87.5365 88.2457 87.1809C88.2457 86.8254 87.9575 86.5371 87.6019 86.5371L87.6019 87.8247ZM91.8258 86.5371C91.4703 86.5371 91.182 86.8254 91.182 87.1809C91.182 87.5365 91.4703 87.8247 91.8258 87.8247L91.8258 86.5371ZM92.6706 87.8247C93.0261 87.8247 93.3144 87.5365 93.3144 87.1809C93.3144 86.8254 93.0261 86.5371 92.6706 86.5371L92.6706 87.8247ZM96.8945 86.5371C96.5389 86.5371 96.2507 86.8254 96.2507 87.1809C96.2507 87.5365 96.5389 87.8247 96.8945 87.8247L96.8945 86.5371ZM97.7392 87.8247C98.0948 87.8247 98.383 87.5365 98.383 87.1809C98.383 86.8254 98.0948 86.5371 97.7392 86.5371L97.7392 87.8247ZM101.963 86.5371C101.608 86.5371 101.319 86.8254 101.319 87.1809C101.319 87.5365 101.608 87.8247 101.963 87.8247L101.963 86.5371ZM102.808 87.8247C103.163 87.8247 103.452 87.5365 103.452 87.1809C103.452 86.8254 103.163 86.5371 102.808 86.5371L102.808 87.8247ZM107.032 86.5371C106.676 86.5371 106.388 86.8254 106.388 87.1809C106.388 87.5365 106.676 87.8247 107.032 87.8247L107.032 86.5371ZM107.877 87.8247C108.232 87.8247 108.52 87.5365 108.52 87.1809C108.52 86.8254 108.232 86.5371 107.877 86.5371L107.877 87.8247ZM112.1 86.5371C111.745 86.5371 111.457 86.8254 111.457 87.1809C111.457 87.5365 111.745 87.8247 112.1 87.8247L112.1 86.5371ZM77.0422 87.8247L77.4646 87.8247L77.4646 86.5371L77.0422 86.5371L77.0422 87.8247ZM81.6885 87.8247L82.5333 87.8247L82.5333 86.5371L81.6885 86.5371L81.6885 87.8247ZM86.7572 87.8247L87.6019 87.8247L87.6019 86.5371L86.7572 86.5371L86.7572 87.8247ZM91.8258 87.8247L92.6706 87.8247L92.6706 86.5371L91.8258 86.5371L91.8258 87.8247ZM96.8945 87.8247L97.7392 87.8247L97.7392 86.5371L96.8945 86.5371L96.8945 87.8247ZM101.963 87.8247L102.808 87.8247L102.808 86.5371L101.963 86.5371L101.963 87.8247ZM107.032 87.8247L107.877 87.8247L107.877 86.5371L107.032 86.5371L107.032 87.8247ZM112.1 87.8247L112.523 87.8247L112.523 86.5371L112.1 86.5371L112.1 87.8247Z" fill="#1A237E"/>
<defs>
<linearGradient id="paint0_linear" x1="53.782" y1="83.7999" x2="53.782" y2="60.9344" gradientUnits="userSpaceOnUse">
<stop stop-opacity="0.12"/>
<stop offset="0.55" stop-opacity="0.09"/>
<stop offset="1" stop-opacity="0.02"/>
</linearGradient>
<linearGradient id="paint1_linear" x1="11637.8" y1="7296.79" x2="11637.8" y2="4574.86" gradientUnits="userSpaceOnUse">
<stop stop-color="#808080" stop-opacity="0.25"/>
<stop offset="0.54" stop-color="#808080" stop-opacity="0.12"/>
<stop offset="1" stop-color="#808080" stop-opacity="0.1"/>
</linearGradient>
<linearGradient id="paint2_linear" x1="7399.34" y1="3521.26" x2="7401.33" y2="2636.25" gradientUnits="userSpaceOnUse">
<stop stop-opacity="0.12"/>
<stop offset="0.55" stop-opacity="0.09"/>
<stop offset="1" stop-opacity="0.02"/>
</linearGradient>
</defs>
</svg>
