<svg width="97" height="109" viewBox="0 0 97 109" fill="none" xmlns="http://www.w3.org/2000/svg">
<path d="M10.858 108.182C6.70054 105.064 3.03795 101.233 1.32999 96.6561C-0.379536 92.0796 0.135662 86.6747 3.58281 82.9404C5.53744 80.8226 8.25707 79.3758 10.4755 77.472C13.9539 74.4859 16.0693 70.4989 17.9928 66.5644C19.9162 62.6298 21.7693 58.5821 24.8746 55.2909C27.9814 51.9997 32.6384 49.5299 37.4657 49.9233C45.0688 50.5432 49.9694 57.606 57.2259 59.7058C60.8807 60.7633 64.8462 60.472 68.6524 59.9861C72.4586 59.5001 76.2914 58.8292 80.1179 59.1647C83.9444 59.5001 87.8677 61.0367 89.8021 63.9759C92.3359 67.8234 90.8122 72.7092 91.6974 77.091C92.4202 80.6708 94.7464 83.8391 95.8705 87.336C98.32 94.9483 94.2125 103.813 86.4267 107.717L10.858 108.182Z" fill="#F9F9FA"/>
<rect x="16.4575" y="42.5942" width="51.0126" height="64.1301" rx="4.37251" fill="white" stroke="#20237C" stroke-width="2.91501"/>
<rect x="19.737" y="45.8731" width="44.4539" height="57.5714" rx="4.00813" fill="#D9C5FF" stroke="white" stroke-width="3.64376"/>
<path d="M49.4444 74.6594C49.2012 74.6594 48.9633 74.7532 48.7913 74.9156C48.6193 75.0791 48.5226 75.304 48.5226 75.534V95.6474C48.5226 95.8774 48.6193 96.1033 48.7913 96.2657C48.9633 96.4282 49.2002 96.522 49.4444 96.522H59.2641C59.5094 96.522 59.7409 96.4312 59.914 96.2657C60.0882 96.1003 60.1827 95.8804 60.1827 95.6474V75.535C60.1827 75.304 60.086 75.0801 59.914 74.9167C59.742 74.7532 59.5052 74.6604 59.2641 74.6604H49.4444V74.6594ZM56.9215 86.8652H51.5035V86.0048H56.9215V86.8652ZM56.9215 84.5421H51.5035V83.6816H56.9215V84.5421Z" fill="#B690FF"/>
<path d="M37.6826 74.6594C37.468 74.6594 37.2564 74.7618 37.1038 74.9397C36.9513 75.1177 36.8626 75.3647 36.8626 75.6161V83.9053C36.8626 84.1567 36.9513 84.4037 37.1038 84.5816C37.2564 84.7596 37.468 84.8619 37.6826 84.8619H44.7886C45.0031 84.8619 45.2148 84.7596 45.3674 84.5816C45.5199 84.4037 45.6076 84.1567 45.6076 83.9053V75.6161C45.6076 75.3647 45.519 75.1177 45.3674 74.9397C45.2148 74.7618 45.0031 74.6594 44.7886 74.6594H37.6826Z" fill="#B690FF"/>
<path d="M37.6826 87.7766C37.4661 87.7766 37.2564 87.8643 37.1038 88.0169C36.9494 88.1694 36.8626 88.3811 36.8626 88.5966V95.7017C36.8626 95.9181 36.9494 96.1288 37.1038 96.2814C37.2564 96.4339 37.4661 96.5216 37.6826 96.5216H44.7886C45.0031 96.5216 45.2148 96.4339 45.3674 96.2814C45.5199 96.1288 45.6076 95.9171 45.6076 95.7017V88.5966C45.6076 88.3811 45.519 88.1694 45.3674 88.0169C45.2148 87.8643 45.0031 87.7766 44.7886 87.7766H37.6826Z" fill="#B690FF"/>
<path d="M24.7006 74.6594C24.4481 74.6594 24.2033 74.7618 24.0254 74.9397C23.8452 75.1177 23.7451 75.3647 23.7451 75.6161V83.9053C23.7451 84.1567 23.8463 84.4037 24.0254 84.5816C24.2033 84.7596 24.4481 84.8619 24.7006 84.8619H32.991C33.2412 84.8619 33.4882 84.7596 33.6662 84.5816C33.8441 84.4037 33.9476 84.1567 33.9476 83.9053V75.6161C33.9476 75.3647 33.8441 75.1177 33.6662 74.9397C33.4882 74.7618 33.2412 74.6594 32.991 74.6594H24.7006Z" fill="#B690FF"/>
<path d="M24.7018 87.7766C24.4493 87.7766 24.2023 87.8643 24.0243 88.0169C23.8463 88.1694 23.7451 88.3811 23.7451 88.5966V95.7017C23.7451 95.9181 23.8463 96.1288 24.0243 96.2814C24.2045 96.4339 24.4493 96.5216 24.7018 96.5216H32.9908C33.2434 96.5216 33.4904 96.4339 33.6683 96.2814C33.8463 96.1288 33.9476 95.9171 33.9476 95.7017V88.5966C33.9476 88.3811 33.8463 88.1694 33.6683 88.0169C33.4904 87.8643 33.2434 87.7766 32.9908 87.7766H24.7018Z" fill="#B690FF"/>
<rect x="22.2876" y="51.3394" width="39.3526" height="17.49" fill="white"/>
<path d="M31.3122 59.7543C30.8537 59.4917 30.3662 59.2916 29.8836 59.0841C29.6037 58.964 29.3358 58.824 29.0993 58.6289C28.6336 58.2438 28.7229 57.6186 29.2682 57.371C29.4227 57.301 29.5844 57.2785 29.7485 57.2685C30.3807 57.2335 30.9816 57.3535 31.5535 57.6386C31.8383 57.7812 31.9324 57.7361 32.0289 57.4285C32.1303 57.1034 32.2148 56.7733 32.3089 56.4457C32.3716 56.2257 32.2944 56.0806 32.0941 55.9881C31.7273 55.8205 31.3508 55.7005 30.9551 55.6355C30.4386 55.5529 30.4386 55.5504 30.4362 55.0128C30.433 54.2924 30.4338 54.255 29.7002 54.255C29.594 54.255 29.4878 54.2525 29.3817 54.255C29.2548 54.2539 28.9811 54.3275 28.9714 54.6852C28.9666 54.8452 28.9714 55.0053 28.969 55.1678C28.9666 55.643 28.9642 55.6355 28.525 55.8005C27.4632 56.2006 26.8068 56.9509 26.7368 58.1513C26.674 59.2141 27.2098 59.9318 28.052 60.4545C28.5708 60.7771 29.1452 60.9672 29.6954 61.2198C29.9101 61.3173 30.1153 61.4298 30.2938 61.5849C30.8223 62.0375 30.7258 62.7903 30.0984 63.0754C29.7629 63.2279 29.4082 63.2654 29.0438 63.2179C28.4815 63.1454 27.9434 62.9928 27.4366 62.7202C27.1398 62.5602 27.0529 62.6027 26.9516 62.9353C26.8647 63.2229 26.7875 63.513 26.7102 63.8031C26.6065 64.1932 26.6451 64.2857 27.0047 64.4683C27.4632 64.6984 27.953 64.8159 28.4526 64.8984C28.8435 64.9635 28.8556 64.981 28.8604 65.4011C28.8628 65.5912 28.8628 65.7837 28.8652 65.9738C28.8676 66.2139 28.9787 66.3539 29.2176 66.3589C29.4878 66.3639 29.7605 66.3639 30.0308 66.3564C30.2528 66.3514 30.3662 66.2264 30.3662 65.9938C30.3662 65.7337 30.3783 65.4711 30.3687 65.211C30.3566 64.946 30.4676 64.8109 30.7137 64.7409C31.2808 64.5808 31.7635 64.2657 32.1351 63.7956C33.168 62.4952 32.7746 60.5921 31.3122 59.7543Z" fill="#1A237E"/>
<path d="M43.0287 66.0679L41.3743 63.7545L39.6638 66.0679H37.2803L40.1825 62.2684L37.3785 58.5249H39.832L41.4303 60.7261L43.0707 58.5249H45.3981L42.594 62.2123L45.5103 66.0679H43.0287ZM57.4126 64.2172V66.0679H49.9958V64.5957L53.7813 61.0205C54.1832 60.6373 54.4543 60.3102 54.5945 60.0391C54.7347 59.7587 54.8048 59.483 54.8048 59.2119C54.8048 58.8193 54.6693 58.5202 54.3982 58.3146C54.1365 58.0996 53.7486 57.9921 53.2345 57.9921C52.8045 57.9921 52.4167 58.0763 52.0708 58.2445C51.725 58.4034 51.4352 58.6464 51.2016 58.9736L49.5472 57.908C49.9304 57.3379 50.4585 56.8939 51.1315 56.5761C51.8044 56.2489 52.5755 56.0854 53.4448 56.0854C54.1739 56.0854 54.8095 56.2069 55.3516 56.4499C55.903 56.6836 56.3283 57.0201 56.6274 57.4594C56.9359 57.8893 57.0901 58.3987 57.0901 58.9876C57.0901 59.5204 56.9779 60.0204 56.7536 60.4878C56.5293 60.9551 56.0947 61.4879 55.4497 62.0861L53.1924 64.2172H57.4126Z" fill="#20237C"/>
<path d="M57.2787 83.5498H51.4376V84.5264H57.2787V83.5498Z" fill="white"/>
<path d="M57.2787 86.0393H51.4376V87.0159H57.2787V86.0393Z" fill="white"/>
<circle cx="69.6565" cy="69.5576" r="2.18625" fill="#1A237E"/>
<path fill-rule="evenodd" clip-rule="evenodd" d="M63.7221 70.4941C63.8378 73.0013 66.4504 75.0058 69.6565 75.0058C72.8625 75.0058 75.4752 73.0013 75.5908 70.4941H63.7221Z" fill="#1A237E"/>
<path d="M52.1151 92.6695C52.1151 82.9816 59.9687 75.128 69.6565 75.128C79.3444 75.128 87.198 82.9816 87.198 92.6695V95.0342C87.198 101.346 82.0811 106.463 75.7691 106.463H63.5439C57.232 106.463 52.1151 101.346 52.1151 95.0342V92.6695Z" fill="#11E6C1" stroke="white" stroke-width="4.26972"/>
<path d="M50.8235 92.6695C50.8235 82.2683 59.2553 73.8364 69.6565 73.8364C80.0577 73.8364 88.4895 82.2683 88.4895 92.6695V95.0342C88.4895 102.059 82.7944 107.755 75.7691 107.755H63.5439C56.5186 107.755 50.8235 102.059 50.8235 95.0342V92.6695Z" stroke="#1A237E" stroke-width="1.68654"/>
<path d="M71.8576 90.0553C71.2125 89.7043 70.5267 89.4369 69.8477 89.1595C69.4538 88.9991 69.077 88.8119 68.7442 88.5512C68.089 88.0364 68.2146 87.2008 68.9819 86.8699C69.1992 86.7763 69.4267 86.7462 69.6575 86.7328C70.5471 86.686 71.3925 86.8465 72.1972 87.2275C72.5978 87.4181 72.7302 87.3579 72.866 86.9468C73.0086 86.5122 73.1274 86.071 73.2599 85.6331C73.3481 85.339 73.2395 85.1451 72.9577 85.0215C72.4416 84.7975 71.912 84.6371 71.3551 84.5502C70.6286 84.4399 70.6286 84.4365 70.6252 83.7179C70.6206 82.7551 70.6218 82.7051 69.5896 82.7051C69.4403 82.7051 69.2909 82.7018 69.1415 82.7051C68.963 82.7036 68.5779 82.802 68.5643 83.28C68.5575 83.4939 68.5643 83.7079 68.5609 83.9251C68.5575 84.5602 68.5541 84.5502 67.9362 84.7708C66.4423 85.3056 65.5188 86.3083 65.4203 87.9128C65.3321 89.3333 66.0858 90.2926 67.2707 90.9912C68.0007 91.4224 68.8087 91.6764 69.5829 92.014C69.885 92.1444 70.1736 92.2948 70.4249 92.502C71.1684 93.107 71.0326 94.1131 70.1499 94.4942C69.6779 94.6981 69.1788 94.7482 68.6661 94.6847C67.8751 94.5878 67.1179 94.3839 66.4049 94.0195C65.9873 93.8056 65.8651 93.8624 65.7225 94.307C65.6003 94.6914 65.4916 95.0791 65.383 95.4669C65.237 95.9883 65.2913 96.112 65.7972 96.356C66.4423 96.6635 67.1315 96.8206 67.8343 96.9309C68.3843 97.0178 68.4013 97.0412 68.4081 97.6027C68.4115 97.8568 68.4115 98.1141 68.4149 98.3682C68.4183 98.6891 68.5745 98.8762 68.9106 98.8829C69.2909 98.8896 69.6745 98.8896 70.0548 98.8796C70.3671 98.8729 70.5267 98.7058 70.5267 98.3949C70.5267 98.0473 70.5437 97.6963 70.5301 97.3487C70.5131 96.9944 70.6693 96.8139 71.0156 96.7203C71.8135 96.5064 72.4925 96.0852 73.0154 95.4568C74.4685 93.7187 73.9151 91.1751 71.8576 90.0553Z" fill="#1A237E"/>
</svg>
