<svg width="205" height="166" viewBox="0 0 205 166" fill="none" xmlns="http://www.w3.org/2000/svg">
<path opacity="0.05" d="M184.641 66.3078C184.02 71.6336 180.702 76.5181 181.298 82.0656C182.009 88.71 187.066 94.7077 188.182 101.325C189.832 111.101 187.39 121.087 180.955 128.797C177.856 132.515 173.834 135.706 168.934 137.436C161.381 140.105 152.509 139.059 144.483 136.689C132.537 133.162 120.729 125.894 108.27 124.331C101.395 123.469 97.9661 129.071 93.5888 132.289C88.6344 135.927 82.4804 138.273 76.0276 139.3C64.145 141.196 50.9715 138.65 40.7281 132.179C29.7901 125.269 21.7557 112.623 25.0726 101.121C26.6066 95.7983 30.4069 91.0307 30.4083 85.4615C30.4049 78.472 25.7654 71.0539 22.6311 64.6533C19.171 57.5822 17.8707 49.7907 18.9486 42.384C18.9632 42.2993 18.9726 42.2172 18.9871 42.1326C20.9307 29.3749 33.0282 20.0723 48.2552 19.3841L80.6572 17.9202C113.536 16.4379 144.403 23.7119 170.055 42.5983C175.604 46.6837 183.821 56.9801 184.635 62.9824C184.783 64.1174 184.768 65.2195 184.641 66.3078Z" fill="#928C9E"/>
<path d="M76.6463 104.712H96.9859C100.69 97.3684 104.137 87.1773 103.024 69.5354H70.6944C70.416 84.3511 72.1074 96.4478 76.6463 104.712Z" fill="#B157FF"/>
<path d="M72.9141 105.103H80.5617C81.9544 97.5788 88.7501 87.1373 88.3315 69.0623H70.6761C70.5715 84.2418 71.2074 96.6355 72.9141 105.103Z" fill="#E5E6EB" fill-opacity="0.1"/>
<path d="M82.5984 66.1937C80.4788 64.8449 80.5431 62.3185 81.2282 60.7342C82.0204 58.9572 83.5405 57.3942 85.0606 55.3174C85.7671 54.2469 86.4737 53.0694 86.8804 51.6563C87.2658 50.2433 87.2658 48.6161 86.7306 47.2673C85.6601 44.5268 83.5619 42.9639 81.4209 41.7649C82.5342 43.9701 83.8188 46.0683 84.0543 47.9738C84.2898 49.8365 83.4762 51.4422 82.1488 53.2621C80.9499 55.0605 79.0872 57.0945 78.5519 59.9848C78.2522 61.4193 78.5305 63.0036 79.2371 64.1812C79.965 65.4016 81.2924 66.3436 82.5984 66.1937Z" fill="#E5E6EB"/>
<path d="M91.0414 53.4678H91.4681V42.4036C91.4681 41.5627 91.6432 40.73 91.9832 39.9531C92.3233 39.1761 92.8217 38.4702 93.45 37.8756C94.0783 37.281 94.8243 36.8093 95.6452 36.4875C96.4662 36.1656 97.3461 36 98.2346 36H123.004C123.892 36 124.772 36.1656 125.593 36.4874C126.414 36.8093 127.16 37.2809 127.788 37.8756C128.417 38.4702 128.915 39.1761 129.255 39.9531C129.595 40.73 129.77 41.5627 129.77 42.4036V103.102C129.77 103.943 129.595 104.776 129.255 105.553C128.915 106.33 128.417 107.036 127.788 107.63C127.16 108.225 126.414 108.697 125.593 109.019C124.772 109.34 123.892 109.506 123.004 109.506H98.2347C96.4401 109.506 94.719 108.831 93.45 107.63C92.1811 106.43 91.4682 104.801 91.4682 103.102V61.3434H91.0414V53.4678Z" fill="#1A237E"/>
<path d="M98.3201 37.5813H101.46C101.316 37.9271 101.261 38.3023 101.3 38.6739C101.339 39.0454 101.471 39.4018 101.684 39.7118C101.897 40.0218 102.185 40.2758 102.523 40.4514C102.86 40.6271 103.236 40.7189 103.619 40.719H117.4C117.782 40.7189 118.159 40.6271 118.496 40.4514C118.834 40.2758 119.122 40.0218 119.335 39.7118C119.548 39.4018 119.68 39.0454 119.719 38.6739C119.758 38.3023 119.703 37.9271 119.559 37.5813H122.492C123.793 37.5813 125.041 38.0864 125.962 38.9854C126.882 39.8844 127.399 41.1037 127.399 42.3751V103.132C127.399 103.762 127.272 104.385 127.026 104.966C126.779 105.548 126.417 106.077 125.962 106.522C125.506 106.967 124.965 107.32 124.37 107.561C123.774 107.802 123.136 107.926 122.492 107.926H98.3201C97.6756 107.926 97.0374 107.802 96.442 107.561C95.8466 107.32 95.3056 106.967 94.8499 106.522C94.3942 106.077 94.0327 105.548 93.786 104.967C93.5394 104.385 93.4125 103.762 93.4125 103.132V42.3751C93.4125 41.7455 93.5394 41.1222 93.786 40.5406C94.0327 39.959 94.3942 39.4305 94.8499 38.9854C95.3056 38.5402 95.8466 38.1871 96.442 37.9462C97.0374 37.7053 97.6756 37.5813 98.3201 37.5813Z" fill="white"/>
<rect x="95.7837" y="44.1296" width="29.1314" height="57.5854" rx="3.38737" fill="#D9C5FF"/>
<path d="M121.799 67.5025H100.255C99.9676 67.5025 99.6919 67.3776 99.4886 67.1553C99.2853 66.9329 99.1711 66.6314 99.1711 66.3169C99.1711 66.0025 99.2853 65.7009 99.4886 65.4786C99.6919 65.2563 99.9676 65.1313 100.255 65.1313H121.799C122.086 65.1313 122.362 65.2563 122.565 65.4786C122.769 65.7009 122.883 66.0025 122.883 66.3169C122.883 66.6314 122.769 66.9329 122.565 67.1553C122.362 67.3776 122.086 67.5025 121.799 67.5025Z" fill="white"/>
<path d="M121.799 55.3079H100.255C99.9676 55.3079 99.6919 55.183 99.4886 54.9607C99.2853 54.7383 99.1711 54.4368 99.1711 54.1223C99.1711 53.8079 99.2853 53.5064 99.4886 53.284C99.6919 53.0617 99.9676 52.9368 100.255 52.9368H121.799C122.086 52.9368 122.362 53.0617 122.565 53.284C122.769 53.5064 122.883 53.8079 122.883 54.1223C122.883 54.4368 122.769 54.7383 122.565 54.9607C122.362 55.183 122.086 55.3079 121.799 55.3079Z" fill="white"/>
<path d="M121.799 73.8258H100.255C99.9676 73.8258 99.6919 73.7008 99.4886 73.4785C99.2853 73.2562 99.1711 72.9546 99.1711 72.6402C99.1711 72.3257 99.2853 72.0242 99.4886 71.8018C99.6919 71.5795 99.9676 71.4546 100.255 71.4546H121.799C122.086 71.4546 122.362 71.5795 122.565 71.8018C122.769 72.0242 122.883 72.3257 122.883 72.6402C122.883 72.9546 122.769 73.2562 122.565 73.4785C122.362 73.7008 122.086 73.8258 121.799 73.8258Z" fill="white"/>
<path d="M121.799 61.6312H100.255C99.9676 61.6312 99.6919 61.5063 99.4886 61.2839C99.2853 61.0616 99.1711 60.76 99.1711 60.4456C99.1711 60.1312 99.2853 59.8296 99.4886 59.6073C99.6919 59.3849 99.9676 59.26 100.255 59.26H121.799C122.086 59.26 122.362 59.3849 122.565 59.6073C122.769 59.8296 122.883 60.1312 122.883 60.4456C122.883 60.76 122.769 61.0616 122.565 61.2839C122.362 61.5063 122.086 61.6312 121.799 61.6312Z" fill="white"/>
<path d="M121.799 80.1487H100.255C99.9676 80.1487 99.6919 80.0238 99.4886 79.8015C99.2853 79.5792 99.1711 79.2776 99.1711 78.9632C99.1711 78.6487 99.2853 78.3472 99.4886 78.1248C99.6919 77.9025 99.9676 77.7776 100.255 77.7776H121.799C122.086 77.7776 122.362 77.9025 122.565 78.1248C122.769 78.3472 122.883 78.6487 122.883 78.9632C122.883 79.2776 122.769 79.5792 122.565 79.8015C122.362 80.0238 122.086 80.1487 121.799 80.1487Z" fill="white"/>
<path d="M115.037 105.554H104.984C104.85 105.554 104.721 105.471 104.626 105.322C104.531 105.174 104.478 104.973 104.478 104.764C104.478 104.554 104.531 104.353 104.626 104.205C104.721 104.056 104.85 103.973 104.984 103.973H115.037C115.172 103.973 115.3 104.056 115.395 104.205C115.49 104.353 115.543 104.554 115.543 104.764C115.543 104.973 115.49 105.174 115.395 105.322C115.3 105.471 115.172 105.554 115.037 105.554Z" fill="#1A237E"/>
<path d="M74.2576 99.1863L76.7197 96.5743L76.1416 96.1247C74.5573 94.9044 72.9515 93.684 71.3458 92.485C68.1985 90.1085 65.0512 87.732 61.9682 85.2698L61.0904 84.5847C58.8851 82.8719 56.6157 81.0949 56.6799 78.697C56.7227 76.0421 58.9494 73.6442 61.647 73.3444C63.8737 73.0875 65.715 74.3293 67.8345 75.7638L69.0549 76.5559C70.7035 77.605 72.3735 78.6755 74.022 79.746L76.5056 81.3518L78.4325 78.3544L75.9489 76.7486C74.3004 75.6781 72.6304 74.6076 70.9604 73.5371L69.8043 72.7878C67.4278 71.2034 64.7515 69.4264 61.2403 69.7904C56.7656 70.2828 53.1901 74.158 53.1044 78.6113C53.0188 82.7863 56.2731 85.3341 58.8852 87.368L59.7201 88.0317C62.8246 90.5153 66.0147 92.9132 69.1834 95.3111C70.7891 96.5101 72.3735 97.7305 73.9578 98.9508L74.2576 99.1863Z" fill="#B567F8"/>
<path d="M107.56 87.3773C106.857 87.3773 106.162 87.4294 105.493 87.5684C104.825 87.7073 104.173 87.9244 103.6 88.2544C103.314 88.4194 103.044 88.6105 102.801 88.8276C102.558 89.0447 102.341 89.2878 102.15 89.5483C101.959 89.8088 101.803 90.0867 101.681 90.3733C101.559 90.6599 101.481 90.9638 101.446 91.2677C101.412 91.5717 101.42 91.8756 101.49 92.1622C101.551 92.4574 101.655 92.7353 101.803 93.0045C101.941 93.2737 102.133 93.5169 102.341 93.734C102.549 93.9511 102.784 94.1508 103.044 94.3071C103.305 94.4634 103.574 94.585 103.861 94.6718C103.93 94.6892 104 94.7152 104.078 94.7239L104.295 94.7673C104.373 94.776 104.442 94.7847 104.521 94.7934L104.573 94.8021H104.633H104.746C105.05 94.8021 105.354 94.776 105.65 94.7066C105.945 94.6371 106.24 94.5329 106.518 94.4026C107.074 94.1421 107.569 93.7513 107.959 93.2824C108.159 93.0392 108.368 92.7353 108.672 92.4314C108.75 92.3532 108.828 92.2838 108.923 92.2143C108.949 92.1969 108.967 92.1795 108.993 92.1622L109.071 92.1101C109.123 92.0753 109.175 92.0493 109.236 92.0232C109.453 91.919 109.696 91.8496 109.948 91.8409C110.078 91.8322 110.217 91.8496 110.348 91.8756C110.486 91.9017 110.625 91.9624 110.747 92.0406C111.007 92.1969 111.181 92.4574 111.268 92.7006C111.355 92.9437 111.381 93.1608 111.398 93.3519C111.407 93.4474 111.407 93.5429 111.416 93.6298L111.424 93.7513C111.424 93.7861 111.433 93.8208 111.433 93.8469C111.45 93.9771 111.485 94.0987 111.529 94.1942C111.546 94.2376 111.572 94.2724 111.589 94.2897C111.607 94.3071 111.615 94.3245 111.633 94.3245C111.641 94.3332 111.667 94.3332 111.685 94.3418C111.702 94.3418 111.711 94.3418 111.746 94.3245C111.806 94.2984 111.902 94.2029 111.997 94.0813C112.093 93.9597 112.189 93.8208 112.301 93.6732C112.414 93.5255 112.545 93.3692 112.718 93.2129C112.805 93.1348 112.909 93.0653 113.04 93.0132C113.161 92.9611 113.3 92.9264 113.439 92.9177C113.474 92.9177 113.508 92.9177 113.543 92.9177C113.578 92.9177 113.613 92.9177 113.647 92.9264C113.682 92.935 113.717 92.9437 113.752 92.9524C113.786 92.9611 113.812 92.9785 113.847 92.9871L113.891 93.0045C113.908 93.0132 113.917 93.0219 113.934 93.0306C113.96 93.0479 113.995 93.0566 114.021 93.074C114.073 93.1087 114.125 93.1435 114.168 93.1782C114.351 93.3258 114.464 93.4821 114.577 93.6211C114.689 93.76 114.785 93.899 114.881 94.0032C114.976 94.1074 115.08 94.1942 115.211 94.2637C115.341 94.3332 115.48 94.3939 115.636 94.4374C115.94 94.5329 116.279 94.585 116.626 94.6371C116.973 94.6892 117.312 94.7413 117.651 94.7673C117.989 94.8021 118.337 94.8021 118.675 94.776C119.014 94.75 119.353 94.6718 119.683 94.5416C119.535 94.6284 119.379 94.7152 119.214 94.776C119.049 94.8455 118.875 94.8976 118.71 94.941C118.363 95.0192 118.007 95.0626 117.651 95.08C117.295 95.0973 116.939 95.0886 116.591 95.0713C116.244 95.0539 115.879 95.0452 115.514 94.9758C115.332 94.941 115.141 94.8889 114.959 94.8021C114.776 94.7239 114.594 94.6023 114.438 94.4634C114.281 94.3245 114.168 94.1855 114.056 94.0639C113.943 93.9424 113.83 93.8295 113.734 93.76C113.708 93.7426 113.682 93.734 113.665 93.7166L113.63 93.7079C113.621 93.7079 113.621 93.6992 113.613 93.6992H113.595C113.561 93.6819 113.526 93.6905 113.482 93.6905C113.448 93.6905 113.413 93.7079 113.378 93.7253C113.343 93.7426 113.3 93.7774 113.265 93.8121C113.178 93.899 113.092 94.0118 113.005 94.1508C112.918 94.2897 112.822 94.4374 112.71 94.5937C112.657 94.6718 112.588 94.7587 112.51 94.8368C112.432 94.9237 112.345 95.0018 112.223 95.08C112.102 95.1581 111.954 95.2189 111.789 95.2363C111.624 95.2536 111.476 95.2363 111.329 95.1842C111.172 95.1321 111.042 95.0452 110.938 94.941C110.834 94.8368 110.756 94.7239 110.695 94.6197C110.573 94.4026 110.512 94.1855 110.478 93.9684C110.469 93.9163 110.46 93.8642 110.452 93.8034L110.434 93.6645C110.426 93.5777 110.417 93.4908 110.408 93.4213C110.391 93.265 110.365 93.1348 110.33 93.0479C110.313 93.0045 110.295 92.9785 110.269 92.9524C110.261 92.9437 110.252 92.935 110.243 92.9264C110.235 92.9177 110.226 92.909 110.217 92.909C110.174 92.8829 110.113 92.8743 110.018 92.8743C109.931 92.8829 109.826 92.909 109.731 92.9611C109.705 92.9698 109.688 92.9872 109.661 92.9958L109.627 93.0132C109.618 93.0219 109.601 93.0306 109.592 93.0393C109.54 93.074 109.496 93.1174 109.444 93.1695C109.253 93.3606 109.071 93.6384 108.828 93.9337C108.333 94.5416 107.708 95.0365 107.004 95.3665C106.648 95.5315 106.283 95.6618 105.901 95.7486C105.519 95.8268 105.12 95.8702 104.729 95.8615L104.581 95.8528H104.503L104.425 95.8442C104.33 95.8355 104.225 95.8181 104.13 95.8094L103.835 95.7486C103.739 95.7313 103.644 95.6965 103.548 95.6705C103.166 95.5489 102.801 95.3752 102.471 95.1581C102.141 94.941 101.846 94.6805 101.585 94.3853C101.325 94.09 101.099 93.7687 100.925 93.404C100.752 93.0479 100.63 92.6658 100.569 92.2751C100.561 92.1795 100.543 92.0753 100.535 91.9798L100.526 91.6846C100.526 91.589 100.535 91.4848 100.543 91.3893C100.543 91.3372 100.552 91.2938 100.561 91.2417L100.578 91.0941C100.648 90.7033 100.769 90.3385 100.943 89.9912C101.117 89.6438 101.325 89.3312 101.568 89.0447C102.054 88.4715 102.671 88.0199 103.348 87.7247C104.017 87.4294 104.738 87.2731 105.45 87.221C106.162 87.2037 106.874 87.2558 107.56 87.3773Z" fill="#050F64"/>
<path d="M152.446 57.3175L150.568 59.3431C150.06 59.8918 150.092 60.7491 150.641 61.2579L151.532 62.0841C152.081 62.5929 152.938 62.5605 153.447 62.0118L155.325 59.9862C155.833 59.4375 155.801 58.5802 155.252 58.0714L154.361 57.2452C153.812 56.7364 152.955 56.7688 152.446 57.3175Z" fill="#1A237E"/>
<path d="M150.7 59.1973L124.94 86.9805L127.818 89.6492L153.578 61.866L150.7 59.1973Z" fill="#11E6C1"/>
<path d="M122.245 93.5613L121.472 92.8406L120.196 94.9942L122.245 93.5613Z" fill="#050F64"/>
<path d="M127.82 89.6535L124.946 86.9875L121.472 92.8405L122.245 93.5613L127.82 89.6535Z" fill="#1A237E"/>
</svg>
