<svg width="97" height="63" viewBox="0 0 97 63" fill="none" xmlns="http://www.w3.org/2000/svg">
<path d="M10.7964 62.9681C6.6389 59.8495 2.9763 56.0185 1.26834 51.442C-0.441182 46.8655 0.0740169 41.4606 3.52116 37.7263C5.4758 35.6085 8.19542 34.1617 10.4139 32.2579C13.8923 29.2718 16.0077 25.2848 17.9311 21.3503C19.8545 17.4157 21.7077 13.368 24.8129 10.0768C27.9197 6.78554 32.5768 4.31575 37.4041 4.70921C45.0071 5.32907 49.9078 12.3919 57.1643 14.4917C60.819 15.5492 64.7845 15.2579 68.5907 14.772C72.397 14.286 76.2297 13.6151 80.0563 13.9506C83.8828 14.286 87.8061 15.8226 89.7404 18.7618C92.2743 22.6093 90.7505 27.4951 91.6357 31.8769C92.3586 35.4567 94.6848 38.625 95.8088 42.1219C98.2584 49.7342 94.1508 58.5987 86.3651 62.5029L10.7964 62.9681Z" fill="#F9F9FA"/>
<rect x="62.4825" y="7.07213" width="14.1378" height="52.0329" rx="1.96763" fill="white" stroke="#1A237E" stroke-width="1.89475"/>
<rect x="65.9076" y="10.4968" width="7.28752" height="43.7251" fill="#D9C5FF"/>
<rect x="43.5349" y="15.8168" width="14.1378" height="43.2878" rx="1.96763" fill="white" stroke="#1A237E" stroke-width="1.89475"/>
<rect x="46.9601" y="19.2419" width="7.28752" height="36.4376" fill="#D9C5FF"/>
<rect x="5.63988" y="31.8497" width="14.1378" height="27.2553" rx="1.96763" fill="white" stroke="#1A237E" stroke-width="1.89475"/>
<rect x="9.06506" y="35.2744" width="7.28752" height="20.405" fill="#D9C5FF"/>
<rect x="24.5874" y="23.1048" width="14.1378" height="36.0003" rx="1.96763" fill="white" stroke="#1A237E" stroke-width="1.89475"/>
<rect x="28.0126" y="26.5298" width="7.28752" height="29.1501" fill="#D9C5FF"/>
<circle cx="76.8389" cy="43.2906" r="18.5832" fill="white" stroke="#20237C" stroke-width="2.18626"/>
<circle cx="76.8388" cy="43.2908" r="15.3038" fill="#11E6C1" stroke="white" stroke-width="2.91501"/>
<path d="M79.186 42.3325C78.5238 42.0164 77.8196 41.7756 77.1225 41.5258C76.7181 41.3813 76.3312 41.2127 75.9896 40.9779C75.3169 40.5143 75.4458 39.7618 76.2336 39.4638C76.4567 39.3795 76.6903 39.3524 76.9273 39.3403C77.8406 39.2982 78.7085 39.4427 79.5346 39.7858C79.9459 39.9574 80.0819 39.9032 80.2213 39.533C80.3677 39.1417 80.4897 38.7443 80.6257 38.35C80.7163 38.0851 80.6047 37.9105 80.3154 37.7991C79.7856 37.5974 79.2418 37.4529 78.6702 37.3747C77.9242 37.2753 77.9242 37.2723 77.9207 36.6251C77.9161 35.758 77.9172 35.713 76.8576 35.713C76.7042 35.713 76.5508 35.71 76.3975 35.713C76.2142 35.7117 75.8188 35.8003 75.8049 36.2308C75.7979 36.4234 75.8049 36.6161 75.8014 36.8117C75.7979 37.3837 75.7944 37.3747 75.16 37.5733C73.6263 38.055 72.6782 38.958 72.5771 40.4029C72.4865 41.6823 73.2603 42.5462 74.4768 43.1754C75.2262 43.5637 76.0559 43.7925 76.8506 44.0965C77.1608 44.2139 77.4571 44.3494 77.7151 44.536C78.4784 45.0808 78.339 45.9869 77.4327 46.3301C76.9482 46.5137 76.4358 46.5589 75.9095 46.5017C75.0973 46.4144 74.32 46.2307 73.5879 45.9026C73.1592 45.71 73.0337 45.7611 72.8873 46.1615C72.7618 46.5077 72.6503 46.8569 72.5387 47.2061C72.3889 47.6757 72.4446 47.787 72.964 48.0068C73.6263 48.2837 74.3339 48.4252 75.0554 48.5245C75.6201 48.6028 75.6376 48.6239 75.6445 49.1296C75.648 49.3584 75.648 49.5902 75.6515 49.8189C75.655 50.1079 75.8153 50.2765 76.1604 50.2825C76.5508 50.2885 76.9447 50.2885 77.3351 50.2795C77.6558 50.2735 77.8196 50.123 77.8196 49.843C77.8196 49.53 77.8371 49.2139 77.8231 48.9008C77.8057 48.5817 77.966 48.4192 78.3216 48.3349C79.1407 48.1422 79.8379 47.7629 80.3747 47.197C81.8666 45.6317 81.2984 43.3409 79.186 42.3325Z" fill="#1A237E"/>
<path d="M28.3557 5.13171C27.1011 4.84174 26.4819 3.64048 26.9736 2.45033C27.4653 1.26019 28.8826 0.529604 30.1373 0.819573L37.6288 2.55098C38.8835 2.84095 39.5027 4.04221 39.011 5.23236L36.0875 12.3086C35.5958 13.4987 34.1784 14.2293 32.9238 13.9393C31.6691 13.6494 31.0499 12.4481 31.5416 11.258L32.358 9.28192L30.2502 5.56955L28.3557 5.13171Z" fill="#1A237E"/>
<rect x="11.9801" y="15.0044" width="24.1611" height="4.41158" rx="1.72342" transform="rotate(-27.2693 11.9801 15.0044)" fill="#1A237E"/>
</svg>
