<svg width="97" height="74" viewBox="0 0 97 74" fill="none" xmlns="http://www.w3.org/2000/svg">
<path d="M11.1165 71.712C6.95903 68.5934 3.29643 64.7624 1.58847 60.1859C-0.121052 55.6094 0.394146 50.2045 3.84129 46.4702C5.79593 44.3524 8.51555 42.9056 10.734 41.0018C14.2124 38.0157 16.3278 34.0287 18.2512 30.0942C20.1746 26.1596 22.0278 22.1119 25.133 18.8207C28.2398 15.5294 32.8969 13.0596 37.7242 13.4531C45.3273 14.073 50.2279 21.1358 57.4844 23.2356C61.1392 24.2931 65.1046 24.0018 68.9109 23.5159C72.7171 23.0299 76.5499 22.359 80.3764 22.6945C84.2029 23.0299 88.1262 24.5665 90.0606 27.5056C92.5944 31.3532 91.0706 36.239 91.9559 40.6208C92.6787 44.2005 95.0049 47.3689 96.129 50.8658C98.5785 58.4781 94.471 67.3426 86.6852 71.2468L11.1165 71.712Z" fill="#F9F9FA"/>
<rect x="16.6726" y="1.75194" width="53.9276" height="68.5027" rx="2.91501" stroke="#20237C" stroke-width="2.91501"/>
<path d="M66.8107 66.4649H20.4621V5.54123H66.8107V66.4649Z" fill="#D9C5FF" stroke="white" stroke-width="4.66401"/>
<path d="M31.249 14.8642H33.7096V25.4963H31.249V14.8642ZM43.7357 25.4963L41.6853 22.5345H41.5638H39.4222V25.4963H36.9616V14.8642H41.5638C42.5055 14.8642 43.3206 15.0212 44.0091 15.3351C44.7078 15.649 45.2445 16.0945 45.6191 16.6717C45.9938 17.2489 46.1811 17.9324 46.1811 18.7222C46.1811 19.512 45.9887 20.1955 45.604 20.7726C45.2293 21.3397 44.6926 21.7751 43.994 22.0789L46.3786 25.4963H43.7357ZM43.6902 18.7222C43.6902 18.1247 43.4978 17.6691 43.113 17.3552C42.7282 17.0312 42.1662 16.8691 41.4271 16.8691H39.4222V20.5752H41.4271C42.1662 20.5752 42.7282 20.4132 43.113 20.0892C43.4978 19.7651 43.6902 19.3095 43.6902 18.7222ZM52.3528 25.6786C51.5123 25.6786 50.6972 25.5672 49.9074 25.3445C49.1277 25.1116 48.4999 24.8128 48.024 24.4483L48.8594 22.5953C49.315 22.9294 49.8568 23.1978 50.4846 23.4003C51.1124 23.6028 51.7402 23.7041 52.368 23.7041C53.0667 23.7041 53.5831 23.6028 53.9172 23.4003C54.2514 23.1877 54.4185 22.9092 54.4185 22.5649C54.4185 22.3118 54.3172 22.1042 54.1147 21.9422C53.9223 21.77 53.6691 21.6333 53.3552 21.5321C53.0515 21.4308 52.6363 21.3194 52.1098 21.1979C51.2997 21.0055 50.6365 20.8131 50.12 20.6208C49.6036 20.4284 49.1581 20.1195 48.7834 19.6942C48.4189 19.269 48.2366 18.7019 48.2366 17.9931C48.2366 17.3754 48.4037 16.8185 48.7379 16.3223C49.072 15.8161 49.5733 15.4161 50.2416 15.1224C50.92 14.8288 51.7452 14.682 52.7173 14.682C53.3957 14.682 54.059 14.763 54.707 14.925C55.3551 15.087 55.9221 15.3199 56.4082 15.6237L55.6487 17.4919C54.6665 16.935 53.6843 16.6565 52.7021 16.6565C52.0136 16.6565 51.5022 16.7679 51.1681 16.9907C50.844 17.2134 50.682 17.5071 50.682 17.8716C50.682 18.2361 50.8694 18.5095 51.244 18.6918C51.6288 18.8639 52.211 19.0361 52.9907 19.2082C53.8008 19.4006 54.464 19.593 54.9804 19.7854C55.4969 19.9778 55.9373 20.2815 56.3019 20.6967C56.6765 21.1119 56.8638 21.6738 56.8638 22.3826C56.8638 22.9902 56.6917 23.5471 56.3474 24.0534C56.0133 24.5496 55.507 24.9445 54.8285 25.2381C54.1501 25.5318 53.3249 25.6786 52.3528 25.6786Z" fill="#20237C"/>
<rect x="26.8751" y="36.7314" width="32.0651" height="2.91501" rx="1.4575" fill="#20237C"/>
<rect x="26.8751" y="45.4766" width="32.0651" height="2.91501" rx="1.4575" fill="#20237C"/>
<rect x="26.8751" y="54.2219" width="32.0651" height="2.91501" rx="1.4575" fill="#20237C"/>
<circle cx="68.414" cy="53.4934" r="18.5832" fill="white" stroke="#20237C" stroke-width="2.18626"/>
<circle cx="68.414" cy="53.4927" r="15.3038" fill="#11E6C1" stroke="white" stroke-width="2.91501"/>
<path d="M67.2656 59.7989C67.1126 59.9611 66.9038 60.0516 66.6869 60.0516C66.47 60.0516 66.2612 59.9611 66.1082 59.7989L61.4862 54.928C61.0066 54.4226 61.0066 53.603 61.4862 53.0985L62.0649 52.4886C62.5448 51.9832 63.3216 51.9832 63.8013 52.4886L66.6869 55.5293L74.4842 47.3131C74.964 46.8077 75.7416 46.8077 76.2205 47.3131L76.7993 47.9231C77.2789 48.4285 77.2789 49.2479 76.7993 49.7526L67.2656 59.7989Z" fill="#20237C"/>
</svg>
