<svg width="206" height="167" viewBox="0 0 206 167" fill="none" xmlns="http://www.w3.org/2000/svg">
<path opacity="0.05" d="M185.177 67.5163C184.515 72.8399 181.16 77.7018 181.714 83.2563C182.374 89.9092 187.389 95.9478 188.455 102.577C190.033 112.37 187.515 122.342 181.018 130.008C177.89 133.703 173.841 136.866 168.927 138.56C161.349 141.173 152.481 140.059 144.469 137.628C132.544 134.009 120.786 126.649 108.332 124.992C101.461 124.077 97.988 129.656 93.5844 132.842C88.6002 136.445 82.4256 138.745 75.962 139.724C64.0596 141.532 50.899 138.885 40.6996 132.334C29.8085 125.338 21.8656 112.625 25.2708 101.143C26.8456 95.8296 30.6836 91.0884 30.727 85.5166C30.7763 78.5237 26.1905 71.0672 23.103 64.6399C19.6945 57.5394 18.4523 49.7344 19.5866 42.3323C19.6018 42.2477 19.6118 42.1657 19.627 42.0811C21.6677 29.3321 33.841 20.1163 49.0804 19.5425L81.5087 18.3221C114.414 17.087 145.241 24.597 170.763 43.6857C176.284 47.8149 184.427 58.178 185.196 64.1893C185.335 65.3259 185.312 66.4284 185.177 67.5163Z" fill="#928C9E"/>
<rect x="37.9345" y="33.9107" width="135.902" height="82.3544" rx="3.21961" fill="white" stroke="#1A237E" stroke-width="1.69453"/>
<circle cx="166.041" cy="42.7222" r="2.20289" fill="#FF4081"/>
<circle cx="148.418" cy="42.7222" r="2.20289" fill="#FF4081"/>
<circle cx="157.23" cy="42.7222" r="2.20289" fill="#FF4081"/>
<rect x="43.8654" y="41.197" width="96.9274" height="3.38907" rx="1.69453" fill="#162FBD"/>
<rect x="43.6487" y="57.26" width="60.3254" height="43.3801" rx="2.71125" fill="#D9C5FF"/>
<rect x="108.041" y="57.26" width="60.3254" height="43.3801" rx="2.71125" fill="#11E6C1"/>
<mask id="mask0" mask-type="alpha" maskUnits="userSpaceOnUse" x="108" y="57" width="61" height="44">
<rect x="108.041" y="57.26" width="60.3254" height="43.3801" rx="2.71125" fill="#11E6C1"/>
</mask>
<g mask="url(#mask0)">
<path d="M143.583 98.0447C141.535 97.6351 140.682 96.8501 140.511 96.5088H137.439V105.212H143.583C145.631 104.7 149.726 103.164 149.726 101.116C149.726 98.5567 146.143 98.5567 143.583 98.0447Z" fill="#00816A"/>
<path d="M131.808 98.5566C133.855 98.1471 134.709 97.3621 134.879 97.0208H137.951V105.724H131.808C129.76 105.212 125.664 103.676 125.664 101.628C125.664 99.0686 129.248 99.0686 131.808 98.5566Z" fill="#00816A"/>
<path d="M140.937 92.209L140.827 94.3091L140.693 96.9375C140.693 96.9375 140.183 97.9291 137.894 97.9291C135.6 97.9291 135.133 97.2536 135.133 97.2536L135.041 96.0888L134.734 92.2133H140.937V92.209Z" fill="white"/>
<path d="M141.028 91.8291L140.922 93.9934C139.997 94.752 137.509 96.3154 135.024 95.896L134.524 91.8291H141.028Z" fill="#00816A"/>
<path d="M130.82 82.6652C130.82 82.6652 129.065 80.8985 127.664 82.0503C126.01 83.4143 127.739 88.3161 130.677 87.7965L130.82 82.6652Z" fill="white"/>
<path d="M144.232 82.6652C144.232 82.6652 145.987 80.8985 147.388 82.0503C149.042 83.4143 147.312 88.3161 144.375 87.7965L144.232 82.6652Z" fill="white"/>
<path d="M137.612 94.2702C131.548 94.2702 129.675 86.8613 129.12 81.4356C128.606 76.4343 132.381 72.0219 137.267 71.9656C137.33 71.9656 137.397 71.9656 137.465 71.9656C137.545 71.9656 137.629 71.9656 137.709 71.9656C142.536 72.0305 146.298 76.3217 145.881 81.2711C145.414 86.7704 143.672 94.2702 137.612 94.2702Z" fill="white"/>
<path d="M145.389 68.1075C148.465 70.2725 145.684 74.4944 145.684 74.4944C145.684 74.4944 148.747 77.5775 145.595 84.8435L145.036 84.7266C145.393 82.4013 145.179 79.5694 145.036 79.1234C144.611 77.794 142.346 77.0882 142.46 75.6506C142.46 75.6506 135.52 77.885 131.762 75.6896C131.762 75.6896 131.468 77.5299 130.437 78.6904C129.574 79.6603 130.066 83.0422 130.176 84.5058L129.599 84.5621C129.258 83.0725 128.425 80.3878 128.333 79.5997C128.278 79.1017 128.072 77.1272 127.983 75.7112C127.908 74.4728 128.122 73.2257 128.665 72.1215C128.968 71.511 129.385 70.8961 129.961 70.4544C131.977 68.9085 142.599 66.1416 145.389 68.1075Z" fill="#00816A"/>
</g>
<mask id="mask1" mask-type="alpha" maskUnits="userSpaceOnUse" x="43" y="57" width="61" height="44">
<rect x="43.6487" y="57.26" width="60.3254" height="43.3801" rx="2.71125" fill="#D9C5FF"/>
</mask>
<g mask="url(#mask1)">
<path d="M80.3579 97.4242C78.1445 96.9815 77.2223 96.1331 77.0379 95.7642H73.7179V105.171H80.3579C82.5712 104.618 86.9979 102.958 86.9979 100.744C86.9979 97.9775 83.1246 97.9775 80.3579 97.4242Z" fill="#8343FF"/>
<path d="M67.6313 97.9774C69.8446 97.5347 70.7668 96.6863 70.9513 96.3174H74.2713V105.724H67.6313C65.4179 105.171 60.9912 103.511 60.9912 101.297C60.9912 98.5307 64.8646 98.5307 67.6313 97.9774Z" fill="#8343FF"/>
<path d="M77.4457 91.116L77.3274 93.3858L77.1819 96.2266C77.1819 96.2266 76.6315 97.2983 74.1572 97.2983C71.6783 97.2983 71.1734 96.5682 71.1734 96.5682L71.0734 95.3093L70.7413 91.1206H77.4457V91.116Z" fill="white"/>
<path d="M87.3643 87.3687C87.3643 93.8277 81.2965 92.8507 73.8115 92.8507C66.3265 92.8507 60.2587 93.8277 60.2587 87.3687C60.2587 80.9097 63.2226 69.4607 73.8115 69.4607C84.7652 69.4607 87.3643 80.9097 87.3643 87.3687Z" fill="#8343FF"/>
<path d="M77.5441 90.7056L77.4297 93.0447C76.4304 93.8646 73.7407 95.5544 71.0555 95.1011L70.5148 90.7056H77.5441Z" fill="#8343FF"/>
<path d="M80.3636 90.7493C83.9665 87.1636 83.9665 81.3501 80.3636 77.7644C76.7606 74.1787 70.9192 74.1787 67.3163 77.7644C63.7133 81.3501 63.7133 87.1636 67.3162 90.7493C70.9192 94.335 76.7606 94.3349 80.3636 90.7493Z" fill="white"/>
<path d="M63.189 82.6472H66.8097L68.407 78.5898L68.7264 82.6472H70.457L71.3888 80.2804L71.5751 82.6472H84.434C84.434 80.3157 83.413 78.0797 81.5956 76.431C79.7783 74.7824 77.3134 73.8562 74.7433 73.8562H72.8797C70.3095 73.8562 67.8447 74.7824 66.0273 76.431C64.2099 78.0797 63.189 80.3157 63.189 82.6472Z" fill="#8343FF"/>
</g>
</svg>
