<svg width="205" height="166" viewBox="0 0 205 166" fill="none" xmlns="http://www.w3.org/2000/svg">
<path opacity="0.05" d="M184.641 66.3078C184.02 71.6336 180.702 76.5181 181.298 82.0656C182.009 88.71 187.066 94.7077 188.182 101.325C189.832 111.101 187.39 121.087 180.955 128.797C177.856 132.515 173.834 135.706 168.934 137.436C161.381 140.105 152.509 139.059 144.483 136.689C132.537 133.162 120.729 125.894 108.27 124.331C101.395 123.469 97.9661 129.071 93.5888 132.289C88.6344 135.927 82.4804 138.273 76.0276 139.3C64.145 141.196 50.9715 138.65 40.7281 132.179C29.7901 125.269 21.7557 112.623 25.0726 101.121C26.6066 95.7983 30.4069 91.0307 30.4083 85.4615C30.4049 78.472 25.7654 71.0539 22.6311 64.6533C19.171 57.5822 17.8707 49.7907 18.9486 42.384C18.9632 42.2993 18.9726 42.2172 18.9871 42.1326C20.9307 29.3749 33.0282 20.0723 48.2552 19.3841L80.6572 17.9202C113.536 16.4379 144.403 23.7119 170.055 42.5983C175.604 46.6837 183.821 56.9801 184.635 62.9824C184.783 64.1174 184.768 65.2195 184.641 66.3078Z" fill="#928C9E"/>
<path d="M88.7973 58.6934V98.2733H59.1123V58.6934H88.7973Z" fill="#D9C5FF"/>
<path d="M88.7972 98.6036V56.385" stroke="#1A237E" stroke-width="0.659666"/>
<path d="M59.1123 98.6036V56.385" stroke="#1A237E" stroke-width="0.659666"/>
<path d="M88.7973 98.6035C88.7973 99.2476 88.4452 99.9021 87.7178 100.538C86.991 101.173 85.9204 101.76 84.5689 102.259C81.8685 103.257 78.1159 103.881 73.9548 103.881C69.7937 103.881 66.0411 103.257 63.3407 102.259C61.9892 101.76 60.9185 101.173 60.1918 100.538C59.4644 99.9021 59.1123 99.2476 59.1123 98.6035C59.1123 97.9594 59.4644 97.3049 60.1918 96.6693C60.9185 96.0343 61.9892 95.4475 63.3407 94.948C66.0411 93.95 69.7937 93.3262 73.9548 93.3262C78.1159 93.3262 81.8685 93.95 84.5689 94.948C85.9204 95.4475 86.991 96.0343 87.7178 96.6693C88.4452 97.3049 88.7973 97.9594 88.7973 98.6035Z" fill="#D9C5FF" stroke="#1A237E" stroke-width="0.659666"/>
<rect x="59.4421" y="92.3364" width="29.0253" height="6.59666" fill="#D9C5FF"/>
<path d="M88.7973 93.3259C88.7973 93.97 88.4452 94.6245 87.7178 95.2601C86.991 95.8951 85.9204 96.4819 84.5689 96.9814C81.8685 97.9794 78.1159 98.6032 73.9548 98.6032C69.7937 98.6032 66.0411 97.9794 63.3407 96.9814C61.9892 96.4819 60.9185 95.8951 60.1918 95.2601C59.4644 94.6245 59.1123 93.97 59.1123 93.3259C59.1123 92.6819 59.4644 92.0273 60.1918 91.3917C60.9185 90.7567 61.9892 90.1699 63.3407 89.6704C66.0411 88.6725 69.7937 88.0486 73.9548 88.0486C78.1159 88.0486 81.8685 88.6725 84.5689 89.6704C85.9204 90.1699 86.991 90.7567 87.7178 91.3917C88.4452 92.0273 88.7973 92.6819 88.7973 93.3259Z" fill="#D9C5FF" stroke="#1A237E" stroke-width="0.659666"/>
<rect x="59.4421" y="87.0593" width="29.0253" height="6.59666" fill="#D9C5FF"/>
<path d="M88.7973 88.0488C88.7973 88.6929 88.4452 89.3474 87.7178 89.983C86.991 90.618 85.9204 91.2048 84.5689 91.7043C81.8685 92.7023 78.1159 93.3261 73.9548 93.3261C69.7937 93.3261 66.0411 92.7023 63.3407 91.7043C61.9892 91.2048 60.9185 90.618 60.1918 89.983C59.4644 89.3474 59.1123 88.6929 59.1123 88.0488C59.1123 87.4048 59.4644 86.7502 60.1918 86.1146C60.9185 85.4796 61.9892 84.8928 63.3407 84.3933C66.0411 83.3954 69.7937 82.7715 73.9548 82.7715C78.1159 82.7715 81.8685 83.3954 84.5689 84.3933C85.9204 84.8928 86.991 85.4796 87.7178 86.1146C88.4452 86.7502 88.7973 87.4048 88.7973 88.0488Z" fill="#D9C5FF" stroke="#1A237E" stroke-width="0.659666"/>
<rect x="59.4421" y="81.782" width="29.0253" height="6.59666" fill="#D9C5FF"/>
<path d="M88.7973 82.771C88.7973 83.415 88.4452 84.0696 87.7178 84.7052C86.991 85.3401 85.9204 85.927 84.5689 86.4265C81.8685 87.4244 78.1159 88.0483 73.9548 88.0483C69.7937 88.0483 66.0411 87.4244 63.3407 86.4265C61.9892 85.927 60.9185 85.3401 60.1918 84.7052C59.4644 84.0696 59.1123 83.415 59.1123 82.771C59.1123 82.1269 59.4644 81.4724 60.1918 80.8368C60.9185 80.2018 61.9892 79.615 63.3407 79.1155C66.0411 78.1175 69.7937 77.4937 73.9548 77.4937C78.1159 77.4937 81.8685 78.1175 84.5689 79.1155C85.9204 79.615 86.991 80.2018 87.7178 80.8368C88.4452 81.4724 88.7973 82.1269 88.7973 82.771Z" fill="#D9C5FF" stroke="#1A237E" stroke-width="0.659666"/>
<rect x="59.4421" y="76.5042" width="29.0253" height="6.59666" fill="#D9C5FF"/>
<path d="M88.7973 77.4941C88.7973 78.1382 88.4452 78.7927 87.7178 79.4283C86.991 80.0633 85.9204 80.6501 84.5689 81.1496C81.8685 82.1476 78.1159 82.7715 73.9548 82.7715C69.7937 82.7715 66.0411 82.1476 63.3407 81.1496C61.9892 80.6501 60.9185 80.0633 60.1918 79.4283C59.4644 78.7927 59.1123 78.1382 59.1123 77.4941C59.1123 76.8501 59.4644 76.1955 60.1918 75.5599C60.9185 74.925 61.9892 74.3381 63.3407 73.8386C66.0411 72.8407 69.7937 72.2168 73.9548 72.2168C78.1159 72.2168 81.8685 72.8407 84.5689 73.8386C85.9204 74.3381 86.991 74.925 87.7178 75.5599C88.4452 76.1955 88.7973 76.8501 88.7973 77.4941Z" fill="#D9C5FF" stroke="#1A237E" stroke-width="0.659666"/>
<rect x="59.4421" y="71.2273" width="29.0253" height="6.59666" fill="#D9C5FF"/>
<path d="M88.7973 72.2165C88.7973 72.8606 88.4452 73.5151 87.7178 74.1507C86.991 74.7857 85.9204 75.3726 84.5689 75.872C81.8685 76.87 78.1159 77.4939 73.9548 77.4939C69.7937 77.4939 66.0411 76.87 63.3407 75.872C61.9892 75.3726 60.9185 74.7857 60.1918 74.1507C59.4644 73.5151 59.1123 72.8606 59.1123 72.2165C59.1123 71.5725 59.4644 70.9179 60.1918 70.2824C60.9185 69.6474 61.9892 69.0605 63.3407 68.5611C66.0411 67.5631 69.7937 66.9392 73.9548 66.9392C78.1159 66.9392 81.8685 67.5631 84.5689 68.5611C85.9204 69.0605 86.991 69.6474 87.7178 70.2824C88.4452 70.9179 88.7973 71.5725 88.7973 72.2165Z" fill="#D9C5FF" stroke="#1A237E" stroke-width="0.659666"/>
<rect x="59.4421" y="65.9497" width="29.0253" height="6.59666" fill="#D9C5FF"/>
<path d="M88.7973 66.9397C88.7973 67.5837 88.4452 68.2383 87.7178 68.8739C86.991 69.5088 85.9204 70.0957 84.5689 70.5952C81.8685 71.5931 78.1159 72.217 73.9548 72.217C69.7937 72.217 66.0411 71.5931 63.3407 70.5952C61.9892 70.0957 60.9185 69.5088 60.1918 68.8739C59.4644 68.2383 59.1123 67.5837 59.1123 66.9397C59.1123 66.2956 59.4644 65.6411 60.1918 65.0055C60.9185 64.3705 61.9892 63.7837 63.3407 63.2842C66.0411 62.2862 69.7937 61.6624 73.9548 61.6624C78.1159 61.6624 81.8685 62.2862 84.5689 63.2842C85.9204 63.7837 86.991 64.3705 87.7178 65.0055C88.4452 65.6411 88.7973 66.2956 88.7973 66.9397Z" fill="#D9C5FF" stroke="#1A237E" stroke-width="0.659666"/>
<rect x="59.4421" y="60.6726" width="29.0253" height="6.59666" fill="#D9C5FF"/>
<path d="M88.7973 61.6618C88.7973 62.3059 88.4452 62.9604 87.7178 63.596C86.991 64.231 85.9204 64.8179 84.5689 65.3173C81.8685 66.3153 78.1159 66.9392 73.9548 66.9392C69.7937 66.9392 66.0411 66.3153 63.3407 65.3173C61.9892 64.8179 60.9185 64.231 60.1918 63.596C59.4644 62.9604 59.1123 62.3059 59.1123 61.6618C59.1123 61.0178 59.4644 60.3633 60.1918 59.7277C60.9185 59.0927 61.9892 58.5058 63.3407 58.0064C66.0411 57.0084 69.7937 56.3845 73.9548 56.3845C78.1159 56.3845 81.8685 57.0084 84.5689 58.0064C85.9204 58.5058 86.991 59.0927 87.7178 59.7277C88.4452 60.3633 88.7973 61.0178 88.7973 61.6618Z" fill="#D9C5FF" stroke="#1A237E" stroke-width="0.659666"/>
<rect x="59.4421" y="55.3948" width="29.0253" height="6.59666" fill="#D9C5FF"/>
<path d="M88.7973 56.3847C88.7973 57.0288 88.4452 57.6833 87.7178 58.3189C86.991 58.9539 85.9204 59.5408 84.5689 60.0402C81.8685 61.0382 78.1159 61.6621 73.9548 61.6621C69.7937 61.6621 66.0411 61.0382 63.3407 60.0402C61.9892 59.5408 60.9185 58.9539 60.1918 58.3189C59.4644 57.6833 59.1123 57.0288 59.1123 56.3847C59.1123 55.7407 59.4644 55.0862 60.1918 54.4506C60.9185 53.8156 61.9892 53.2287 63.3407 52.7293C66.0411 51.7313 69.7937 51.1074 73.9548 51.1074C78.1159 51.1074 81.8685 51.7313 84.5689 52.7293C85.9204 53.2287 86.991 53.8156 87.7178 54.4506C88.4452 55.0862 88.7973 55.7407 88.7973 56.3847Z" fill="#D9C5FF" stroke="#1A237E" stroke-width="0.659666"/>
<path d="M75.3713 55.7532C74.9716 55.6101 74.5467 55.5011 74.126 55.388C73.882 55.3227 73.6485 55.2464 73.4424 55.1401C73.0364 54.9303 73.1142 54.5897 73.5896 54.4548C73.7242 54.4166 73.8652 54.4044 74.0082 54.3989C74.5593 54.3799 75.0831 54.4452 75.5817 54.6006C75.8299 54.6782 75.9119 54.6537 75.996 54.4861C76.0844 54.309 76.158 54.1292 76.2401 53.9507C76.2947 53.8308 76.2274 53.7518 76.0528 53.7014C75.7331 53.6101 75.405 53.5447 75.06 53.5093C74.6098 53.4643 74.6098 53.4629 74.6077 53.17C74.6049 52.7776 74.6056 52.7572 73.9661 52.7572C73.8736 52.7572 73.781 52.7558 73.6885 52.7572C73.5779 52.7566 73.3393 52.7967 73.3309 52.9915C73.3267 53.0787 73.3309 53.1659 73.3288 53.2545C73.3267 53.5133 73.3246 53.5093 72.9417 53.5992C72.0162 53.8172 71.444 54.2259 71.383 54.8799C71.3283 55.4589 71.7953 55.8499 72.5294 56.1347C72.9817 56.3104 73.4823 56.414 73.9619 56.5516C74.1492 56.6047 74.328 56.666 74.4836 56.7505C74.9443 56.9971 74.8601 57.4072 74.3132 57.5625C74.0208 57.6456 73.7116 57.666 73.394 57.6401C72.9039 57.6006 72.4348 57.5175 71.993 57.369C71.7343 57.2818 71.6586 57.305 71.5702 57.4862C71.4945 57.6429 71.4272 57.8009 71.3599 57.959C71.2694 58.1715 71.3031 58.2219 71.6165 58.3214C72.0162 58.4467 72.4432 58.5107 72.8786 58.5557C73.2194 58.5911 73.2299 58.6007 73.2341 58.8295C73.2362 58.9331 73.2362 59.038 73.2383 59.1415C73.2404 59.2723 73.3372 59.3486 73.5454 59.3514C73.781 59.3541 74.0187 59.3541 74.2543 59.35C74.4479 59.3473 74.5467 59.2791 74.5467 59.1524C74.5467 59.0107 74.5572 58.8677 74.5488 58.726C74.5383 58.5816 74.6351 58.508 74.8496 58.4699C75.344 58.3827 75.7647 58.211 76.0886 57.9549C76.9889 57.2464 76.646 56.2096 75.3713 55.7532Z" fill="#1A237E"/>
<path d="M114.854 74.5256V100.912H85.1691V74.5256H114.854Z" fill="#D9C5FF"/>
<path d="M63.4002 74.5256V100.912H33.7152V74.5256H63.4002Z" fill="#D9C5FF"/>
<path d="M115.184 101.242V74.8555" stroke="#1A237E" stroke-width="0.659666"/>
<path d="M63.73 101.242V74.8555" stroke="#1A237E" stroke-width="0.659666"/>
<path d="M85.4989 101.242V74.8555" stroke="#1A237E" stroke-width="0.659666"/>
<path d="M34.045 101.242V74.8555" stroke="#1A237E" stroke-width="0.659666"/>
<path d="M115.184 101.242C115.184 101.886 114.832 102.541 114.104 103.176C113.378 103.811 112.307 104.398 110.956 104.898C108.255 105.896 104.502 106.52 100.341 106.52C96.1803 106.52 92.4277 105.896 89.7273 104.898C88.3758 104.398 87.3051 103.811 86.5784 103.176C85.851 102.541 85.4989 101.886 85.4989 101.242C85.4989 100.598 85.851 99.9436 86.5784 99.308C87.3051 98.673 88.3758 98.0862 89.7273 97.5867C92.4277 96.5887 96.1803 95.9648 100.341 95.9648C104.502 95.9648 108.255 96.5887 110.956 97.5867C112.307 98.0862 113.378 98.673 114.104 99.308C114.832 99.9436 115.184 100.598 115.184 101.242Z" fill="#D9C5FF" stroke="#1A237E" stroke-width="0.659666"/>
<path d="M63.73 101.242C63.73 101.886 63.3779 102.541 62.6505 103.176C61.9238 103.811 60.8531 104.398 59.5016 104.898C56.8012 105.896 53.0486 106.52 48.8875 106.52C44.7264 106.52 40.9738 105.896 38.2734 104.898C36.9219 104.398 35.8513 103.811 35.1245 103.176C34.3971 102.541 34.045 101.886 34.045 101.242C34.045 100.598 34.3971 99.9436 35.1245 99.308C35.8513 98.673 36.9219 98.0862 38.2734 97.5867C40.9738 96.5887 44.7264 95.9648 48.8875 95.9648C53.0486 95.9648 56.8012 96.5887 59.5016 97.5867C60.8531 98.0862 61.9238 98.673 62.6505 99.308C63.3779 99.9436 63.73 100.598 63.73 101.242Z" fill="#D9C5FF" stroke="#1A237E" stroke-width="0.659666"/>
<rect x="85.8289" y="94.9753" width="29.0253" height="6.59666" fill="#D9C5FF"/>
<rect x="34.3749" y="94.9753" width="29.0253" height="6.59666" fill="#D9C5FF"/>
<path d="M115.184 95.9646C115.184 96.6086 114.832 97.2632 114.104 97.8988C113.378 98.5337 112.307 99.1206 110.956 99.6201C108.255 100.618 104.502 101.242 100.341 101.242C96.1803 101.242 92.4277 100.618 89.7273 99.6201C88.3758 99.1206 87.3051 98.5337 86.5784 97.8988C85.851 97.2632 85.4989 96.6086 85.4989 95.9646C85.4989 95.3205 85.851 94.666 86.5784 94.0304C87.3051 93.3954 88.3758 92.8086 89.7273 92.3091C92.4277 91.3111 96.1803 90.6873 100.341 90.6873C104.502 90.6873 108.255 91.3111 110.956 92.3091C112.307 92.8086 113.378 93.3954 114.104 94.0304C114.832 94.666 115.184 95.3205 115.184 95.9646Z" fill="#D9C5FF" stroke="#1A237E" stroke-width="0.659666"/>
<path d="M63.73 95.9646C63.73 96.6086 63.3779 97.2632 62.6505 97.8988C61.9238 98.5337 60.8531 99.1206 59.5016 99.6201C56.8012 100.618 53.0486 101.242 48.8875 101.242C44.7264 101.242 40.9738 100.618 38.2734 99.6201C36.9219 99.1206 35.8513 98.5337 35.1245 97.8988C34.3971 97.2632 34.045 96.6086 34.045 95.9646C34.045 95.3205 34.3971 94.666 35.1245 94.0304C35.8513 93.3954 36.9219 92.8086 38.2734 92.3091C40.9738 91.3111 44.7264 90.6873 48.8875 90.6873C53.0486 90.6873 56.8012 91.3111 59.5016 92.3091C60.8531 92.8086 61.9238 93.3954 62.6505 94.0304C63.3779 94.666 63.73 95.3205 63.73 95.9646Z" fill="#D9C5FF" stroke="#1A237E" stroke-width="0.659666"/>
<rect x="85.8289" y="89.6978" width="29.0253" height="6.59666" fill="#D9C5FF"/>
<rect x="34.3749" y="89.6978" width="29.0253" height="6.59666" fill="#D9C5FF"/>
<path d="M115.184 90.6875C115.184 91.3315 114.832 91.9861 114.104 92.6217C113.378 93.2566 112.307 93.8435 110.956 94.343C108.255 95.3409 104.502 95.9648 100.341 95.9648C96.1803 95.9648 92.4277 95.3409 89.7273 94.343C88.3758 93.8435 87.3051 93.2566 86.5784 92.6217C85.851 91.9861 85.4989 91.3315 85.4989 90.6875C85.4989 90.0434 85.851 89.3889 86.5784 88.7533C87.3051 88.1183 88.3758 87.5315 89.7273 87.032C92.4277 86.034 96.1803 85.4102 100.341 85.4102C104.502 85.4102 108.255 86.034 110.956 87.032C112.307 87.5315 113.378 88.1183 114.104 88.7533C114.832 89.3889 115.184 90.0434 115.184 90.6875Z" fill="#D9C5FF" stroke="#1A237E" stroke-width="0.659666"/>
<rect x="85.8287" y="84.4207" width="29.0253" height="6.59666" fill="#D9C5FF"/>
<path d="M63.73 90.6875C63.73 91.3315 63.3779 91.9861 62.6505 92.6217C61.9238 93.2566 60.8531 93.8435 59.5016 94.343C56.8012 95.3409 53.0486 95.9648 48.8875 95.9648C44.7264 95.9648 40.9738 95.3409 38.2734 94.343C36.9219 93.8435 35.8513 93.2566 35.1245 92.6217C34.3971 91.9861 34.045 91.3315 34.045 90.6875C34.045 90.0434 34.3971 89.3889 35.1245 88.7533C35.8513 88.1183 36.9219 87.5315 38.2734 87.032C40.9738 86.034 44.7264 85.4102 48.8875 85.4102C53.0486 85.4102 56.8012 86.034 59.5016 87.032C60.8531 87.5315 61.9238 88.1183 62.6505 88.7533C63.3779 89.3889 63.73 90.0434 63.73 90.6875Z" fill="#D9C5FF" stroke="#1A237E" stroke-width="0.659666"/>
<rect x="34.3749" y="84.4207" width="29.0253" height="6.59666" fill="#D9C5FF"/>
<path d="M115.184 85.4101C115.184 86.0542 114.832 86.7087 114.104 87.3443C113.378 87.9793 112.307 88.5662 110.956 89.0656C108.255 90.0636 104.503 90.6875 100.342 90.6875C96.1804 90.6875 92.4278 90.0636 89.7274 89.0656C88.3759 88.5662 87.3053 87.9793 86.5785 87.3443C85.8511 86.7087 85.499 86.0542 85.499 85.4101C85.499 84.7661 85.8511 84.1115 86.5785 83.476C87.3053 82.841 88.3759 82.2541 89.7274 81.7547C92.4278 80.7567 96.1804 80.1328 100.342 80.1328C104.503 80.1328 108.255 80.7567 110.956 81.7547C112.307 82.2541 113.378 82.841 114.104 83.476C114.832 84.1115 115.184 84.7661 115.184 85.4101Z" fill="#D9C5FF" stroke="#1A237E" stroke-width="0.659666"/>
<rect x="85.8289" y="79.1433" width="29.0253" height="6.59666" fill="#D9C5FF"/>
<path d="M63.73 85.4101C63.73 86.0542 63.3779 86.7087 62.6505 87.3443C61.9238 87.9793 60.8531 88.5662 59.5016 89.0656C56.8012 90.0636 53.0486 90.6875 48.8875 90.6875C44.7264 90.6875 40.9738 90.0636 38.2734 89.0656C36.9219 88.5662 35.8513 87.9793 35.1245 87.3443C34.3971 86.7087 34.045 86.0542 34.045 85.4101C34.045 84.7661 34.3971 84.1115 35.1245 83.476C35.8513 82.841 36.9219 82.2541 38.2734 81.7547C40.9738 80.7567 44.7264 80.1328 48.8875 80.1328C53.0486 80.1328 56.8012 80.7567 59.5016 81.7547C60.8531 82.2541 61.9238 82.841 62.6505 83.476C63.3779 84.1115 63.73 84.7661 63.73 85.4101Z" fill="#D9C5FF" stroke="#1A237E" stroke-width="0.659666"/>
<rect x="34.3749" y="79.1433" width="29.0253" height="6.59666" fill="#D9C5FF"/>
<path d="M115.184 80.1328C115.184 80.7769 114.832 81.4314 114.104 82.067C113.378 82.702 112.307 83.2888 110.956 83.7883C108.255 84.7863 104.502 85.4101 100.341 85.4101C96.1803 85.4101 92.4277 84.7863 89.7273 83.7883C88.3758 83.2888 87.3051 82.702 86.5784 82.067C85.851 81.4314 85.4989 80.7769 85.4989 80.1328C85.4989 79.4887 85.851 78.8342 86.5784 78.1986C87.3051 77.5636 88.3758 76.9768 89.7273 76.4773C92.4277 75.4793 96.1803 74.8555 100.341 74.8555C104.502 74.8555 108.255 75.4793 110.956 76.4773C112.307 76.9768 113.378 77.5636 114.104 78.1986C114.832 78.8342 115.184 79.4887 115.184 80.1328Z" fill="#D9C5FF" stroke="#1A237E" stroke-width="0.659666"/>
<rect x="85.8287" y="73.866" width="29.0253" height="6.59666" fill="#D9C5FF"/>
<path d="M63.73 80.1328C63.73 80.7769 63.3779 81.4314 62.6505 82.067C61.9238 82.702 60.8531 83.2888 59.5016 83.7883C56.8012 84.7863 53.0486 85.4101 48.8875 85.4101C44.7264 85.4101 40.9738 84.7863 38.2734 83.7883C36.9219 83.2888 35.8513 82.702 35.1245 82.067C34.3971 81.4314 34.045 80.7769 34.045 80.1328C34.045 79.4887 34.3971 78.8342 35.1245 78.1986C35.8513 77.5636 36.9219 76.9768 38.2734 76.4773C40.9738 75.4793 44.7264 74.8555 48.8875 74.8555C53.0486 74.8555 56.8012 75.4793 59.5016 76.4773C60.8531 76.9768 61.9238 77.5636 62.6505 78.1986C63.3779 78.8342 63.73 79.4887 63.73 80.1328Z" fill="#D9C5FF" stroke="#1A237E" stroke-width="0.659666"/>
<rect x="34.3749" y="73.866" width="29.0253" height="6.59666" fill="#D9C5FF"/>
<path d="M115.184 74.8552C115.184 75.4993 114.832 76.1538 114.104 76.7894C113.378 77.4244 112.307 78.0112 110.956 78.5107C108.255 79.5087 104.502 80.1325 100.341 80.1325C96.1803 80.1325 92.4277 79.5087 89.7273 78.5107C88.3758 78.0112 87.3051 77.4244 86.5784 76.7894C85.851 76.1538 85.4989 75.4993 85.4989 74.8552C85.4989 74.2112 85.851 73.5566 86.5784 72.921C87.3051 72.286 88.3758 71.6992 89.7273 71.1997C92.4277 70.2017 96.1803 69.5779 100.341 69.5779C104.502 69.5779 108.255 70.2017 110.956 71.1997C112.307 71.6992 113.378 72.286 114.104 72.921C114.832 73.5566 115.184 74.2112 115.184 74.8552Z" fill="#D9C5FF" stroke="#1A237E" stroke-width="0.659666"/>
<path d="M63.73 74.8552C63.73 75.4993 63.3779 76.1538 62.6505 76.7894C61.9238 77.4244 60.8531 78.0112 59.5016 78.5107C56.8012 79.5087 53.0486 80.1325 48.8875 80.1325C44.7264 80.1325 40.9738 79.5087 38.2734 78.5107C36.9219 78.0112 35.8513 77.4244 35.1245 76.7894C34.3971 76.1538 34.045 75.4993 34.045 74.8552C34.045 74.2112 34.3971 73.5566 35.1245 72.921C35.8513 72.286 36.9219 71.6992 38.2734 71.1997C40.9738 70.2017 44.7264 69.5779 48.8875 69.5779C53.0486 69.5779 56.8012 70.2017 59.5016 71.1997C60.8531 71.6992 61.9238 72.286 62.6505 72.921C63.3779 73.5566 63.73 74.2112 63.73 74.8552Z" fill="#D9C5FF" stroke="#1A237E" stroke-width="0.659666"/>
<path d="M101.758 74.2236C101.358 74.0806 100.933 73.9716 100.513 73.8585C100.269 73.7931 100.035 73.7168 99.829 73.6105C99.423 73.4007 99.5008 73.0601 99.9762 72.9252C100.111 72.8871 100.252 72.8748 100.395 72.8694C100.946 72.8503 101.47 72.9157 101.968 73.071C102.216 73.1487 102.299 73.1242 102.383 72.9566C102.471 72.7795 102.545 72.5996 102.627 72.4211C102.681 72.3013 102.614 72.2222 102.439 72.1718C102.12 72.0805 101.792 72.0151 101.447 71.9797C100.996 71.9348 100.996 71.9334 100.994 71.6405C100.991 71.248 100.992 71.2277 100.353 71.2277C100.26 71.2277 100.168 71.2263 100.075 71.2277C99.9645 71.2271 99.7259 71.2672 99.7175 71.462C99.7133 71.5492 99.7175 71.6364 99.7154 71.7249C99.7133 71.9838 99.7112 71.9797 99.3283 72.0696C98.4028 72.2876 97.8306 72.6964 97.7696 73.3503C97.7149 73.9294 98.1819 74.3204 98.916 74.6051C99.3683 74.7809 99.8689 74.8844 100.349 75.022C100.536 75.0752 100.715 75.1365 100.87 75.2209C101.331 75.4675 101.247 75.8776 100.7 76.0329C100.407 76.1161 100.098 76.1365 99.7806 76.1106C99.2905 76.0711 98.8214 75.988 98.3796 75.8395C98.1209 75.7523 98.0452 75.7754 97.9568 75.9566C97.8811 76.1133 97.8138 76.2714 97.7465 76.4294C97.656 76.642 97.6897 76.6924 98.0031 76.7918C98.4028 76.9172 98.8298 76.9812 99.2652 77.0262C99.606 77.0616 99.6165 77.0711 99.6207 77.3C99.6228 77.4035 99.6228 77.5085 99.6249 77.612C99.627 77.7428 99.7238 77.8191 99.932 77.8218C100.168 77.8245 100.405 77.8245 100.641 77.8205C100.834 77.8177 100.933 77.7496 100.933 77.6229C100.933 77.4812 100.944 77.3382 100.935 77.1965C100.925 77.052 101.022 76.9785 101.236 76.9403C101.731 76.8531 102.151 76.6815 102.475 76.4253C103.376 75.7169 103.033 74.6801 101.758 74.2236Z" fill="#1A237E"/>
<path d="M50.3039 74.2236C49.9042 74.0806 49.4793 73.9716 49.0586 73.8585C48.8146 73.7931 48.5811 73.7168 48.375 73.6105C47.969 73.4007 48.0468 73.0601 48.5222 72.9252C48.6569 72.8871 48.7978 72.8748 48.9408 72.8694C49.492 72.8503 50.0157 72.9157 50.5143 73.071C50.7625 73.1487 50.8445 73.1242 50.9287 72.9566C51.017 72.7795 51.0906 72.5996 51.1727 72.4211C51.2274 72.3013 51.1601 72.2222 50.9855 72.1718C50.6657 72.0805 50.3376 72.0151 49.9926 71.9797C49.5424 71.9348 49.5424 71.9334 49.5403 71.6405C49.5375 71.248 49.5382 71.2277 48.8988 71.2277C48.8062 71.2277 48.7137 71.2263 48.6211 71.2277C48.5105 71.2271 48.2719 71.2672 48.2635 71.462C48.2593 71.5492 48.2635 71.6364 48.2614 71.7249C48.2593 71.9838 48.2572 71.9797 47.8743 72.0696C46.9488 72.2876 46.3766 72.6964 46.3156 73.3503C46.2609 73.9294 46.7279 74.3204 47.4621 74.6051C47.9143 74.7809 48.4149 74.8844 48.8946 75.022C49.0818 75.0752 49.2606 75.1365 49.4162 75.2209C49.8769 75.4675 49.7928 75.8776 49.2458 76.0329C48.9535 76.1161 48.6442 76.1365 48.3266 76.1106C47.8365 76.0711 47.3674 75.988 46.9257 75.8395C46.6669 75.7523 46.5912 75.7754 46.5028 75.9566C46.4271 76.1133 46.3598 76.2714 46.2925 76.4294C46.202 76.642 46.2357 76.6924 46.5491 76.7918C46.9488 76.9172 47.3758 76.9812 47.8112 77.0262C48.152 77.0616 48.1625 77.0711 48.1667 77.3C48.1688 77.4035 48.1688 77.5085 48.1709 77.612C48.173 77.7428 48.2698 77.8191 48.4781 77.8218C48.7137 77.8245 48.9513 77.8245 49.1869 77.8205C49.3805 77.8177 49.4793 77.7496 49.4793 77.6229C49.4793 77.4812 49.4899 77.3382 49.4814 77.1965C49.4709 77.052 49.5677 76.9785 49.7822 76.9403C50.2766 76.8531 50.6973 76.6815 51.0212 76.4253C51.9215 75.7169 51.5787 74.6801 50.3039 74.2236Z" fill="#1A237E"/>
<path d="M91.1061 92.3364V107.509H61.4211V92.3364H91.1061Z" fill="#D9C5FF"/>
<path d="M91.436 107.839V92.0066" stroke="#1A237E" stroke-width="0.659666"/>
<path d="M61.751 107.839V92.0066" stroke="#1A237E" stroke-width="0.659666"/>
<path d="M91.436 107.839C91.436 108.483 91.0839 109.137 90.3564 109.773C89.6297 110.408 88.5591 110.995 87.2076 111.494C84.5072 112.492 80.7546 113.116 76.5935 113.116C72.4324 113.116 68.6798 112.492 65.9793 111.494C64.6279 110.995 63.5572 110.408 62.8305 109.773C62.1031 109.137 61.751 108.483 61.751 107.839C61.751 107.195 62.1031 106.54 62.8305 105.904C63.5572 105.269 64.6279 104.683 65.9793 104.183C68.6798 103.185 72.4324 102.561 76.5935 102.561C80.7546 102.561 84.5072 103.185 87.2076 104.183C88.5591 104.683 89.6297 105.269 90.3564 105.904C91.0839 106.54 91.436 107.195 91.436 107.839Z" fill="#D9C5FF" stroke="#1A237E" stroke-width="0.659666"/>
<rect x="62.0808" y="101.572" width="29.0253" height="6.59666" fill="#D9C5FF"/>
<path d="M91.436 102.561C91.436 103.205 91.0839 103.86 90.3564 104.495C89.6297 105.13 88.5591 105.717 87.2076 106.217C84.5072 107.215 80.7546 107.839 76.5935 107.839C72.4324 107.839 68.6798 107.215 65.9793 106.217C64.6279 105.717 63.5572 105.13 62.8305 104.495C62.1031 103.86 61.751 103.205 61.751 102.561C61.751 101.917 62.1031 101.263 62.8305 100.627C63.5572 99.9921 64.6279 99.4052 65.9793 98.9058C68.6798 97.9078 72.4324 97.2839 76.5935 97.2839C80.7546 97.2839 84.5072 97.9078 87.2076 98.9058C88.5591 99.4052 89.6297 99.9921 90.3564 100.627C91.0839 101.263 91.436 101.917 91.436 102.561Z" fill="#D9C5FF" stroke="#1A237E" stroke-width="0.659666"/>
<rect x="62.0808" y="96.2947" width="29.0253" height="6.59666" fill="#D9C5FF"/>
<path d="M91.436 97.2839C91.436 97.928 91.0839 98.5825 90.3564 99.2181C89.6297 99.8531 88.5591 100.44 87.2076 100.939C84.5072 101.937 80.7546 102.561 76.5935 102.561C72.4324 102.561 68.6798 101.937 65.9793 100.939C64.6279 100.44 63.5572 99.8531 62.8305 99.2181C62.1031 98.5825 61.751 97.928 61.751 97.2839C61.751 96.6399 62.1031 95.9853 62.8305 95.3497C63.5572 94.7148 64.6279 94.1279 65.9793 93.6284C68.6798 92.6305 72.4324 92.0066 76.5935 92.0066C80.7546 92.0066 84.5072 92.6305 87.2076 93.6284C88.5591 94.1279 89.6297 94.7148 90.3564 95.3497C91.0839 95.9853 91.436 96.6399 91.436 97.2839Z" fill="#D9C5FF" stroke="#1A237E" stroke-width="0.659666"/>
<rect x="62.0808" y="91.0171" width="29.0253" height="6.59666" fill="#D9C5FF"/>
<path d="M91.436 92.0068C91.436 92.6509 91.0839 93.3054 90.3564 93.941C89.6297 94.576 88.5591 95.1628 87.2076 95.6623C84.5072 96.6603 80.7546 97.2841 76.5935 97.2841C72.4324 97.2841 68.6798 96.6603 65.9793 95.6623C64.6279 95.1628 63.5572 94.576 62.8305 93.941C62.1031 93.3054 61.751 92.6509 61.751 92.0068C61.751 91.3628 62.1031 90.7082 62.8305 90.0726C63.5572 89.4377 64.6279 88.8508 65.9793 88.3513C68.6798 87.3534 72.4324 86.7295 76.5935 86.7295C80.7546 86.7295 84.5072 87.3534 87.2076 88.3513C88.5591 88.8508 89.6297 89.4377 90.3564 90.0726C91.0839 90.7082 91.436 91.3628 91.436 92.0068Z" fill="#D9C5FF" stroke="#1A237E" stroke-width="0.659666"/>
<path d="M78.01 91.375C77.6103 91.232 77.1854 91.123 76.7647 91.0099C76.5207 90.9445 76.2872 90.8682 76.081 90.7619C75.6751 90.5521 75.7529 90.2115 76.2283 90.0766C76.3629 90.0385 76.5038 90.0262 76.6469 90.0208C77.198 90.0017 77.7218 90.0671 78.2203 90.2224C78.4685 90.3 78.5506 90.2755 78.6347 90.1079C78.7231 89.9308 78.7967 89.751 78.8787 89.5725C78.9334 89.4526 78.8661 89.3736 78.6915 89.3232C78.3718 89.2319 78.0436 89.1665 77.6987 89.1311C77.2485 89.0861 77.2485 89.0848 77.2464 88.7918C77.2436 88.3994 77.2443 88.379 76.6048 88.379C76.5123 88.379 76.4197 88.3777 76.3272 88.379C76.2165 88.3784 75.978 88.4185 75.9696 88.6134C75.9653 88.7006 75.9696 88.7878 75.9674 88.8763C75.9653 89.1352 75.9632 89.1311 75.5804 89.221C74.6548 89.439 74.0827 89.8477 74.0217 90.5017C73.967 91.0807 74.434 91.4717 75.1681 91.7565C75.6204 91.9322 76.121 92.0358 76.6006 92.1734C76.7878 92.2265 76.9666 92.2878 77.1223 92.3723C77.583 92.6189 77.4988 93.029 76.9519 93.1843C76.6595 93.2674 76.3503 93.2879 76.0327 93.262C75.5425 93.2225 75.0734 93.1394 74.6317 92.9908C74.373 92.9037 74.2972 92.9268 74.2089 93.108C74.1332 93.2647 74.0659 93.4227 73.9985 93.5808C73.9081 93.7933 73.9418 93.8437 74.2552 93.9432C74.6548 94.0685 75.0819 94.1326 75.5173 94.1775C75.8581 94.2129 75.8686 94.2225 75.8728 94.4514C75.8749 94.5549 75.8749 94.6598 75.877 94.7634C75.8791 94.8942 75.9759 94.9705 76.1841 94.9732C76.4197 94.9759 76.6574 94.9759 76.893 94.9718C77.0865 94.9691 77.1854 94.901 77.1854 94.7743C77.1854 94.6326 77.1959 94.4895 77.1875 94.3478C77.177 94.2034 77.2737 94.1298 77.4883 94.0917C77.9826 94.0045 78.4033 93.8328 78.7273 93.5767C79.6276 92.8682 79.2847 91.8314 78.01 91.375Z" fill="#1A237E"/>
<path d="M166.485 116.539H114.677C114.253 116.539 113.847 116.371 113.548 116.071C113.249 115.772 113.08 115.367 113.08 114.945V44.661C113.08 44.2384 113.249 43.8332 113.548 43.5343C113.847 43.2353 114.253 43.0669 114.676 43.0663H166.486C166.909 43.0669 167.315 43.2353 167.614 43.5343C167.914 43.8333 168.082 44.2387 168.082 44.6614V114.944C168.082 115.367 167.914 115.772 167.614 116.071C167.315 116.371 166.909 116.539 166.485 116.539Z" fill="white" stroke="#1A237E" stroke-width="1.72884"/>
<path d="M166.486 117.404H114.676C114.023 117.403 113.398 117.144 112.937 116.683C112.476 116.222 112.216 115.597 112.215 114.945V44.6604C112.216 44.0086 112.476 43.3837 112.937 42.9228C113.398 42.4619 114.023 42.2026 114.676 42.2019H166.486C167.139 42.2026 167.764 42.4619 168.225 42.9228C168.687 43.3837 168.946 44.0086 168.947 44.6604V114.945C168.946 115.597 168.687 116.222 168.225 116.683C167.764 117.144 167.139 117.403 166.486 117.404ZM114.676 42.4911C114.1 42.4918 113.548 42.7206 113.141 43.1272C112.734 43.5339 112.506 44.0853 112.505 44.6604V114.945C112.506 115.52 112.734 116.072 113.141 116.479C113.548 116.885 114.1 117.114 114.676 117.115H166.486C167.062 117.114 167.614 116.885 168.021 116.479C168.428 116.072 168.657 115.52 168.657 114.945V44.6604C168.657 44.0853 168.428 43.5339 168.021 43.1272C167.614 42.7206 167.062 42.4918 166.486 42.4911H114.676Z" fill="#1A237E"/>
<path d="M155.946 60.0127H141.708C141.409 60.0127 141.122 59.9084 140.911 59.7229C140.7 59.5373 140.581 59.2856 140.581 59.0232C140.581 58.7608 140.7 58.5091 140.911 58.3235C141.122 58.1379 141.409 58.0337 141.708 58.0337H155.946C156.245 58.0337 156.532 58.1379 156.743 58.3235C156.954 58.5091 157.073 58.7608 157.073 59.0232C157.073 59.2856 156.954 59.5373 156.743 59.7229C156.532 59.9084 156.245 60.0127 155.946 60.0127Z" fill="#162FBD"/>
<path d="M161.198 64.2379H142.045C141.742 64.2379 141.452 64.1286 141.238 63.9341C141.023 63.7396 140.903 63.4757 140.903 63.2006C140.903 62.9255 141.023 62.6617 141.238 62.4671C141.452 62.2726 141.742 62.1633 142.045 62.1633H161.198C161.501 62.1633 161.792 62.2726 162.006 62.4671C162.22 62.6617 162.341 62.9255 162.341 63.2006C162.341 63.4757 162.22 63.7396 162.006 63.9341C161.792 64.1286 161.501 64.2379 161.198 64.2379Z" fill="#162FBD"/>
<path d="M155.91 79.803H119.315C119.007 79.803 118.711 79.664 118.493 79.4165C118.275 79.1691 118.152 78.8335 118.152 78.4836C118.152 78.1337 118.275 77.7982 118.493 77.5507C118.711 77.3033 119.007 77.1643 119.315 77.1643H155.91C156.219 77.1643 156.514 77.3033 156.732 77.5507C156.95 77.7982 157.073 78.1337 157.073 78.4836C157.073 78.8335 156.95 79.1691 156.732 79.4165C156.514 79.664 156.219 79.803 155.91 79.803Z" fill="#CCCCCC"/>
<path d="M161.175 83.1013H119.328C119.016 83.1013 118.717 82.9971 118.497 82.8115C118.276 82.6259 118.152 82.3742 118.152 82.1118C118.152 81.8494 118.276 81.5977 118.497 81.4121C118.717 81.2266 119.016 81.1223 119.328 81.1223H161.175C161.487 81.1223 161.785 81.2266 162.006 81.4121C162.226 81.5977 162.35 81.8494 162.35 82.1118C162.35 82.3742 162.226 82.6259 162.006 82.8115C161.785 82.9971 161.487 83.1013 161.175 83.1013Z" fill="#CCCCCC"/>
<path d="M155.91 92.3364H119.313C119.005 92.3361 118.71 92.2317 118.492 92.0462C118.275 91.8606 118.152 91.6091 118.152 91.3469C118.152 91.0847 118.275 90.8332 118.492 90.6477C118.71 90.4621 119.005 90.3577 119.313 90.3574H155.91C156.219 90.3574 156.514 90.4617 156.732 90.6472C156.95 90.8328 157.073 91.0845 157.073 91.3469C157.073 91.6093 156.95 91.861 156.732 92.0466C156.514 92.2322 156.219 92.3364 155.91 92.3364Z" fill="#CCCCCC"/>
<path d="M161.175 96.2947H119.326C119.015 96.2942 118.716 96.155 118.496 95.9077C118.276 95.6603 118.152 95.325 118.152 94.9753C118.152 94.6257 118.276 94.2904 118.496 94.043C118.716 93.7956 119.015 93.6564 119.326 93.656H161.175C161.487 93.656 161.785 93.795 162.006 94.0424C162.226 94.2899 162.35 94.6254 162.35 94.9753C162.35 95.3252 162.226 95.6608 162.006 95.9083C161.785 96.1557 161.487 96.2947 161.175 96.2947Z" fill="#CCCCCC"/>
<path d="M155.91 105.53H119.315C119.007 105.53 118.711 105.391 118.493 105.144C118.275 104.896 118.152 104.561 118.152 104.211C118.152 103.861 118.275 103.525 118.493 103.278C118.711 103.03 119.007 102.891 119.315 102.891H155.91C156.219 102.891 156.514 103.03 156.732 103.278C156.95 103.525 157.073 103.861 157.073 104.211C157.073 104.561 156.95 104.896 156.732 105.144C156.514 105.391 156.219 105.53 155.91 105.53Z" fill="#CCCCCC"/>
<path d="M161.175 108.828H119.328C119.016 108.828 118.717 108.724 118.497 108.539C118.276 108.353 118.152 108.101 118.152 107.839C118.152 107.576 118.276 107.325 118.497 107.139C118.717 106.954 119.016 106.849 119.328 106.849H161.175C161.487 106.849 161.785 106.954 162.006 107.139C162.226 107.325 162.35 107.576 162.35 107.839C162.35 108.101 162.226 108.353 162.006 108.539C161.785 108.724 161.487 108.828 161.175 108.828Z" fill="#CCCCCC"/>
<path d="M164.018 96.2947C162.327 96.2927 160.652 96.6326 159.089 97.2947C157.526 97.9569 156.106 98.9284 154.91 100.154C153.713 101.379 152.764 102.834 152.117 104.436C151.469 106.037 151.136 107.754 151.136 109.488C151.136 111.222 151.469 112.939 152.116 114.54C152.764 116.142 153.713 117.597 154.91 118.822C156.106 120.048 157.526 121.019 159.089 121.681C160.652 122.343 162.327 122.683 164.018 122.681H164.018C167.426 122.675 170.694 121.282 173.102 118.809C175.51 116.335 176.863 112.983 176.863 109.488C176.863 105.993 175.51 102.641 173.102 100.167C170.694 97.6936 167.426 96.3009 164.018 96.2947Z" fill="#11E6C1"/>
<path d="M162.462 115.425C162.103 115.425 161.753 115.312 161.465 115.101L161.448 115.088L157.693 112.281C157.342 112.018 157.113 111.629 157.055 111.201C156.997 110.772 157.116 110.339 157.385 109.996C157.654 109.653 158.052 109.428 158.49 109.372C158.929 109.315 159.372 109.431 159.723 109.693L162.155 111.516L167.902 104.189C168.035 104.019 168.201 103.877 168.391 103.769C168.581 103.662 168.79 103.593 169.007 103.565C169.224 103.537 169.445 103.551 169.656 103.606C169.868 103.661 170.066 103.757 170.24 103.887L170.24 103.887L170.241 103.888L170.205 103.936L170.242 103.888C170.592 104.151 170.822 104.539 170.88 104.968C170.937 105.396 170.819 105.83 170.55 106.173L163.791 114.787C163.634 114.985 163.433 115.146 163.203 115.256C162.973 115.367 162.72 115.424 162.464 115.423L162.462 115.425Z" fill="white"/>
<circle cx="127.418" cy="60.3899" r="9.12354" fill="#11E6C1" stroke="#1A237E" stroke-width="0.42435"/>
<mask id="mask0" mask-type="alpha" maskUnits="userSpaceOnUse" x="118" y="51" width="19" height="19">
<circle cx="127.418" cy="60.3899" r="9.12354" fill="#11E6C1" stroke="#1A237E" stroke-width="0.42435"/>
</mask>
<g mask="url(#mask0)">
<path d="M130.176 66.7549C129.328 66.5852 128.974 66.2599 128.903 66.1184H126.569C126.216 66.3306 125.339 66.7549 124.66 66.7549C123.811 66.7549 122.326 66.9671 122.326 68.4523L123.599 69.7254H130.176C131.025 69.5132 132.722 68.8767 132.722 68.028C132.722 66.9671 131.237 66.9671 130.176 66.7549Z" fill="#00816A"/>
</g>
<circle cx="127.418" cy="60.3899" r="9.12354" stroke="#1A237E" stroke-width="0.42435"/>
<g clip-path="url(#clip0)">
<path d="M129.077 64.3682L129.031 65.2447L128.974 66.3417C128.974 66.3417 128.758 66.7556 127.787 66.7556C126.814 66.7556 126.616 66.4737 126.616 66.4737L126.577 65.9875L126.446 64.37H129.077V64.3682Z" fill="white"/>
<path d="M129.115 64.209L129.07 65.1123C128.678 65.4289 127.623 66.0815 126.569 65.9064L126.357 64.209H129.115Z" fill="#00816A"/>
<path d="M124.786 60.3845C124.786 60.3845 124.042 59.6471 123.447 60.1278C122.746 60.6971 123.48 62.743 124.725 62.5261L124.786 60.3845Z" fill="white"/>
<path d="M130.474 60.3845C130.474 60.3845 131.218 59.6471 131.813 60.1278C132.514 60.6971 131.781 62.743 130.535 62.5261L130.474 60.3845Z" fill="white"/>
<path d="M127.667 65.228C125.095 65.228 124.301 62.1358 124.065 59.8712C123.847 57.7838 125.448 55.9422 127.52 55.9187C127.547 55.9187 127.576 55.9187 127.604 55.9187C127.638 55.9187 127.674 55.9187 127.708 55.9187C129.755 55.9458 131.35 57.7368 131.174 59.8026C130.976 62.0978 130.237 65.228 127.667 65.228Z" fill="white"/>
<path d="M130.965 54.3083C132.27 55.212 131.09 56.9741 131.09 56.9741C131.09 56.9741 132.389 58.2609 131.052 61.2935L130.815 61.2447C130.967 60.2742 130.876 59.0922 130.815 58.9061C130.635 58.3512 129.675 58.0566 129.723 57.4566C129.723 57.4566 126.78 58.3892 125.186 57.4729C125.186 57.4729 125.061 58.241 124.624 58.7253C124.258 59.1302 124.467 60.5416 124.513 61.1525L124.269 61.176C124.124 60.5543 123.771 59.4338 123.731 59.1049C123.708 58.897 123.621 58.0729 123.583 57.4819C123.551 56.965 123.642 56.4445 123.872 55.9837C124.001 55.7288 124.177 55.4722 124.422 55.2879C125.277 54.6427 129.782 53.4878 130.965 54.3083Z" fill="#00816A"/>
</g>
<path d="M83.8274 24.197C85.4846 24.3011 87.0935 24.7953 88.5221 25.6391C89.9507 26.4829 91.1585 27.6523 92.0463 29.0515C92.2952 29.4481 92.62 29.884 92.4477 30.3722C92.3877 30.5594 92.2658 30.7207 92.1019 30.8299C91.938 30.939 91.7418 30.9895 91.5454 30.9731C91.3006 30.9205 91.0798 30.7891 90.9173 30.5991C90.7548 30.409 90.6594 30.1709 90.646 29.9215C90.6326 29.6721 90.7019 29.4253 90.8431 29.219C90.9844 29.0127 91.1898 28.8585 91.4276 28.7802C92.577 28.2913 93.7365 29.0468 94.6728 29.6498C96.806 31.0237 99.1524 32.2662 101.737 32.4228C104.129 32.5676 106.694 31.6325 108.024 29.5645C108.257 29.2027 107.679 28.8683 107.447 29.2283C106.128 31.2793 103.461 32.016 101.142 31.699C99.7599 31.4815 98.4255 31.0298 97.1964 30.3633C96.559 30.0335 95.9409 29.6678 95.3352 29.2835C94.7588 28.8825 94.1479 28.5333 93.5096 28.24C92.4452 27.8039 91.036 27.838 90.2924 28.8419C89.5987 29.7784 90.1348 31.3376 91.2951 31.6009C91.5496 31.651 91.8126 31.6372 92.0604 31.561C92.3083 31.4847 92.5334 31.3483 92.7154 31.164C92.8974 30.9797 93.0307 30.7532 93.1033 30.5049C93.176 30.2566 93.1857 29.9941 93.1316 29.7412C93.0158 29.1896 92.5993 28.6499 92.2769 28.1991C91.3083 26.8404 90.0464 25.7157 88.5841 24.9078C87.1217 24.0999 85.4963 23.6294 83.8274 23.531C83.3978 23.5098 83.3989 24.1758 83.8274 24.197L83.8274 24.197Z" fill="#11E6C1"/>
<path d="M192.404 66.192C191.293 65.4792 190.368 64.5141 189.704 63.3759C189.04 62.2377 188.656 60.9587 188.583 59.6438C188.564 59.2722 188.508 58.8439 188.818 58.5714C188.932 58.4646 189.08 58.3997 189.236 58.3872C189.392 58.3748 189.548 58.4155 189.678 58.5029C189.828 58.634 189.93 58.8106 189.969 59.0054C190.008 59.2002 189.981 59.4024 189.894 59.5808C189.806 59.7592 189.662 59.9039 189.484 59.9925C189.306 60.0812 189.103 60.1089 188.907 60.0714C187.919 59.9667 187.407 58.9938 186.992 58.2131C186.044 56.4344 184.898 54.6646 183.163 53.5567C181.559 52.5317 179.414 52.1898 177.686 53.1119C177.384 53.2733 177.655 53.7288 177.956 53.5683C179.67 52.6538 181.808 53.1731 183.295 54.2895C184.171 54.9747 184.922 55.8042 185.516 56.7421C185.831 57.2176 186.118 57.7104 186.389 58.2115C186.634 58.7127 186.922 59.1914 187.251 59.6418C187.821 60.3561 188.813 60.8771 189.72 60.4673C189.922 60.363 190.096 60.2131 190.23 60.0295C190.363 59.8459 190.452 59.6336 190.489 59.4098C190.525 59.1859 190.509 58.9566 190.44 58.7402C190.372 58.5239 190.254 58.3264 190.096 58.1636C189.939 58.0305 189.751 57.9384 189.549 57.8955C189.347 57.8527 189.138 57.8604 188.94 57.9181C188.742 57.9757 188.561 58.0815 188.414 58.2259C188.267 58.3703 188.158 58.5487 188.097 58.7454C188.004 59.2076 188.002 59.6836 188.092 60.1466C188.236 61.4646 188.675 62.7335 189.377 63.8598C190.078 64.9861 191.024 65.9411 192.145 66.6545C192.435 66.8353 192.693 66.3723 192.404 66.192L192.404 66.192Z" fill="#11E6C1"/>
<path d="M41.428 31.1781C40.6973 32.2781 39.7171 33.1897 38.5677 33.8382C37.4184 34.4867 36.1326 34.8535 34.8158 34.9087C34.4437 34.9223 34.0143 34.9727 33.7465 34.6599C33.6414 34.5442 33.5788 34.396 33.5688 34.2397C33.5587 34.0834 33.602 33.9282 33.6914 33.7995C33.825 33.6517 34.0033 33.5519 34.1988 33.5156C34.3944 33.4792 34.5963 33.5082 34.7734 33.5982C34.9505 33.6881 35.093 33.834 35.1789 34.0133C35.2648 34.1926 35.2894 34.3954 35.2487 34.5904C35.1284 35.5765 34.1469 36.0747 33.3592 36.4798C31.5646 37.4028 29.7757 38.5249 28.6399 40.2431C27.589 41.8328 27.2132 43.9712 28.1086 45.7099C28.2653 46.014 28.7254 45.749 28.5695 45.4463C27.6814 43.7219 28.2346 41.592 29.3752 40.1207C30.0745 39.2554 30.9163 38.5159 31.8642 37.9343C32.3448 37.6265 32.8425 37.3461 33.3481 37.0818C33.8535 36.8442 34.337 36.5623 34.7928 36.2393C35.5165 35.6795 36.0534 34.6953 35.6576 33.784C35.5565 33.5807 35.4092 33.4041 35.2276 33.2683C35.046 33.1324 34.835 33.0411 34.6116 33.0016C34.3882 32.9621 34.1585 32.9755 33.9409 33.0407C33.7233 33.106 33.5239 33.2212 33.3585 33.3774C33.2228 33.5328 33.1277 33.7194 33.0817 33.9205C33.0356 34.1215 33.0401 34.3308 33.0946 34.5294C33.1492 34.7281 33.2522 34.91 33.3944 35.0588C33.5365 35.2075 33.7134 35.3186 33.9092 35.3819C34.3702 35.4813 34.8465 35.4896 35.3112 35.4065C36.6322 35.2796 37.9088 34.8577 39.0468 34.1717C40.1848 33.4857 41.1552 32.5533 41.8867 31.4429C42.0721 31.1554 41.613 30.8913 41.428 31.1781L41.428 31.1781Z" fill="#11E6C1"/>
<path d="M181.153 72.2075C182.377 72.2075 183.369 71.2183 183.369 69.9982C183.369 68.778 182.377 67.7888 181.153 67.7888C179.929 67.7888 178.937 68.778 178.937 69.9982C178.937 71.2183 179.929 72.2075 181.153 72.2075Z" fill="#6C63FF"/>
<path d="M130.729 30.8361C131.604 30.8361 132.312 30.1296 132.312 29.258C132.312 28.3865 131.604 27.6799 130.729 27.6799C129.855 27.6799 129.147 28.3865 129.147 29.258C129.147 30.1296 129.855 30.8361 130.729 30.8361Z" fill="#6C63FF"/>
<path d="M64.1426 31.8291C65.2884 31.8291 66.2172 30.9003 66.2172 29.7545C66.2172 28.6088 65.2884 27.6799 64.1426 27.6799C62.9968 27.6799 62.068 28.6088 62.068 29.7545C62.068 30.9003 62.9968 31.8291 64.1426 31.8291Z" fill="#6C63FF"/>
<path d="M40.1385 52.965C41.0126 52.965 41.7212 52.2585 41.7212 51.3869C41.7212 50.5154 41.0126 49.8088 40.1385 49.8088C39.2645 49.8088 38.5559 50.5154 38.5559 51.3869C38.5559 52.2585 39.2645 52.965 40.1385 52.965Z" fill="#6C63FF"/>
<path d="M148.286 29.6769L149.833 31.2197L154.917 26.1504L153.37 24.6076L148.286 29.6769Z" fill="#FF4081"/>
<path d="M26.7997 65.1684L27.8995 66.2651L31.5134 62.6616L30.4136 61.5648L26.7997 65.1684Z" fill="#FF4081"/>
<path d="M43.5528 69.723L44.6527 68.6262L41.0388 65.0226L39.9389 66.1194L43.5528 69.723Z" fill="#FF4081"/>
<defs>
<clipPath id="clip0">
<rect width="8.91136" height="12.7305" fill="white" transform="translate(123.174 54.0249)"/>
</clipPath>
</defs>
</svg>
