<svg width="118" height="74" viewBox="0 0 118 74" fill="none" xmlns="http://www.w3.org/2000/svg">
<path d="M12.8336 73.5908C7.74071 69.7704 3.25404 65.0774 1.16178 59.4712C-0.932382 53.865 -0.301263 47.2441 3.92149 42.6695C6.31592 40.0753 9.64746 38.3029 12.3651 35.9708C16.6261 32.3128 19.2175 27.4287 21.5737 22.6089C23.9299 17.7891 26.2 12.8306 30.0039 8.79886C33.8097 4.76712 39.5146 1.74163 45.428 2.22361C54.7418 2.98295 60.7451 11.6349 69.6343 14.2072C74.1114 15.5026 78.9691 15.1458 83.6317 14.5505C88.2943 13.9552 92.9895 13.1333 97.677 13.5443C102.364 13.9552 107.171 15.8375 109.54 19.438C112.644 24.1513 110.777 30.1363 111.862 35.504C112.747 39.8892 115.597 43.7705 116.974 48.0542C119.975 57.3793 114.943 68.2382 105.405 73.0208L12.8336 73.5908Z" fill="#F9F9FA"/>
<rect x="90.358" y="1.68388" width="32.4671" height="61.1357" rx="4.16835" transform="rotate(90 90.358 1.68388)" fill="white" stroke="#20237C" stroke-width="2.7789"/>
<rect x="87.3043" y="4.73735" width="26.2321" height="55.243" rx="4.16835" transform="rotate(90 87.3043 4.73735)" fill="#D9C5FF" stroke="white" stroke-width="2.7789"/>
<path d="M50.8096 20.572C50.8096 21.3749 50.5159 22.0653 49.9284 22.643C49.3409 23.2109 48.4939 23.5634 47.3874 23.7005V25.3455H45.9186V23.7446C45.194 23.7054 44.5037 23.5781 43.8476 23.3627C43.1915 23.1473 42.6628 22.8829 42.2613 22.5695L43.0691 20.7776C43.4412 21.0518 43.877 21.2819 44.3764 21.468C44.8757 21.654 45.3898 21.7715 45.9186 21.8205V19.3676C45.2234 19.2011 44.6358 19.0151 44.156 18.8095C43.6762 18.6038 43.2748 18.3052 42.9516 17.9135C42.6285 17.512 42.4669 16.9833 42.4669 16.3272C42.4669 15.5145 42.7607 14.8193 43.3482 14.2415C43.9455 13.654 44.8023 13.2966 45.9186 13.1693V11.539H47.3874V13.14C48.5918 13.2379 49.5857 13.5365 50.369 14.0359L49.6346 15.8425C48.9002 15.4215 48.1511 15.1669 47.3874 15.0787V17.5757C48.0728 17.7323 48.6505 17.9135 49.1205 18.1191C49.6003 18.315 50.0018 18.6136 50.3249 19.0151C50.6481 19.4068 50.8096 19.9257 50.8096 20.572ZM44.8317 16.2097C44.8317 16.4545 44.9247 16.6552 45.1108 16.8119C45.2968 16.9686 45.5661 17.1008 45.9186 17.2085V15.1228C45.5465 15.2109 45.2723 15.3529 45.0961 15.5488C44.9198 15.7348 44.8317 15.9551 44.8317 16.2097ZM47.3874 21.7617C47.7399 21.6834 48.0043 21.5561 48.1805 21.3798C48.3568 21.2036 48.4449 20.9931 48.4449 20.7483C48.4449 20.5035 48.3519 20.3027 48.1658 20.1461C47.9896 19.9894 47.7301 19.8523 47.3874 19.7348V21.7617ZM55.6115 13.3015V23.583H53.2321V15.2109H51.1758V13.3015H55.6115ZM61.8039 23.7593C60.9521 23.7593 60.1932 23.5487 59.5273 23.1277C58.8615 22.7066 58.3376 22.0995 57.9557 21.3064C57.5836 20.5035 57.3976 19.5487 57.3976 18.4423C57.3976 17.3358 57.5836 16.386 57.9557 15.5928C58.3376 14.7899 58.8615 14.1779 59.5273 13.7568C60.1932 13.3358 60.9521 13.1253 61.8039 13.1253C62.6558 13.1253 63.4147 13.3358 64.0806 13.7568C64.7464 14.1779 65.2654 14.7899 65.6375 15.5928C66.0194 16.386 66.2103 17.3358 66.2103 18.4423C66.2103 19.5487 66.0194 20.5035 65.6375 21.3064C65.2654 22.0995 64.7464 22.7066 64.0806 23.1277C63.4147 23.5487 62.6558 23.7593 61.8039 23.7593ZM61.8039 21.747C62.4306 21.747 62.9202 21.4778 63.2727 20.9392C63.635 20.4006 63.8162 19.5683 63.8162 18.4423C63.8162 17.3162 63.635 16.4839 63.2727 15.9453C62.9202 15.4068 62.4306 15.1375 61.8039 15.1375C61.1871 15.1375 60.6975 15.4068 60.3352 15.9453C59.9827 16.4839 59.8064 17.3162 59.8064 18.4423C59.8064 19.5683 59.9827 20.4006 60.3352 20.9392C60.6975 21.4778 61.1871 21.747 61.8039 21.747ZM71.7728 23.7593C70.9209 23.7593 70.162 23.5487 69.4961 23.1277C68.8303 22.7066 68.3064 22.0995 67.9245 21.3064C67.5524 20.5035 67.3664 19.5487 67.3664 18.4423C67.3664 17.3358 67.5524 16.386 67.9245 15.5928C68.3064 14.7899 68.8303 14.1779 69.4961 13.7568C70.162 13.3358 70.9209 13.1253 71.7728 13.1253C72.6246 13.1253 73.3835 13.3358 74.0494 13.7568C74.7152 14.1779 75.2342 14.7899 75.6063 15.5928C75.9882 16.386 76.1791 17.3358 76.1791 18.4423C76.1791 19.5487 75.9882 20.5035 75.6063 21.3064C75.2342 22.0995 74.7152 22.7066 74.0494 23.1277C73.3835 23.5487 72.6246 23.7593 71.7728 23.7593ZM71.7728 21.747C72.3994 21.747 72.889 21.4778 73.2415 20.9392C73.6038 20.4006 73.785 19.5683 73.785 18.4423C73.785 17.3162 73.6038 16.4839 73.2415 15.9453C72.889 15.4068 72.3994 15.1375 71.7728 15.1375C71.1559 15.1375 70.6663 15.4068 70.304 15.9453C69.9515 16.4839 69.7752 17.3162 69.7752 18.4423C69.7752 19.5683 69.9515 20.4006 70.304 20.9392C70.6663 21.4778 71.1559 21.747 71.7728 21.747Z" fill="#20237C"/>
<rect x="106.075" y="50.2463" width="22.5041" height="42.3754" rx="2.88923" transform="rotate(90 106.075 50.2463)" fill="white" stroke="#20237C" stroke-width="1.92615"/>
<rect x="54.1607" y="50.2453" width="22.5041" height="42.3754" rx="2.88923" transform="rotate(90 54.1607 50.2453)" fill="white" stroke="#20237C" stroke-width="1.92615"/>
<rect x="103.305" y="53.1718" width="16.3966" height="37.0096" rx="2.88923" transform="rotate(90 103.305 53.1718)" fill="#11E6C1" stroke="white" stroke-width="1.92615"/>
<rect x="51.3904" y="53.1718" width="16.3966" height="37.0096" rx="2.88923" transform="rotate(90 51.3904 53.1718)" fill="#11E6C1" stroke="white" stroke-width="1.92615"/>
<path d="M81.161 63.0586C81.161 63.6463 80.946 64.1517 80.5159 64.5746C80.0858 64.9903 79.4658 65.2484 78.6558 65.3487V66.5529H77.5806V65.381C77.0502 65.3523 76.5449 65.2591 76.0646 65.1014C75.5844 64.9437 75.1973 64.7502 74.9034 64.5208L75.4948 63.2091C75.7672 63.4098 76.0861 63.5782 76.4517 63.7144C76.8173 63.8506 77.1936 63.9366 77.5806 63.9725V62.1769C77.0717 62.0551 76.6416 61.9189 76.2904 61.7683C75.9392 61.6178 75.6453 61.3992 75.4088 61.1125C75.1722 60.8186 75.054 60.4315 75.054 59.9513C75.054 59.3563 75.269 58.8474 75.6991 58.4245C76.1363 57.9944 76.7635 57.7328 77.5806 57.6396V56.4462H78.6558V57.6181C79.5375 57.6898 80.265 57.9084 80.8385 58.274L80.3009 59.5965C79.7633 59.2882 79.2149 59.1019 78.6558 59.0374V60.8652C79.1576 60.9799 79.5805 61.1125 79.9245 61.263C80.2758 61.4064 80.5697 61.625 80.8062 61.9189C81.0427 62.2056 81.161 62.5855 81.161 63.0586ZM76.785 59.8653C76.785 60.0445 76.8531 60.1914 76.9893 60.3061C77.1255 60.4208 77.3226 60.5175 77.5806 60.5964V59.0696C77.3083 59.1341 77.1076 59.2381 76.9785 59.3814C76.8495 59.5176 76.785 59.6789 76.785 59.8653ZM78.6558 63.9295C78.9139 63.8721 79.1074 63.7789 79.2364 63.6499C79.3655 63.5209 79.43 63.3668 79.43 63.1876C79.43 63.0084 79.3619 62.8614 79.2257 62.7468C79.0967 62.6321 78.9067 62.5317 78.6558 62.4457V63.9295ZM85.222 60.5641C86.2829 60.5641 87.0642 60.7756 87.5659 61.1985C88.0748 61.6214 88.3293 62.1877 88.3293 62.8973C88.3293 63.356 88.2146 63.7754 87.9852 64.1553C87.7559 64.528 87.4046 64.829 86.9316 65.0584C86.4656 65.2806 85.8886 65.3917 85.2005 65.3917C84.6701 65.3917 84.1468 65.3236 83.6307 65.1874C83.1218 65.0441 82.6882 64.8434 82.3298 64.5853L83.0179 63.2521C83.3046 63.4671 83.6343 63.6356 84.007 63.7574C84.3798 63.8721 84.7633 63.9295 85.1575 63.9295C85.5947 63.9295 85.9388 63.8434 86.1897 63.6714C86.4406 63.4994 86.566 63.2593 86.566 62.951C86.566 62.6285 86.4334 62.3848 86.1682 62.2199C85.9101 62.0551 85.4586 61.9726 84.8134 61.9726H82.8889L83.2759 57.7364H87.867V59.1341H84.7274L84.6092 60.5641H85.222ZM93.025 65.3917C92.4014 65.3917 91.8459 65.2376 91.3585 64.9294C90.871 64.6212 90.4875 64.1768 90.208 63.5962C89.9356 63.0084 89.7994 62.3095 89.7994 61.4995C89.7994 60.6896 89.9356 59.9943 90.208 59.4137C90.4875 58.8259 90.871 58.3779 91.3585 58.0697C91.8459 57.7615 92.4014 57.6074 93.025 57.6074C93.6486 57.6074 94.2041 57.7615 94.6915 58.0697C95.1789 58.3779 95.5588 58.8259 95.8312 59.4137C96.1108 59.9943 96.2506 60.6896 96.2506 61.4995C96.2506 62.3095 96.1108 63.0084 95.8312 63.5962C95.5588 64.1768 95.1789 64.6212 94.6915 64.9294C94.2041 65.2376 93.6486 65.3917 93.025 65.3917ZM93.025 63.9187C93.4837 63.9187 93.8421 63.7216 94.1002 63.3274C94.3654 62.9331 94.498 62.3239 94.498 61.4995C94.498 60.6752 94.3654 60.066 94.1002 59.6717C93.8421 59.2775 93.4837 59.0804 93.025 59.0804C92.5734 59.0804 92.215 59.2775 91.9498 59.6717C91.6918 60.066 91.5627 60.6752 91.5627 61.4995C91.5627 62.3239 91.6918 62.9331 91.9498 63.3274C92.215 63.7216 92.5734 63.9187 93.025 63.9187Z" fill="#20237C"/>
<path d="M29.2466 63.0586C29.2466 63.6463 29.0315 64.1517 28.6015 64.5746C28.1714 64.9903 27.5514 65.2484 26.7414 65.3487V66.5529H25.6662V65.381C25.1358 65.3523 24.6304 65.2591 24.1502 65.1014C23.6699 64.9437 23.2829 64.7502 22.989 64.5208L23.5803 63.2091C23.8527 63.4098 24.1717 63.5782 24.5373 63.7144C24.9028 63.8506 25.2791 63.9366 25.6662 63.9725V62.1769C25.1573 62.0551 24.7272 61.9189 24.376 61.7683C24.0248 61.6178 23.7309 61.3992 23.4943 61.1125C23.2578 60.8186 23.1395 60.4315 23.1395 59.9513C23.1395 59.3563 23.3546 58.8474 23.7846 58.4245C24.2219 57.9944 24.8491 57.7328 25.6662 57.6396V56.4462H26.7414V57.6181C27.6231 57.6898 28.3506 57.9084 28.924 58.274L28.3864 59.5965C27.8488 59.2882 27.3005 59.1019 26.7414 59.0374V60.8652C27.2432 60.9799 27.6661 61.1125 28.0101 61.263C28.3613 61.4064 28.6552 61.625 28.8918 61.9189C29.1283 62.2056 29.2466 62.5855 29.2466 63.0586ZM24.8706 59.8653C24.8706 60.0445 24.9387 60.1914 25.0749 60.3061C25.2111 60.4208 25.4082 60.5175 25.6662 60.5964V59.0696C25.3938 59.1341 25.1931 59.2381 25.0641 59.3814C24.9351 59.5176 24.8706 59.6789 24.8706 59.8653ZM26.7414 63.9295C26.9994 63.8721 27.193 63.7789 27.322 63.6499C27.451 63.5209 27.5155 63.3668 27.5155 63.1876C27.5155 63.0084 27.4474 62.8614 27.3112 62.7468C27.1822 62.6321 26.9923 62.5317 26.7414 62.4457V63.9295ZM33.3076 60.5641C34.3684 60.5641 35.1497 60.7756 35.6515 61.1985C36.1604 61.6214 36.4149 62.1877 36.4149 62.8973C36.4149 63.356 36.3002 63.7754 36.0708 64.1553C35.8414 64.528 35.4902 64.829 35.0171 65.0584C34.5512 65.2806 33.9742 65.3917 33.2861 65.3917C32.7557 65.3917 32.2324 65.3236 31.7163 65.1874C31.2074 65.0441 30.7737 64.8434 30.4153 64.5853L31.1034 63.2521C31.3902 63.4671 31.7199 63.6356 32.0926 63.7574C32.4654 63.8721 32.8488 63.9295 33.2431 63.9295C33.6803 63.9295 34.0244 63.8434 34.2752 63.6714C34.5261 63.4994 34.6516 63.2593 34.6516 62.951C34.6516 62.6285 34.519 62.3848 34.2537 62.2199C33.9957 62.0551 33.5441 61.9726 32.899 61.9726H30.9744L31.3615 57.7364H35.9525V59.1341H32.813L32.6947 60.5641H33.3076ZM41.1106 65.3917C40.487 65.3917 39.9314 65.2376 39.444 64.9294C38.9566 64.6212 38.5731 64.1768 38.2936 63.5962C38.0212 63.0084 37.885 62.3095 37.885 61.4995C37.885 60.6896 38.0212 59.9943 38.2936 59.4137C38.5731 58.8259 38.9566 58.3779 39.444 58.0697C39.9314 57.7615 40.487 57.6074 41.1106 57.6074C41.7342 57.6074 42.2897 57.7615 42.7771 58.0697C43.2645 58.3779 43.6444 58.8259 43.9168 59.4137C44.1964 59.9943 44.3361 60.6896 44.3361 61.4995C44.3361 62.3095 44.1964 63.0084 43.9168 63.5962C43.6444 64.1768 43.2645 64.6212 42.7771 64.9294C42.2897 65.2376 41.7342 65.3917 41.1106 65.3917ZM41.1106 63.9187C41.5693 63.9187 41.9277 63.7216 42.1857 63.3274C42.451 62.9331 42.5836 62.3239 42.5836 61.4995C42.5836 60.6752 42.451 60.066 42.1857 59.6717C41.9277 59.2775 41.5693 59.0804 41.1106 59.0804C40.659 59.0804 40.3006 59.2775 40.0354 59.6717C39.7773 60.066 39.6483 60.6752 39.6483 61.4995C39.6483 62.3239 39.7773 62.9331 40.0354 63.3274C40.3006 63.7216 40.659 63.9187 41.1106 63.9187Z" fill="#20237C"/>
<line x1="58.9191" y1="34.0129" x2="58.9191" y2="43.1743" stroke="#20237C" stroke-width="1.52689" stroke-linejoin="round"/>
<line x1="32.962" y1="49.2822" x2="32.962" y2="43.1747" stroke="#20237C" stroke-width="1.52689" stroke-linejoin="round"/>
<line x1="83.3496" y1="49.2822" x2="83.3496" y2="43.1747" stroke="#20237C" stroke-width="1.52689" stroke-linejoin="round"/>
<line x1="32.1985" y1="42.4114" x2="84.1128" y2="42.4114" stroke="#20237C" stroke-width="1.52689" stroke-linejoin="round"/>
</svg>
