<svg width="118" height="65" viewBox="0 0 118 65" fill="none" xmlns="http://www.w3.org/2000/svg">
<path d="M48.7664 10.8328C48.7664 10.3259 49.1773 9.91504 49.6841 9.91504H96.4894C96.7932 9.91504 97.0772 10.0653 97.2481 10.3164L103.137 18.9674C103.551 19.5767 103.115 20.4016 102.378 20.4016H49.6841C49.1773 20.4016 48.7664 19.9907 48.7664 19.4838V10.8328Z" fill="#1A237E"/>
<path d="M38.4064 20.4016H22.9529V35.8127H38.4064V20.4016Z" fill="#4E8FBC"/>
<path d="M38.4064 20.4016H22.9529V22.3164H38.4064V20.4016Z" fill="#E0E6F2"/>
<path d="M45.729 11.547C45.729 10.6459 44.9985 9.91541 44.0974 9.91541H29.5257C28.9857 9.91541 28.4807 10.1826 28.1769 10.6289L23.2602 17.8523C22.5229 18.9354 23.2987 20.402 24.609 20.402H44.0974C44.9985 20.402 45.729 19.6715 45.729 18.7704V11.547Z" fill="#1A237E"/>
<path d="M102.648 19.4838H58.3267C57.8198 19.4838 57.4089 19.8947 57.4089 20.4016V42.8938C57.4089 43.4007 57.8198 43.8116 58.3267 43.8116H102.648C103.154 43.8116 103.565 43.4007 103.565 42.8938V20.4016C103.565 19.8947 103.154 19.4838 102.648 19.4838Z" fill="#1A237E"/>
<path d="M102.648 20.4016H56.4915V44.7295H102.648V20.4016Z" fill="#FCFCF8"/>
<path d="M101.148 23.6295H56.1763V45.6565H101.148V23.6295Z" fill="#D9C5FF"/>
<path d="M70.823 22.3147L102.645 22.3147V20.3999L70.823 20.3999V22.3147Z" fill="#E0E6F2"/>
<path d="M47.8487 1.27881L21.1296 24.1648V64.0917H74.5678V24.1648L47.8487 1.27881Z" fill="#1A237E"/>
<path d="M48.7664 1.27881L22.0474 24.1648V64.0917H75.4855V24.1648L48.7664 1.27881Z" fill="#FAFBFF"/>
<path d="M49.2931 8.02698L24.9717 28.4253V64.0122H73.6145V28.4253L49.2931 8.02698Z" fill="#D9C5FF"/>
<path d="M28.642 29.1361L13.0405 42.1847V64.0121H44.2454V42.1847L28.642 29.1361Z" fill="#1A237E"/>
<path d="M26.8063 29.1361L11.2048 42.1847V64.0121H42.4097V42.1847L26.8063 29.1361Z" fill="#1A237E"/>
<path d="M23.4738 26.5389L50.1929 3.65287L75.4855 25.316V24.1648L48.7664 1.27881L22.0474 24.1648V64.0917H23.4738V26.5389Z" fill="#E0E6F2"/>
<path d="M77.8811 26.222C77.6247 26.5194 77.176 26.5533 76.8777 26.2978L50.1817 3.42929C49.3672 2.73155 48.1657 2.73153 47.3511 3.42924L20.6533 26.2977C20.3551 26.5532 19.9064 26.519 19.6503 26.2214V26.2214C19.3934 25.9228 19.4277 25.4724 19.7268 25.2162L47.3512 1.55326C48.1657 0.855539 49.3672 0.855541 50.1817 1.55326L77.805 25.2153C78.1046 25.4719 78.1388 25.9232 77.8811 26.222V26.222Z" fill="#1A237E"/>
<path d="M63.7792 63.6325V33.1935L84.1394 15.753L104.5 33.1935V63.6325H63.7792Z" fill="white" stroke="#1A237E" stroke-width="0.91779"/>
<path d="M84.7656 20.876L67.1899 36.5938V64.0121H102.341V36.5938L84.7656 20.876Z" fill="#D9C5FF"/>
<path d="M65.2248 34.8797L86.0439 17.0481L104.958 33.2498V32.9824L84.1394 15.1488L63.3203 32.9824V64.0914H65.2248V34.8797Z" fill="#E0E6F2"/>
<path d="M27.7825 27.8103L12.3484 41.0295V64.0918H43.2146V41.0295L27.7825 27.8103Z" fill="white"/>
<path d="M28.6436 32.8073L15.7937 44.1767V64.0121H41.4918V44.1767L28.6436 32.8073Z" fill="#D9C5FF"/>
<path d="M14.2529 42.9287L29.685 29.7096L43.2146 41.2989V41.0295L27.7825 27.8103L12.3484 41.0295V64.0918H14.2529V42.9287Z" fill="#E0E6F2"/>
<path d="M45.7281 43.1848C45.472 43.4824 45.0233 43.5166 44.7251 43.2611L29.1976 29.9606C28.3831 29.2629 27.1816 29.2629 26.3671 29.9606L10.8395 43.2612C10.5412 43.5167 10.0926 43.4828 9.83612 43.1854V43.1854C9.57847 42.8866 9.61258 42.4353 9.91222 42.1787L26.3671 28.0846C27.1816 27.3869 28.3831 27.3869 29.1976 28.0846L45.6516 42.1796C45.9508 42.4358 45.985 42.8862 45.7281 43.1848V43.1848Z" fill="#1A237E"/>
<path d="M98.7326 35.2684H71.2842V41.4296H98.7326V35.2684Z" fill="#1A237E"/>
<path d="M107.471 35.1373C107.214 35.4354 106.765 35.4696 106.466 35.2137L85.5546 17.3015C84.74 16.6038 83.5386 16.6038 82.7241 17.3015L61.8124 35.2137C61.5137 35.4696 61.0642 35.4354 60.8076 35.1373V35.1373C60.5501 34.8382 60.5845 34.3868 60.8842 34.1301L82.7241 15.4235C83.5386 14.7258 84.74 14.7258 85.5545 15.4235L107.394 34.1301C107.694 34.3868 107.728 34.8382 107.471 35.1373V35.1373Z" fill="#1A237E"/>
<path d="M14.2507 60.9271H12.3481V64.0919H14.2507V60.9271Z" fill="#7886A0"/>
<path d="M14.2509 60.5529H12.3484V60.9269H14.2509V60.5529Z" fill="#626F84"/>
<path d="M99.5889 44.1324H68.6877V64.092H99.5889V44.1324Z" fill="white"/>
<path d="M98.3889 45.3613H69.8936V64.0922H98.3889V45.3613Z" fill="#8191B0"/>
<path d="M98.3881 48.1655H69.8928V48.462H98.3881V48.1655Z" fill="#49525B"/>
<path d="M98.3879 50.4402H69.8926V50.7367H98.3879V50.4402Z" fill="#49525B"/>
<path d="M98.3879 52.7161H69.8926V53.0126H98.3879V52.7161Z" fill="#49525B"/>
<path d="M98.3879 54.9908H69.8926V55.2874H98.3879V54.9908Z" fill="#49525B"/>
<path d="M98.3879 57.2662H69.8926V57.5628H98.3879V57.2662Z" fill="#49525B"/>
<path d="M98.3879 59.5416H69.8926V59.8381H98.3879V59.5416Z" fill="#49525B"/>
<path d="M98.3879 61.8169H69.8926V62.1134H98.3879V61.8169Z" fill="#49525B"/>
<path opacity="0.6" d="M71.7961 47.2586H98.3869V45.3613H69.8936V64.0922H71.7961V47.2586Z" fill="#5E6875"/>
<path d="M98.3884 45.334H69.8931V46.1867H98.3884V45.334Z" fill="#414A51"/>
<path d="M71.7954 48.1655H69.8928V48.462H71.7954V48.1655Z" fill="#363E44"/>
<path d="M71.7951 50.4402H69.8926V50.7367H71.7951V50.4402Z" fill="#363E44"/>
<path d="M71.7951 52.7161H69.8926V53.0126H71.7951V52.7161Z" fill="#363E44"/>
<path d="M71.7951 54.9908H69.8926V55.2874H71.7951V54.9908Z" fill="#363E44"/>
<path d="M71.7951 57.2662H69.8926V57.5628H71.7951V57.2662Z" fill="#363E44"/>
<path d="M71.7951 59.5416H69.8926V59.8381H71.7951V59.5416Z" fill="#363E44"/>
<path d="M71.7951 61.8169H69.8926V62.1134H71.7951V61.8169Z" fill="#363E44"/>
<path d="M60.409 40.3456H47.0757V44.7836H60.409V40.3456Z" fill="#1A237E"/>
<path d="M34.9122 58.1148V44.1553H20.9143V58.1148H19.3616V59.3144H36.463V58.1148H34.9122Z" fill="#1A237E"/>
<path d="M34.4364 43.6803H20.4385V57.6398H34.4364V43.6803Z" fill="#D9C5FF"/>
<path d="M32.8131 44.3815H22.0596C21.5528 44.3815 21.1418 44.7924 21.1418 45.2993V56.7216C21.1418 57.2285 21.5528 57.6394 22.0596 57.6394H32.8131C33.3199 57.6394 33.7309 57.2285 33.7309 56.7216V45.2993C33.7309 44.7924 33.3199 44.3815 32.8131 44.3815Z" fill="white"/>
<path d="M35.9872 57.64H18.8857V58.8396H35.9872V57.64Z" fill="#D9C5FF"/>
<path d="M25.5748 44.3816H24.8694V57.6395H25.5748V44.3816Z" fill="#D9C5FF"/>
<path d="M30.0055 44.3816H29.3V57.6395H30.0055V44.3816Z" fill="#D9C5FF"/>
<path d="M20.7903 52.9856V53.6891H34.0847V52.9856H20.7903Z" fill="#D9C5FF"/>
<path d="M20.7905 48.3329V49.0364H34.085V48.3329H20.7905Z" fill="#D9C5FF"/>
<path d="M59.9349 39.8701H46.6016V44.3082H59.9349V39.8701Z" fill="#D9C5FF"/>
<path d="M58.3504 40.5332H48.1839C47.677 40.5332 47.2661 40.9441 47.2661 41.451V42.7259C47.2661 43.2328 47.677 43.6437 48.1839 43.6437H58.3504C58.8573 43.6437 59.2682 43.2328 59.2682 42.7259V41.451C59.2682 40.9441 58.8573 40.5332 58.3504 40.5332Z" fill="white"/>
<path d="M53.6016 40.1635H52.9351V44.0162H53.6016V40.1635Z" fill="#D9C5FF"/>
<path d="M47.1628 19.6282H39.0027V30.1826H47.1628V19.6282Z" fill="#1A237E"/>
<path d="M60.5776 19.6282H52.4175V30.1826H60.5776V19.6282Z" fill="#1A237E"/>
<path d="M46.6867 19.1538H38.5266V29.7082H46.6867V19.1538Z" fill="#D9C5FF"/>
<path d="M45.0498 19.8561H40.1634C39.6565 19.8561 39.2456 20.267 39.2456 20.7739V28.0876C39.2456 28.5945 39.6565 29.0054 40.1634 29.0054H45.0499C45.5567 29.0054 45.9676 28.5945 45.9676 28.0876V20.7739C45.9676 20.267 45.5567 19.8561 45.0498 19.8561Z" fill="#FAFBFF"/>
<path d="M38.8521 24.0787V24.7822H46.3592V24.0787H38.8521Z" fill="#D9C5FF"/>
<path d="M60.1015 19.153H51.9414V29.7074H60.1015V19.153Z" fill="#D9C5FF"/>
<path d="M58.4647 19.8561H53.5782C53.0713 19.8561 52.6604 20.267 52.6604 20.7739V28.0876C52.6604 28.5945 53.0713 29.0054 53.5782 29.0054H58.4647C58.9715 29.0054 59.3824 28.5945 59.3824 28.0876V20.7739C59.3824 20.267 58.9715 19.8561 58.4647 19.8561Z" fill="#FAFBFF"/>
<path d="M59.4218 24.0778H52.6181C52.4238 24.0778 52.2664 24.2352 52.2664 24.4295C52.2664 24.6238 52.4238 24.7812 52.6181 24.7812H59.4218C59.616 24.7812 59.7735 24.6238 59.7735 24.4295C59.7735 24.2352 59.616 24.0778 59.4218 24.0778Z" fill="#D9C5FF"/>
<path d="M98.3095 34.8463H70.8611V41.0075H98.3095V34.8463Z" fill="#D9C5FF"/>
<path d="M96.7669 35.4712H72.4056C71.8987 35.4712 71.4878 35.8821 71.4878 36.389V39.4665C71.4878 39.9734 71.8987 40.3843 72.4056 40.3843H96.7669C97.2738 40.3843 97.6847 39.9734 97.6847 39.4665V36.389C97.6847 35.8821 97.2738 35.4712 96.7669 35.4712Z" fill="white"/>
<path d="M89.3708 40.3838V35.4707H88.7443V40.3838H89.3708Z" fill="#D9C5FF"/>
<path d="M80.4299 40.3854V35.4723H79.8033V40.3854H80.4299Z" fill="#D9C5FF"/>
<path d="M58.322 47.741H48.2146V64.092H58.322V47.741Z" fill="#D9C5FF"/>
<path d="M56.6988 48.4419H49.836C49.3291 48.4419 48.9182 48.8528 48.9182 49.3597V63.1735C48.9182 63.6804 49.3291 64.0913 49.836 64.0913H56.6988C57.2057 64.0913 57.6166 63.6804 57.6166 63.1735V49.3597C57.6166 48.8528 57.2057 48.4419 56.6988 48.4419Z" fill="white"/>
<path d="M50.1309 64.0911H50.3388V63.6783L50.1309 64.0911Z" fill="#61BBDB"/>
<path d="M56.6411 56.6807H56.3418V60.5528H56.6411V56.6807Z" fill="white"/>
<path d="M57.9761 52.1592H53.621V48.2134H52.9156V52.1592H48.5605V52.8627H52.9156V64.0915H53.621V52.8627H57.9761V52.1592Z" fill="#D9C5FF"/>
<path d="M106.863 57.6908C109.846 57.6908 112.264 55.2795 112.264 52.305C112.264 49.3306 109.846 46.9193 106.863 46.9193C103.88 46.9193 101.462 49.3306 101.462 52.305C101.462 55.2795 103.88 57.6908 106.863 57.6908Z" fill="#11E6C1"/>
<path d="M102.509 53.3488C102.509 50.374 104.926 47.9631 107.909 47.9631C109.134 47.9631 110.263 48.3701 111.17 49.0561C110.185 47.7596 108.623 46.9224 106.866 46.9224C103.883 46.9224 101.465 49.3333 101.465 52.3081C101.465 54.0601 102.305 55.6182 103.605 56.6008C102.917 55.6957 102.509 54.5698 102.509 53.3488Z" fill="black" fill-opacity="0.1"/>
<path d="M106.863 64.0918V52.3048" stroke="#20237C" stroke-width="1.75443" stroke-miterlimit="10"/>
<path d="M106.863 54.2932L109.106 52.6963" stroke="#20237C" stroke-width="1.75443" stroke-miterlimit="10"/>
<path d="M106.863 56.0866L105.11 54.1001" stroke="#20237C" stroke-width="1.75443" stroke-miterlimit="10"/>
<path d="M117.03 55.9757C117.383 53.7956 115.896 51.7434 113.71 51.3918C111.524 51.0403 109.466 52.5226 109.114 54.7027C108.761 56.8827 110.248 58.935 112.434 59.2865C114.62 59.6381 116.678 58.1557 117.03 55.9757Z" fill="#11E6C1"/>
<path d="M109.833 56.1172C109.833 53.9098 111.628 52.1191 113.842 52.1191C114.751 52.1191 115.589 52.4214 116.261 52.9292C115.528 51.966 114.37 51.3439 113.066 51.3439C110.853 51.3439 109.057 53.1346 109.057 55.342C109.057 56.6424 109.681 57.7994 110.647 58.5281C110.136 57.8595 109.833 57.0222 109.833 56.1172Z" fill="#0FCFAE"/>
<path d="M113.066 64.0929V55.3428" stroke="#20237C" stroke-width="1.30226" stroke-miterlimit="10"/>
<path d="M113.066 56.8194L114.73 55.6333" stroke="#20237C" stroke-width="1.30226" stroke-miterlimit="10"/>
<path d="M113.066 58.1493L111.764 56.6764" stroke="#20237C" stroke-width="1.30226" stroke-miterlimit="10"/>
<path d="M10.5126 54.4348C10.9813 51.8263 9.24089 49.3327 6.62517 48.8652C4.00945 48.3977 1.50897 50.1334 1.0402 52.7419C0.571422 55.3504 2.31187 57.8441 4.92759 58.3115C7.54331 58.779 10.0438 57.0434 10.5126 54.4348Z" fill="#11E6C1"/>
<path d="M1.89693 54.5181C1.89693 51.8688 4.05016 49.7196 6.70866 49.7196C7.80082 49.7196 8.80553 50.082 9.61396 50.6925C8.73557 49.5374 7.34413 48.7913 5.77779 48.7913C3.12124 48.7913 0.966064 50.9405 0.966064 53.5898C0.966064 55.1518 1.71425 56.5375 2.87249 57.4154C2.26033 56.6092 1.89693 55.6073 1.89693 54.5181Z" fill="#0FCFAE"/>
<path d="M5.77808 64.0919V53.5898" stroke="#20237C" stroke-width="1.5631" stroke-miterlimit="10"/>
<path d="M5.77808 55.3633L7.7739 53.9388" stroke="#493C30" stroke-width="1.5631" stroke-miterlimit="10"/>
<path d="M5.77803 56.9581L4.21558 55.1907" stroke="#20237C" stroke-width="1.5631" stroke-miterlimit="10"/>
<path d="M13.6258 56.3838C14.2021 54.2519 12.9363 52.0577 10.7985 51.4829C8.66074 50.9081 6.4605 52.1705 5.88415 54.3024C5.3078 56.4343 6.57359 58.6285 8.71138 59.2033C10.8492 59.7781 13.0494 58.5158 13.6258 56.3838Z" fill="#11E6C1"/>
<path d="M6.52417 56.1167C6.52417 53.9093 8.31983 52.1186 10.5333 52.1186C11.4428 52.1186 12.2804 52.4209 12.9528 52.9287C12.2201 51.9655 11.0619 51.3434 9.7579 51.3434C7.54443 51.3434 5.74878 53.1341 5.74878 55.3415C5.74878 56.6419 6.37259 57.7989 7.33844 58.5276C6.82734 57.859 6.52417 57.0218 6.52417 56.1167Z" fill="#0FCFAE"/>
<path d="M9.75806 64.0916V55.3414" stroke="#20237C" stroke-width="1.30226" stroke-miterlimit="10"/>
<path d="M9.75806 56.818L11.4216 55.632" stroke="#20237C" stroke-width="1.30226" stroke-miterlimit="10"/>
<path d="M9.7581 58.1473L8.45605 56.6744" stroke="#20237C" stroke-width="1.30226" stroke-miterlimit="10"/>
</svg>
