<svg width="166" height="46" viewBox="0 0 166 46" fill="none" xmlns="http://www.w3.org/2000/svg">
<path d="M121.775 15.381H158.279V44.0721H121.775V15.381Z" fill="#FAFBFF" stroke="#1A237E" stroke-width="0.91779"/>
<path d="M8.392 15.381H44.896V44.0721H8.392V15.381Z" fill="#FAFBFF" stroke="#1A237E" stroke-width="0.91779"/>
<path d="M66.2128 15.381H102.717V44.0721H66.2128V15.381Z" fill="#FAFBFF" stroke="#1A237E" stroke-width="0.91779"/>
<path d="M155.696 19.314H124.491V43.1765H155.696V19.314Z" fill="#D9C5FF"/>
<path d="M42.3133 19.314H11.1084V43.1765H42.3133V19.314Z" fill="#D9C5FF"/>
<path d="M100.134 19.314H68.9292V43.1765H100.134V19.314Z" fill="#11E6C1"/>
<path d="M120.805 1.95335C121.111 1.0624 121.948 0.463867 122.89 0.463867H156.296C157.248 0.463867 158.092 1.07495 158.389 1.97907L162.229 13.6568C162.697 15.0819 161.636 16.5483 160.135 16.5483H118.891C117.379 16.5483 116.316 15.0611 116.806 13.6311L120.805 1.95335Z" fill="#1A237E"/>
<path d="M7.42284 1.95335C7.72796 1.0624 8.5656 0.463867 9.50735 0.463867H42.9136C43.8653 0.463867 44.7095 1.07495 45.0067 1.97907L48.846 13.6568C49.3145 15.0819 48.253 16.5483 46.7529 16.5483H5.50811C3.99659 16.5483 2.93389 15.0611 3.42361 13.6311L7.42284 1.95335Z" fill="#1A237E"/>
<path d="M65.2436 1.95335C65.5488 1.0624 66.3864 0.463867 67.3281 0.463867H100.734C101.686 0.463867 102.53 1.07495 102.828 1.97907L106.667 13.6568C107.135 15.0819 106.074 16.5483 104.574 16.5483H63.3289C61.8174 16.5483 60.7547 15.0611 61.2444 13.6311L65.2436 1.95335Z" fill="#1A237E"/>
<path d="M142.908 29.989H136.739C136.374 29.989 136.078 30.285 136.078 30.65V42.9888C136.078 43.3539 136.374 43.6498 136.739 43.6498H142.908C143.273 43.6498 143.569 43.3539 143.569 42.9888V30.65C143.569 30.285 143.273 29.989 142.908 29.989Z" fill="#FAFBFF"/>
<path d="M29.5257 29.989H23.3563C22.9913 29.989 22.6953 30.285 22.6953 30.65V42.9888C22.6953 43.3539 22.9913 43.6498 23.3563 43.6498H29.5257C29.8908 43.6498 30.1867 43.3539 30.1867 42.9888V30.65C30.1867 30.285 29.8908 29.989 29.5257 29.989Z" fill="#FAFBFF"/>
<path d="M87.3465 29.989H81.1771C80.8121 29.989 80.5161 30.285 80.5161 30.65V42.9888C80.5161 43.3539 80.8121 43.6498 81.1771 43.6498H87.3465C87.7116 43.6498 88.0075 43.3539 88.0075 42.9888V30.65C88.0075 30.285 87.7116 29.989 87.3465 29.989Z" fill="#FAFBFF"/>
<path d="M144.01 33.2186H140.341V29.769H139.747V33.2186H136.078V33.8336H139.747V43.6502H140.341V33.8336H144.01V33.2186Z" fill="#D9C5FF"/>
<path d="M30.6274 33.2186H26.9585V29.769H26.3642V33.2186H22.6953V33.8336H26.3642V43.6502H26.9585V33.8336H30.6274V33.2186Z" fill="#D9C5FF"/>
<path d="M88.4482 33.2186H84.7793V29.769H84.185V33.2186H80.5161V33.8336H84.185V43.6502H84.7793V33.8336H88.4482V33.2186Z" fill="#11E6C1"/>
<path d="M162.727 36.6561C163.092 34.3965 161.552 32.2693 159.286 31.905C157.02 31.5406 154.887 33.077 154.521 35.3367C154.156 37.5963 155.697 39.7235 157.963 40.0878C160.228 40.4522 162.361 38.9158 162.727 36.6561Z" fill="#11E6C1"/>
<path d="M155.266 36.8021C155.266 34.5141 157.128 32.658 159.422 32.658C160.365 32.658 161.233 32.9714 161.93 33.4977C161.17 32.4993 159.97 31.8545 158.618 31.8545C156.324 31.8545 154.463 33.7106 154.463 35.9986C154.463 37.3464 155.109 38.5457 156.11 39.3009C155.581 38.6079 155.266 37.7401 155.266 36.8021Z" fill="#0FCFAE"/>
<path d="M158.449 44.5602V36.3" stroke="#20237C" stroke-width="1.30226" stroke-miterlimit="10"/>
<path d="M158.374 37.1192L160.038 35.9331" stroke="#20237C" stroke-width="1.30226" stroke-miterlimit="10"/>
<path d="M158.374 38.4487L157.072 36.9758" stroke="#20237C" stroke-width="1.30226" stroke-miterlimit="10"/>
<path d="M165.474 38.2153C165.756 36.4706 164.567 34.8281 162.817 34.5467C161.068 34.2654 159.421 35.4517 159.139 37.1965C158.856 38.9413 160.046 40.5838 161.796 40.8651C163.545 41.1465 165.192 39.9601 165.474 38.2153Z" fill="#11E6C1"/>
<path d="M159.714 38.3282C159.714 36.5615 161.151 35.1284 162.922 35.1284C163.65 35.1284 164.321 35.3703 164.859 35.7767C164.273 35.0058 163.346 34.5079 162.302 34.5079C160.53 34.5079 159.093 35.9411 159.093 37.7078C159.093 38.7485 159.593 39.6745 160.366 40.2577C159.956 39.7226 159.714 39.0525 159.714 38.3282Z" fill="#0FCFAE"/>
<path d="M162.12 44.5602V37.2179" stroke="#20237C" stroke-width="1.30226" stroke-miterlimit="10"/>
<path d="M162.045 38.0369L163.709 36.8508" stroke="#20237C" stroke-width="1.30226" stroke-miterlimit="10"/>
<path d="M162.045 39.3666L160.743 37.8937" stroke="#20237C" stroke-width="1.30226" stroke-miterlimit="10"/>
<path d="M123.262 36.6561C123.627 34.3965 122.086 32.2693 119.821 31.905C117.555 31.5406 115.422 33.077 115.056 35.3367C114.691 37.5963 116.232 39.7235 118.497 40.0878C120.763 40.4522 122.896 38.9158 123.262 36.6561Z" fill="#11E6C1"/>
<path d="M115.801 36.8022C115.801 34.5142 117.662 32.6581 119.957 32.6581C120.899 32.6581 121.768 32.9715 122.465 33.4978C121.705 32.4994 120.505 31.8546 119.153 31.8546C116.859 31.8546 114.998 33.7107 114.998 35.9987C114.998 37.3466 115.644 38.5458 116.645 39.3011C116.115 38.6081 115.801 37.7403 115.801 36.8022Z" fill="#0FCFAE"/>
<path d="M118.984 44.5602V36.3" stroke="#20237C" stroke-width="1.30226" stroke-miterlimit="10"/>
<path d="M118.909 37.1192L120.573 35.9331" stroke="#20237C" stroke-width="1.30226" stroke-miterlimit="10"/>
<path d="M118.909 38.4488L117.607 36.976" stroke="#20237C" stroke-width="1.30226" stroke-miterlimit="10"/>
<path d="M126.009 38.2153C126.291 36.4706 125.102 34.8281 123.352 34.5467C121.603 34.2654 119.956 35.4517 119.673 37.1965C119.391 38.9413 120.581 40.5838 122.33 40.8651C124.08 41.1465 125.727 39.9601 126.009 38.2153Z" fill="#11E6C1"/>
<path d="M120.249 38.3282C120.249 36.5615 121.686 35.1284 123.457 35.1284C124.185 35.1284 124.856 35.3703 125.394 35.7767C124.807 35.0058 123.88 34.5079 122.837 34.5079C121.065 34.5079 119.628 35.9411 119.628 37.7078C119.628 38.7485 120.127 39.6745 120.9 40.2577C120.491 39.7226 120.249 39.0525 120.249 38.3282Z" fill="#0FCFAE"/>
<path d="M122.655 44.5602V37.2179" stroke="#20237C" stroke-width="1.30226" stroke-miterlimit="10"/>
<path d="M122.58 38.0369L124.244 36.8508" stroke="#20237C" stroke-width="1.30226" stroke-miterlimit="10"/>
<path d="M122.58 39.3666L121.278 37.8937" stroke="#20237C" stroke-width="1.30226" stroke-miterlimit="10"/>
<path d="M105.824 36.6561C106.189 34.3965 104.648 32.2693 102.383 31.905C100.117 31.5406 97.9837 33.077 97.6183 35.3367C97.253 37.5963 98.7936 39.7235 101.059 40.0878C103.325 40.4522 105.458 38.9158 105.824 36.6561Z" fill="#0FCFAE"/>
<path d="M98.3633 36.8022C98.3633 34.5142 100.224 32.6581 102.519 32.6581C103.461 32.6581 104.33 32.9715 105.027 33.4978C104.267 32.4994 103.067 31.8546 101.715 31.8546C99.4208 31.8546 97.5596 33.7107 97.5596 35.9987C97.5596 37.3466 98.2062 38.5458 99.2073 39.3011C98.6775 38.6081 98.3633 37.7403 98.3633 36.8022Z" fill="#0FCFAE"/>
<path d="M101.546 44.5602V36.3" stroke="#20237C" stroke-width="1.30226" stroke-miterlimit="10"/>
<path d="M101.471 37.1192L103.135 35.9331" stroke="#20237C" stroke-width="1.30226" stroke-miterlimit="10"/>
<path d="M101.471 38.4488L100.169 36.976" stroke="#20237C" stroke-width="1.30226" stroke-miterlimit="10"/>
<path d="M108.571 38.2153C108.853 36.4706 107.664 34.8281 105.914 34.5467C104.165 34.2654 102.518 35.4517 102.235 37.1965C101.953 38.9413 103.143 40.5838 104.892 40.8651C106.642 41.1465 108.289 39.9601 108.571 38.2153Z" fill="#11E6C1"/>
<path d="M102.811 38.3282C102.811 36.5615 104.248 35.1284 106.019 35.1284C106.747 35.1284 107.418 35.3703 107.956 35.7767C107.369 35.0058 106.442 34.5079 105.399 34.5079C103.627 34.5079 102.19 35.9411 102.19 37.7078C102.19 38.7485 102.689 39.6745 103.462 40.2577C103.053 39.7226 102.811 39.0525 102.811 38.3282Z" fill="#0FCFAE"/>
<path d="M105.217 44.5602V37.2179" stroke="#20237C" stroke-width="1.30226" stroke-miterlimit="10"/>
<path d="M105.142 38.0369L106.806 36.8508" stroke="#20237C" stroke-width="1.30226" stroke-miterlimit="10"/>
<path d="M105.142 39.3666L103.84 37.8937" stroke="#20237C" stroke-width="1.30226" stroke-miterlimit="10"/>
<path d="M66.3589 36.6561C66.7243 34.3965 65.1836 32.2693 62.9177 31.905C60.6519 31.5406 58.5189 33.077 58.1535 35.3367C57.7881 37.5963 59.3288 39.7235 61.5946 40.0878C63.8605 40.4522 65.9935 38.9158 66.3589 36.6561Z" fill="#0FCFAE"/>
<path d="M58.8984 36.8021C58.8984 34.5141 60.7596 32.658 63.0539 32.658C63.9966 32.658 64.8647 32.9714 65.5617 33.4977C64.8023 32.4993 63.6018 31.8545 62.2502 31.8545C59.9559 31.8545 58.0947 33.7106 58.0947 35.9986C58.0947 37.3464 58.7413 38.5457 59.7424 39.3009C59.2127 38.6079 58.8984 37.7401 58.8984 36.8021Z" fill="#0FCFAE"/>
<path d="M62.0808 44.5602V36.3" stroke="#20237C" stroke-width="1.30226" stroke-miterlimit="10"/>
<path d="M62.0063 37.1192L63.6699 35.9331" stroke="#20237C" stroke-width="1.30226" stroke-miterlimit="10"/>
<path d="M62.0061 38.4487L60.7041 36.9758" stroke="#20237C" stroke-width="1.30226" stroke-miterlimit="10"/>
<path d="M69.1064 38.2153C69.3885 36.4706 68.1989 34.8281 66.4493 34.5467C64.6997 34.2654 63.0527 35.4517 62.7706 37.1965C62.4885 38.9413 63.6781 40.5838 65.4277 40.8651C67.1772 41.1465 68.8243 39.9601 69.1064 38.2153Z" fill="#0FCFAE"/>
<path d="M63.3459 38.3282C63.3459 36.5615 64.783 35.1284 66.5546 35.1284C67.2825 35.1284 67.9528 35.3703 68.4909 35.7767C67.9046 35.0058 66.9776 34.5079 65.934 34.5079C64.1625 34.5079 62.7253 35.9411 62.7253 37.7078C62.7253 38.7485 63.2246 39.6745 63.9976 40.2577C63.5885 39.7226 63.3459 39.0525 63.3459 38.3282Z" fill="#0FCFAE"/>
<path d="M65.752 44.5602V37.2179" stroke="#20237C" stroke-width="1.30226" stroke-miterlimit="10"/>
<path d="M65.6775 38.0369L67.341 36.8508" stroke="#20237C" stroke-width="1.30226" stroke-miterlimit="10"/>
<path d="M65.6775 39.3666L64.3755 37.8937" stroke="#20237C" stroke-width="1.30226" stroke-miterlimit="10"/>
<path d="M48.9209 36.6561C49.2863 34.3965 47.7456 32.2693 45.4797 31.905C43.2139 31.5406 41.0809 33.077 40.7155 35.3367C40.3501 37.5963 41.8908 39.7235 44.1566 40.0878C46.4225 40.4522 48.5555 38.9158 48.9209 36.6561Z" fill="#11E6C1"/>
<path d="M41.4604 36.8022C41.4604 34.5142 43.3216 32.6581 45.6159 32.6581C46.5586 32.6581 47.4268 32.9715 48.1237 33.4978C47.3643 32.4994 46.1638 31.8546 44.8122 31.8546C42.5179 31.8546 40.6567 33.7107 40.6567 35.9987C40.6567 37.3466 41.3033 38.5458 42.3044 39.3011C41.7747 38.6081 41.4604 37.7403 41.4604 36.8022Z" fill="#0FCFAE"/>
<path d="M44.6431 44.5602V36.3" stroke="#20237C" stroke-width="1.30226" stroke-miterlimit="10"/>
<path d="M44.5684 37.1192L46.2319 35.9331" stroke="#20237C" stroke-width="1.30226" stroke-miterlimit="10"/>
<path d="M44.5684 38.4488L43.2664 36.976" stroke="#20237C" stroke-width="1.30226" stroke-miterlimit="10"/>
<path d="M51.6684 38.2153C51.9505 36.4706 50.7609 34.8281 49.0113 34.5467C47.2617 34.2654 45.6147 35.4517 45.3326 37.1965C45.0505 38.9413 46.2401 40.5838 47.9897 40.8651C49.7392 41.1465 51.3863 39.9601 51.6684 38.2153Z" fill="#11E6C1"/>
<path d="M45.9079 38.3282C45.9079 36.5615 47.3451 35.1284 49.1166 35.1284C49.8445 35.1284 50.5148 35.3703 51.053 35.7767C50.4666 35.0058 49.5396 34.5079 48.496 34.5079C46.7245 34.5079 45.2874 35.9411 45.2874 37.7078C45.2874 38.7485 45.7866 39.6745 46.5596 40.2577C46.1506 39.7226 45.9079 39.0525 45.9079 38.3282Z" fill="#0FCFAE"/>
<path d="M48.3142 44.5602V37.2179" stroke="#20237C" stroke-width="1.30226" stroke-miterlimit="10"/>
<path d="M48.2395 38.0369L49.903 36.8508" stroke="#20237C" stroke-width="1.30226" stroke-miterlimit="10"/>
<path d="M48.2395 39.3666L46.9375 37.8937" stroke="#20237C" stroke-width="1.30226" stroke-miterlimit="10"/>
<path d="M9.45581 36.6561C9.82118 34.3965 8.28052 32.2693 6.01466 31.905C3.7488 31.5406 1.61578 33.077 1.25042 35.3367C0.885054 37.5963 2.4257 39.7235 4.69156 40.0878C6.95742 40.4522 9.09045 38.9158 9.45581 36.6561Z" fill="#11E6C1"/>
<path d="M1.99535 36.8022C1.99535 34.5142 3.85655 32.6581 6.15082 32.6581C7.09351 32.6581 7.96167 32.9715 8.65861 33.4978C7.89922 32.4994 6.69871 31.8546 5.34712 31.8546C3.05285 31.8546 1.19165 33.7107 1.19165 35.9987C1.19165 37.3466 1.83823 38.5458 2.83934 39.3011C2.30958 38.6081 1.99535 37.7403 1.99535 36.8022Z" fill="#0FCFAE"/>
<path d="M5.17773 44.5602V36.3" stroke="#20237C" stroke-width="1.30226" stroke-miterlimit="10"/>
<path d="M5.10327 37.1192L6.76678 35.9331" stroke="#20237C" stroke-width="1.30226" stroke-miterlimit="10"/>
<path d="M5.10307 38.4488L3.80103 36.976" stroke="#20237C" stroke-width="1.30226" stroke-miterlimit="10"/>
<path d="M12.2033 38.2153C12.4854 36.4706 11.2958 34.8281 9.54621 34.5467C7.79663 34.2654 6.14962 35.4517 5.86751 37.1965C5.58539 38.9413 6.775 40.5838 8.52458 40.8651C10.2742 41.1465 11.9212 39.9601 12.2033 38.2153Z" fill="#11E6C1"/>
<path d="M6.44284 38.3282C6.44284 36.5615 7.87996 35.1284 9.65148 35.1284C10.3794 35.1284 11.0497 35.3703 11.5879 35.7767C11.0015 35.0058 10.0745 34.5079 9.03091 34.5079C7.25939 34.5079 5.82227 35.9411 5.82227 37.7078C5.82227 38.7485 6.32153 39.6745 7.09452 40.2577C6.68547 39.7226 6.44284 39.0525 6.44284 38.3282Z" fill="#0FCFAE"/>
<path d="M8.84888 44.5602V37.2179" stroke="#20237C" stroke-width="1.30226" stroke-miterlimit="10"/>
<path d="M8.77441 38.0369L10.4379 36.8508" stroke="#20237C" stroke-width="1.30226" stroke-miterlimit="10"/>
<path d="M8.77421 39.3666L7.47217 37.8937" stroke="#20237C" stroke-width="1.30226" stroke-miterlimit="10"/>
<path d="M163.956 45.5063H3.97778V44.5512C3.97778 44.2202 4.48313 43.9531 5.10932 43.9531H162.821C163.447 43.9531 163.953 44.2202 163.953 44.5512V45.5063H163.956Z" fill="#11E6C1"/>
<path d="M153.564 21.4861H146.518V30.5996H153.564V21.4861Z" fill="#D9C5FF"/>
<path d="M39.7578 21.4861H32.7117V30.5996H39.7578V21.4861Z" fill="#D9C5FF"/>
<path d="M98.0852 21.4861H91.0391V30.5996H98.0852V21.4861Z" fill="#11E6C1"/>
<path d="M126.737 21.4861H133.783V30.5996H126.737V21.4861Z" fill="#D9C5FF"/>
<path d="M71.2588 21.4861H78.3049V30.5996H71.2588V21.4861Z" fill="#11E6C1"/>
<path d="M152.026 22.0925H148.055C147.549 22.0925 147.138 22.5031 147.138 23.0096V29.0758C147.138 29.5823 147.549 29.9928 148.055 29.9928H152.026C152.532 29.9928 152.943 29.5823 152.943 29.0758V23.0096C152.943 22.5031 152.532 22.0925 152.026 22.0925Z" fill="#FAFBFF"/>
<path d="M38.2196 22.0925H34.2493C33.7428 22.0925 33.3323 22.5031 33.3323 23.0096V29.0758C33.3323 29.5823 33.7428 29.9928 34.2493 29.9928H38.2196C38.7261 29.9928 39.1366 29.5823 39.1366 29.0758V23.0096C39.1366 22.5031 38.7261 22.0925 38.2196 22.0925Z" fill="#FAFBFF"/>
<path d="M96.5472 22.0925H92.5769C92.0705 22.0925 91.6599 22.5031 91.6599 23.0096V29.0758C91.6599 29.5823 92.0705 29.9928 92.5769 29.9928H96.5472C97.0537 29.9928 97.4643 29.5823 97.4643 29.0758V23.0096C97.4643 22.5031 97.0537 22.0925 96.5472 22.0925Z" fill="#FAFBFF"/>
<path d="M128.499 22.0925H132.469C132.976 22.0925 133.386 22.5031 133.386 23.0096V29.0758C133.386 29.5823 132.976 29.9928 132.469 29.9928H128.499C127.993 29.9928 127.582 29.5823 127.582 29.0758V23.0096C127.582 22.5031 127.993 22.0925 128.499 22.0925Z" fill="#FAFBFF"/>
<path d="M14.6932 22.0925H18.6635C19.17 22.0925 19.5806 22.5031 19.5806 23.0096V29.0758C19.5806 29.5823 19.17 29.9928 18.6635 29.9928H14.6932C14.1868 29.9928 13.7762 29.5823 13.7762 29.0758V23.0096C13.7762 22.5031 14.1868 22.0925 14.6932 22.0925Z" fill="#FAFBFF"/>
<path d="M73.0204 22.0925H76.9907C77.4971 22.0925 77.9077 22.5031 77.9077 23.0096V29.0758C77.9077 29.5823 77.4971 29.9928 76.9907 29.9928H73.0204C72.5139 29.9928 72.1034 29.5823 72.1034 29.0758V23.0096C72.1034 22.5031 72.5139 22.0925 73.0204 22.0925Z" fill="#FAFBFF"/>
<path d="M146.799 25.739V26.3464H153.281V25.739H146.799Z" fill="#D9C5FF"/>
<path d="M32.9927 25.739V26.3464H39.475V25.739H32.9927Z" fill="#D9C5FF"/>
<path d="M91.3201 25.739V26.3464H97.8023V25.739H91.3201Z" fill="#11E6C1"/>
<path d="M133.726 25.739V26.3464H127.244V25.739H133.726Z" fill="#D9C5FF"/>
<path d="M19.9204 25.739V26.3464H13.4381V25.739H19.9204Z" fill="#D9C5FF"/>
<path d="M78.2476 25.739V26.3464H71.7653V25.739H78.2476Z" fill="#11E6C1"/>
</svg>
