<svg width="78" height="80" viewBox="0 0 78 80" fill="none" xmlns="http://www.w3.org/2000/svg">
<path d="M2.34276 70.7586H51.6572C52.0604 70.7581 52.4468 70.5979 52.7317 70.3132C53.0164 70.0287 53.1765 69.6432 53.1772 69.2412C53.1772 69.2409 53.1772 69.2406 53.1772 69.2403M2.34276 70.7586L54 69.2412L53.1772 69.2403M2.34276 70.7586C1.9396 70.7581 1.55319 70.5979 1.26828 70.3132C0.983492 70.0286 0.823366 69.6429 0.822801 69.2407V2.34066C0.823366 1.93847 0.983495 1.55278 1.26828 1.2682C1.55308 0.983602 1.93932 0.823366 2.34233 0.822801H51.6577L2.34276 70.7586ZM53.1772 69.2403V2.34109M53.1772 69.2403V2.34109M53.1772 2.34109L53.1772 2.34016L53.1772 2.34109Z" fill="white" stroke="#1A237E" stroke-width="1.6456"/>
<path d="M41.6253 16.9534H28.0721C27.7877 16.9534 27.515 16.8542 27.3139 16.6776C27.1128 16.5009 26.9999 16.2614 26.9999 16.0116C26.9999 15.7618 27.1128 15.5222 27.3139 15.3456C27.515 15.1689 27.7877 15.0697 28.0721 15.0697H41.6253C41.9097 15.0697 42.1824 15.1689 42.3835 15.3456C42.5846 15.5222 42.6976 15.7618 42.6976 16.0116C42.6976 16.2614 42.5846 16.5009 42.3835 16.6776C42.1824 16.8542 41.9097 16.9534 41.6253 16.9534V16.9534Z" fill="#162FBD"/>
<path d="M46.6245 20.9752H28.3938C28.1054 20.9752 27.8288 20.8712 27.6249 20.686C27.421 20.5009 27.3064 20.2497 27.3064 19.9878C27.3064 19.726 27.421 19.4748 27.6249 19.2897C27.8288 19.1045 28.1054 19.0005 28.3938 19.0005H46.6245C46.9129 19.0005 47.1894 19.1045 47.3934 19.2897C47.5973 19.4748 47.7119 19.726 47.7119 19.9878C47.7119 20.2497 47.5973 20.5009 47.3934 20.686C47.1894 20.8712 46.9129 20.9752 46.6245 20.9752V20.9752Z" fill="#162FBD"/>
<path d="M41.5912 35.7909H6.75764C6.46419 35.7909 6.18276 35.6586 5.97526 35.4231C5.76776 35.1876 5.65118 34.8682 5.65118 34.5351C5.65118 34.202 5.76776 33.8826 5.97526 33.6471C6.18276 33.4116 6.46419 33.2793 6.75764 33.2793H41.5912C41.8847 33.2793 42.1661 33.4116 42.3736 33.6471C42.5811 33.8826 42.6977 34.202 42.6977 34.5351C42.6977 34.8682 42.5811 35.1876 42.3736 35.4231C42.1661 35.6586 41.8847 35.7909 41.5912 35.7909V35.7909Z" fill="#CCCCCC"/>
<path d="M46.6023 38.9302H6.76985C6.47316 38.9302 6.18862 38.831 5.97883 38.6544C5.76904 38.4777 5.65118 38.2382 5.65118 37.9884C5.65118 37.7386 5.76904 37.499 5.97883 37.3224C6.18862 37.1457 6.47316 37.0465 6.76985 37.0465H46.6023C46.899 37.0465 47.1835 37.1457 47.3933 37.3224C47.6031 37.499 47.721 37.7386 47.721 37.9884C47.721 38.2382 47.6031 38.4777 47.3933 38.6544C47.1835 38.831 46.899 38.9302 46.6023 38.9302V38.9302Z" fill="#CCCCCC"/>
<path d="M41.5912 47.721H6.75631C6.46309 47.7207 6.18199 47.6213 5.97478 47.4447C5.76757 47.2681 5.65118 47.0287 5.65118 46.7791C5.65118 46.5295 5.76757 46.2902 5.97478 46.1136C6.18199 45.937 6.46309 45.8376 6.75631 45.8373H41.5912C41.8847 45.8373 42.1661 45.9365 42.3736 46.1131C42.5811 46.2898 42.6977 46.5293 42.6977 46.7791C42.6977 47.0289 42.5811 47.2685 42.3736 47.4451C42.1661 47.6218 41.8847 47.721 41.5912 47.721V47.721Z" fill="#CCCCCC"/>
<path d="M46.6023 51.4886H6.7685C6.47204 51.4881 6.18785 51.3557 5.97835 51.1202C5.76885 50.8847 5.65118 50.5655 5.65118 50.2327C5.65118 49.8999 5.76885 49.5808 5.97835 49.3453C6.18785 49.1098 6.47204 48.9773 6.7685 48.9769H46.6023C46.899 48.9769 47.1835 49.1092 47.3933 49.3448C47.6031 49.5803 47.721 49.8997 47.721 50.2327C47.721 50.5658 47.6031 50.8852 47.3933 51.1207C47.1835 51.3563 46.899 51.4886 46.6023 51.4886Z" fill="#CCCCCC"/>
<path d="M41.5912 60.2792H6.75764C6.46419 60.2792 6.18276 60.1469 5.97526 59.9114C5.76776 59.6759 5.65118 59.3565 5.65118 59.0234C5.65118 58.6903 5.76776 58.3709 5.97526 58.1354C6.18276 57.8999 6.46419 57.7676 6.75764 57.7676H41.5912C41.8847 57.7676 42.1661 57.8999 42.3736 58.1354C42.5811 58.3709 42.6977 58.6903 42.6977 59.0234C42.6977 59.3565 42.5811 59.6759 42.3736 59.9114C42.1661 60.1469 41.8847 60.2792 41.5912 60.2792V60.2792Z" fill="#CCCCCC"/>
<path d="M46.6023 63.4189H6.76985C6.47316 63.4189 6.18862 63.3197 5.97883 63.143C5.76904 62.9664 5.65118 62.7268 5.65118 62.477C5.65118 62.2272 5.76904 61.9876 5.97883 61.811C6.18862 61.6344 6.47316 61.5352 6.76985 61.5352H46.6023C46.899 61.5352 47.1835 61.6344 47.3933 61.811C47.6031 61.9876 47.721 62.2272 47.721 62.477C47.721 62.7268 47.6031 62.9664 47.3933 63.143C47.1835 63.3197 46.899 63.4189 46.6023 63.4189V63.4189Z" fill="#CCCCCC"/>
<circle cx="14.4707" cy="17.3124" r="8.68429" fill="#11E6C1" stroke="#1A237E" stroke-width="0.40392"/>
<mask id="mask0" mask-type="alpha" maskUnits="userSpaceOnUse" x="5" y="8" width="19" height="19">
<circle cx="14.4707" cy="17.3124" r="8.68429" fill="#11E6C1" stroke="#1A237E" stroke-width="0.40392"/>
</mask>
<g mask="url(#mask0)">
<path d="M17.0962 23.371C16.2883 23.2094 15.9517 22.8998 15.8844 22.7651H13.6629C13.3263 22.9671 12.4915 23.371 11.8452 23.371C11.0374 23.371 9.62366 23.573 9.62366 24.9867L10.8354 26.1985H17.0962C17.904 25.9965 19.5197 25.3906 19.5197 24.5828C19.5197 23.573 18.106 23.573 17.0962 23.371Z" fill="#00816A"/>
</g>
<circle cx="14.4707" cy="17.3124" r="8.68429" stroke="#1A237E" stroke-width="0.40392"/>
<g clip-path="url(#clip0)">
<path d="M16.0501 21.0994L16.0059 21.9338L15.9516 22.978C15.9516 22.978 15.746 23.3719 14.8219 23.3719C13.896 23.3719 13.7074 23.1035 13.7074 23.1035L13.67 22.6408L13.546 21.1011H16.0501V21.0994Z" fill="white"/>
<path d="M16.0864 20.9479L16.0437 21.8077C15.6704 22.1091 14.6658 22.7303 13.6629 22.5636L13.4609 20.9479H16.0864Z" fill="#00816A"/>
<path d="M11.9656 17.3074C11.9656 17.3074 11.2572 16.6055 10.6915 17.0631C10.0238 17.605 10.722 19.5524 11.9078 19.3459L11.9656 17.3074Z" fill="white"/>
<path d="M17.3798 17.3074C17.3798 17.3074 18.0882 16.6055 18.654 17.0631C19.3216 17.605 18.6234 19.5524 17.4376 19.3459L17.3798 17.3074Z" fill="white"/>
<path d="M14.7075 21.9178C12.2595 21.9178 11.5035 18.9744 11.2793 16.8189C11.072 14.832 12.5959 13.079 14.5682 13.0566C14.5937 13.0566 14.6209 13.0566 14.6481 13.0566C14.6804 13.0566 14.7143 13.0566 14.7466 13.0566C16.6952 13.0824 18.214 14.7872 18.0458 16.7535C17.8572 18.9383 17.1539 21.9178 14.7075 21.9178Z" fill="white"/>
<path d="M17.847 11.5238C19.0889 12.384 17.9659 14.0612 17.9659 14.0612C17.9659 14.0612 19.2027 15.2861 17.9302 18.1727L17.7043 18.1263C17.8487 17.2025 17.7621 16.0774 17.7043 15.9002C17.5327 15.3721 16.6187 15.0917 16.6646 14.5206C16.6646 14.5206 13.8632 15.4082 12.3461 14.536C12.3461 14.536 12.2272 15.2672 11.811 15.7282C11.4627 16.1135 11.6615 17.4571 11.7057 18.0385L11.4729 18.0609C11.3353 17.4691 10.999 16.4025 10.9616 16.0894C10.9395 15.8916 10.8563 15.1072 10.8206 14.5446C10.79 14.0526 10.8766 13.5572 11.0958 13.1185C11.2181 12.876 11.3863 12.6317 11.619 12.4562C12.4328 11.8421 16.7207 10.7428 17.847 11.5238Z" fill="#00816A"/>
</g>
<g clip-path="url(#clip1)">
<ellipse cx="53.5" cy="57.5" rx="9.5" ry="8.5" fill="white"/>
<path d="M68.6999 58.9168L66.8138 55.9418L67.9326 52.603C68.0841 52.1473 67.8953 51.6469 67.4794 51.4085L64.4274 49.6491L63.8661 46.1725C63.7879 45.6981 63.3881 45.3443 62.9088 45.3244L59.3887 45.1866L57.2767 42.368C56.9886 41.9831 56.4671 41.8552 56.0363 42.0626L52.8564 43.5749L49.6752 42.0613C49.2431 41.8565 48.7241 41.9843 48.4348 42.368L46.3228 45.1866L42.8027 45.3244C42.3246 45.343 41.9236 45.6969 41.8466 46.1712L41.2854 49.6479L38.2334 51.4073C37.8174 51.6457 37.6274 52.1461 37.7789 52.6018L38.8976 55.9406L37.0128 58.9168C36.7558 59.3228 36.8216 59.853 37.168 60.1858L39.7097 62.6232L39.4241 66.1321C39.3856 66.6126 39.6886 67.0509 40.1492 67.185L43.5328 68.1597L44.9098 71.4017C45.0985 71.8425 45.5716 72.0983 46.0409 71.9965L49.4927 71.2887L52.2169 73.52C52.4019 73.6702 52.6291 73.7484 52.8564 73.7484C53.0836 73.7484 53.3096 73.6702 53.4958 73.52L56.22 71.2887L59.6718 71.9965C60.1399 72.0958 60.6155 71.8437 60.803 71.4017L62.18 68.1597L65.5635 67.185C66.0241 67.0522 66.3271 66.6126 66.2886 66.1321L66.003 62.6232L68.5447 60.1858C68.8911 59.853 68.9569 59.3228 68.6999 58.9168ZM60.1536 54.0607L53.0873 64.6471C52.8204 65.0419 52.4069 65.3064 51.9959 65.3064C51.5861 65.3064 51.128 65.0767 50.8362 64.7837L45.6485 59.5128C45.2947 59.1527 45.2947 58.5692 45.6485 58.2091L46.9287 56.9053C47.2826 56.5502 47.8575 56.5502 48.2088 56.9053L51.5849 60.3348L57.1525 51.9933C57.4319 51.5724 57.9993 51.4656 58.4115 51.75L59.9127 52.7818C60.3262 53.0674 60.433 53.6423 60.1536 54.0607Z" fill="#0FE2BE"/>
</g>
<defs>
<clipPath id="clip0">
<rect width="8.48233" height="12.1176" fill="white" transform="translate(10.4315 11.2539)"/>
</clipPath>
<clipPath id="clip1">
<rect width="32" height="32" fill="white" transform="translate(36.8564 41.8564)"/>
</clipPath>
</defs>
</svg>
