<svg width="207" height="168" viewBox="0 0 207 168" fill="none" xmlns="http://www.w3.org/2000/svg">
<path opacity="0.05" d="M186.471 66.9649C185.843 72.3435 182.493 77.2764 183.095 82.8788C183.812 89.5891 188.92 95.6462 190.046 102.329C191.713 112.202 189.247 122.287 182.748 130.074C179.618 133.828 175.556 137.051 170.608 138.798C162.98 141.493 154.02 140.437 145.915 138.044C133.85 134.481 121.926 127.142 109.343 125.564C102.4 124.693 98.9369 130.35 94.5163 133.6C89.5128 137.274 83.2978 139.643 76.781 140.681C64.7807 142.595 51.4767 140.024 41.1318 133.489C30.0853 126.51 21.9713 113.739 25.3211 102.123C26.8703 96.7477 30.7083 91.9328 30.7097 86.3084C30.7063 79.2496 26.0207 71.7581 22.8554 65.294C19.361 58.1528 18.0478 50.2841 19.1364 42.804C19.1511 42.7185 19.1606 42.6356 19.1753 42.5501C21.1381 29.666 33.3555 20.2712 48.7335 19.5762L81.4565 18.0978C114.661 16.6008 145.834 23.9469 171.74 43.0205C177.345 47.1464 185.643 57.5448 186.465 63.6066C186.614 64.7528 186.599 65.8658 186.471 66.9649Z" fill="#928C9E"/>
<rect x="35.7476" y="35.2236" width="137.18" height="83.1289" rx="3.2499" fill="white" stroke="#1A237E" stroke-width="1.71047"/>
<rect x="41.7343" y="53.5259" width="125.206" height="59.5244" rx="5.47351" fill="#D9C5FF"/>
<circle cx="165.059" cy="44.1181" r="2.22361" fill="#FF4081"/>
<circle cx="147.27" cy="44.1181" r="2.22361" fill="#FF4081"/>
<circle cx="156.165" cy="44.1181" r="2.22361" fill="#FF4081"/>
<rect x="41.7343" y="42.5786" width="97.839" height="3.42094" rx="1.71047" fill="#162FBD"/>
<mask id="mask0" mask-type="alpha" maskUnits="userSpaceOnUse" x="41" y="53" width="126" height="61">
<rect x="41.7343" y="53.5259" width="125.206" height="59.5244" rx="5.47351" fill="#E0E6F2"/>
</mask>
<g mask="url(#mask0)">
<rect x="81.4172" y="61.5296" width="43.7881" height="54.7351" rx="2.73675" fill="white" stroke="#1A237E" stroke-width="1.36838"/>
</g>
<path d="M103.311 80.0026C107.468 80.0026 110.837 76.633 110.837 72.4765C110.837 68.32 107.468 64.9504 103.311 64.9504C99.1547 64.9504 95.7852 68.32 95.7852 72.4765C95.7852 76.633 99.1547 80.0026 103.311 80.0026Z" fill="url(#paint0_linear)"/>
<path d="M116.334 87.5287H89.604C89.2473 87.5287 88.9052 87.3846 88.6529 87.128C88.4007 86.8713 88.259 86.5233 88.259 86.1604C88.259 85.7975 88.4007 85.4494 88.6529 85.1928C88.9052 84.9362 89.2473 84.792 89.604 84.792H116.334C116.691 84.792 117.033 84.9362 117.285 85.1928C117.537 85.4494 117.679 85.7975 117.679 86.1604C117.679 86.5233 117.537 86.8713 117.285 87.128C117.033 87.3846 116.691 87.5287 116.334 87.5287Z" fill="#CCCCCC"/>
<path d="M116.334 93.6865H89.604C89.2473 93.6865 88.9052 93.5423 88.6529 93.2857C88.4007 93.0291 88.259 92.681 88.259 92.3181C88.259 91.9552 88.4007 91.6071 88.6529 91.3505C88.9052 91.0939 89.2473 90.9497 89.604 90.9497H116.334C116.691 90.9497 117.033 91.0939 117.285 91.3505C117.537 91.6071 117.679 91.9552 117.679 92.3181C117.679 92.681 117.537 93.0291 117.285 93.2857C117.033 93.5423 116.691 93.6865 116.334 93.6865Z" fill="#CCCCCC"/>
<path d="M116.334 100.528H89.604C89.2473 100.528 88.9052 100.384 88.6529 100.127C88.4007 99.8708 88.259 99.5228 88.259 99.1599C88.259 98.797 88.4007 98.4489 88.6529 98.1923C88.9052 97.9357 89.2473 97.7915 89.604 97.7915H116.334C116.691 97.7915 117.033 97.9357 117.285 98.1923C117.537 98.4489 117.679 98.797 117.679 99.1599C117.679 99.5228 117.537 99.8708 117.285 100.127C117.033 100.384 116.691 100.528 116.334 100.528Z" fill="#CCCCCC"/>
<path d="M116.334 107.37H89.604C89.2473 107.37 88.9052 107.226 88.6529 106.97C88.4007 106.713 88.259 106.365 88.259 106.002C88.259 105.639 88.4007 105.291 88.6529 105.034C88.9052 104.778 89.2473 104.634 89.604 104.634H116.334C116.691 104.634 117.033 104.778 117.285 105.034C117.537 105.291 117.679 105.639 117.679 106.002C117.679 106.365 117.537 106.713 117.285 106.97C117.033 107.226 116.691 107.37 116.334 107.37Z" fill="#CCCCCC"/>
<path d="M104.78 72.0384C104.366 71.8307 103.925 71.6724 103.489 71.5082C103.236 71.4133 102.994 71.3025 102.78 71.1482C102.359 70.8435 102.439 70.349 102.932 70.1531C103.072 70.0977 103.218 70.0799 103.367 70.072C103.938 70.0443 104.481 70.1393 104.999 70.3648C105.256 70.4775 105.341 70.4419 105.428 70.1986C105.52 69.9414 105.596 69.6803 105.681 69.4211C105.738 69.247 105.668 69.1323 105.487 69.0591C105.156 68.9266 104.815 68.8316 104.457 68.7802C103.991 68.7149 103.991 68.7129 103.988 68.2876C103.985 67.7177 103.986 67.6881 103.323 67.6881C103.227 67.6881 103.131 67.6862 103.035 67.6881C102.92 67.6873 102.673 67.7455 102.664 68.0284C102.66 68.155 102.664 68.2816 102.662 68.4102C102.66 68.7861 102.658 68.7802 102.26 68.9107C101.3 69.2273 100.707 69.8207 100.644 70.7703C100.587 71.6111 101.071 72.1789 101.833 72.5924C102.302 72.8476 102.821 72.9979 103.319 73.1977C103.513 73.2749 103.698 73.3639 103.86 73.4866C104.337 73.8446 104.25 74.4401 103.683 74.6656C103.38 74.7863 103.059 74.816 102.73 74.7784C102.221 74.721 101.735 74.6003 101.276 74.3847C101.008 74.2581 100.93 74.2917 100.838 74.5548C100.759 74.7823 100.69 75.0118 100.62 75.2413C100.526 75.5499 100.561 75.6231 100.886 75.7675C101.3 75.9495 101.743 76.0425 102.195 76.1078C102.548 76.1592 102.559 76.1731 102.564 76.5054C102.566 76.6558 102.566 76.8081 102.568 76.9585C102.57 77.1484 102.671 77.2592 102.887 77.2631C103.131 77.2671 103.377 77.2671 103.622 77.2612C103.823 77.2572 103.925 77.1583 103.925 76.9743C103.925 76.7686 103.936 76.5608 103.927 76.3551C103.916 76.1454 104.017 76.0386 104.239 75.9832C104.752 75.8566 105.188 75.6073 105.524 75.2354C106.458 74.2067 106.102 72.7012 104.78 72.0384Z" fill="white"/>
<circle cx="134.784" cy="89.7877" r="14.7101" fill="#11E6C1" stroke="#1A237E" stroke-width="0.684188"/>
<mask id="mask1" mask-type="alpha" maskUnits="userSpaceOnUse" x="119" y="74" width="31" height="31">
<circle cx="134.784" cy="89.7877" r="14.368" fill="#11E6C1" stroke="#1A237E" stroke-width="1.36838"/>
</mask>
<g mask="url(#mask1)">
<path d="M139.231 100.05C137.863 99.7768 137.292 99.2522 137.178 99.0242H133.415C132.845 99.3663 131.431 100.05 130.337 100.05C128.968 100.05 126.574 100.393 126.574 102.787L128.626 104.84H139.231C140.599 104.498 143.336 103.471 143.336 102.103C143.336 100.393 140.942 100.393 139.231 100.05Z" fill="#00816A"/>
</g>
<circle cx="134.784" cy="89.7877" r="14.368" stroke="#1A237E" stroke-width="1.36838"/>
<g clip-path="url(#clip0)">
<path d="M137.458 96.2012L137.383 97.6144L137.291 99.3832C137.291 99.3832 136.943 100.05 135.378 100.05C133.809 100.05 133.49 99.5959 133.49 99.5959L133.427 98.812L133.217 96.2041H137.458V96.2012Z" fill="white"/>
<path d="M137.521 95.9458L137.448 97.4022C136.816 97.9127 135.114 98.9648 133.415 98.6826L133.073 95.9458H137.521Z" fill="#00816A"/>
<path d="M130.54 89.779C130.54 89.779 129.34 88.5901 128.382 89.3652C127.251 90.2831 128.434 93.5816 130.443 93.232L130.54 89.779Z" fill="white"/>
<path d="M139.711 89.779C139.711 89.779 140.911 88.5901 141.87 89.3652C143.001 90.2831 141.818 93.5816 139.809 93.232L139.711 89.779Z" fill="white"/>
<path d="M135.185 97.5882C131.038 97.5882 129.758 92.6025 129.378 88.9514C129.027 85.5858 131.608 82.6165 134.949 82.5786C134.992 82.5786 135.038 82.5786 135.084 82.5786C135.139 82.5786 135.196 82.5786 135.251 82.5786C138.552 82.6223 141.124 85.51 140.839 88.8406C140.52 92.5413 139.329 97.5882 135.185 97.5882Z" fill="white"/>
<path d="M140.503 79.9824C142.606 81.4394 140.704 84.2804 140.704 84.2804C140.704 84.2804 142.799 86.3551 140.644 91.2447L140.261 91.166C140.506 89.6013 140.359 87.6956 140.261 87.3954C139.97 86.5008 138.422 86.0259 138.5 85.0585C138.5 85.0585 133.755 86.562 131.185 85.0847C131.185 85.0847 130.984 86.3231 130.279 87.104C129.689 87.7567 130.025 90.0325 130.1 91.0174L129.706 91.0553C129.473 90.0529 128.903 88.2463 128.84 87.716C128.802 87.3808 128.661 86.0521 128.601 85.0992C128.549 84.2659 128.696 83.4267 129.067 82.6836C129.274 82.2727 129.559 81.859 129.953 81.5618C131.332 80.5215 138.595 78.6595 140.503 79.9824Z" fill="#00816A"/>
</g>
<defs>
<linearGradient id="paint0_linear" x1="108.527" y1="66.9085" x2="97.9267" y2="78.2588" gradientUnits="userSpaceOnUse">
<stop stop-color="#13EEC8"/>
<stop offset="1" stop-color="#0BD6B3"/>
</linearGradient>
<clipPath id="clip0">
<rect width="14.368" height="20.5257" fill="white" transform="translate(127.942 79.5249)"/>
</clipPath>
</defs>
</svg>
