<svg width="98" height="74" viewBox="0 0 98 74" fill="none" xmlns="http://www.w3.org/2000/svg">
<path d="M11.3715 71.712C7.21397 68.5934 3.55138 64.7624 1.84341 60.1859C0.133891 55.6094 0.64909 50.2045 4.09624 46.4702C6.05087 44.3524 8.77049 42.9056 10.989 41.0018C14.4673 38.0157 16.5828 34.0287 18.5062 30.0942C20.4296 26.1596 22.2827 22.1119 25.388 18.8207C28.4948 15.5294 33.1519 13.0596 37.9791 13.4531C45.5822 14.073 50.4828 21.1358 57.7393 23.2356C61.3941 24.2931 65.3596 24.0018 69.1658 23.5159C72.972 23.0299 76.8048 22.359 80.6313 22.6945C84.4578 23.0299 88.3812 24.5665 90.3155 27.5056C92.8493 31.3532 91.3256 36.239 92.2108 40.6208C92.9336 44.2005 95.2598 47.3689 96.3839 50.8658C98.8335 58.4781 94.7259 67.3426 86.9402 71.2468L11.3715 71.712Z" fill="#F9F9FA"/>
<rect x="15.4701" y="1.75194" width="53.9276" height="68.5027" rx="2.91501" stroke="#20237C" stroke-width="2.91501"/>
<path d="M65.6082 66.4649H19.2596V5.54123H65.6082V66.4649Z" fill="#D9C5FF" stroke="white" stroke-width="4.66401"/>
<path d="M31.4776 16.8691H28.0753V14.8642H37.3404V16.8691H33.9381V25.4963H31.4776V16.8691ZM42.1066 17.2033C43.3724 17.2033 44.3444 17.5071 45.0229 18.1146C45.7013 18.712 46.0405 19.6183 46.0405 20.8334V25.4963H43.823V24.4787C43.3774 25.2381 42.5471 25.6178 41.332 25.6178C40.7042 25.6178 40.1574 25.5115 39.6916 25.2989C39.236 25.0862 38.8866 24.7926 38.6436 24.4179C38.4006 24.0433 38.2791 23.618 38.2791 23.1421C38.2791 22.3826 38.5626 21.7852 39.1297 21.3498C39.7068 20.9144 40.5928 20.6967 41.7877 20.6967H43.6711C43.6711 20.1803 43.5141 19.7854 43.2002 19.512C42.8863 19.2285 42.4155 19.0867 41.7877 19.0867C41.3523 19.0867 40.9219 19.1576 40.4966 19.2993C40.0815 19.431 39.7271 19.6132 39.4334 19.8461L38.5829 18.1906C39.0284 17.8767 39.56 17.6336 40.1777 17.4615C40.8055 17.2894 41.4485 17.2033 42.1066 17.2033ZM41.9244 24.023C42.3294 24.023 42.6889 23.9319 43.0028 23.7496C43.3167 23.5572 43.5394 23.2788 43.6711 22.9143V22.0789H42.0459C41.0738 22.0789 40.5878 22.3978 40.5878 23.0358C40.5878 23.3395 40.7042 23.5826 40.9371 23.7648C41.1801 23.937 41.5092 24.023 41.9244 24.023ZM54.1083 25.4963L52.316 22.9902L50.463 25.4963H47.8809L51.025 21.3802L47.9872 17.3248H50.6452L52.3768 19.7094L54.1538 17.3248H56.6752L53.6374 21.3194L56.7967 25.4963H54.1083Z" fill="#20237C"/>
<rect x="25.6727" y="36.7314" width="32.0651" height="2.91501" rx="1.4575" fill="#20237C"/>
<rect x="25.6727" y="45.4766" width="32.0651" height="2.91501" rx="1.4575" fill="#20237C"/>
<rect x="25.6727" y="54.2219" width="32.0651" height="2.91501" rx="1.4575" fill="#20237C"/>
<circle cx="67.2116" cy="53.4934" r="18.5832" fill="white" stroke="#20237C" stroke-width="2.18626"/>
<circle cx="67.2115" cy="53.4927" r="15.3038" fill="#11E6C1" stroke="white" stroke-width="2.91501"/>
<path d="M62.8391 48.3914L73.0416 58.5939" stroke="#20237C" stroke-width="2.76159" stroke-linecap="round"/>
<path d="M73.0414 48.3909L62.8389 58.5934" stroke="#20237C" stroke-width="2.76159" stroke-linecap="round"/>
</svg>
